<?xml version="1.0" encoding="utf-8"?>
<!DOCTYPE svg PUBLIC "-//W3C//DTD SVG 1.0//EN" "http://www.w3.org/TR/2001/REC-SVG-20010904/DTD/svg10.dtd">
<svg version="1.0" xmlns="http://www.w3.org/2000/svg" width="499px" height="354px" viewBox="0 0 499 354" preserveAspectRatio="xMidYMid meet">
 <g fill="#000000">
  <path d="M295 214.5 c0 -4.4 2.3 -4.7 4.5 -0.5 2 3.9 2 4 -1.5 4 -2.8 0 -3 -0.3 -3 -3.5z"/>
 </g>
 <g fill="#080808">
  <path d="M262.5 332.3 c-9 -0.8 -22.5 -4.5 -31.5 -8.6 -5.7 -2.6 -5.3 -2.2 -4.5 -4.6 0.9 -3 7.5 -3.1 7.5 -0.1 0 1.9 0.7 2 10.5 2 6.3 0 10.5 -0.4 10.5 -1 0 -0.5 1.6 -1 3.5 -1 2.8 0 3.5 0.4 3.5 2 0 1.5 0.7 2 2.5 2 1.4 0 2.5 -0.5 2.5 -1.1 0 -1.6 -2.6 -3.9 -4.4 -3.9 -1.1 0 -1.6 -1 -1.6 -3.4 0 -3 0.4 -3.4 3.1 -4 1.7 -0.3 4.5 -0.6 6.2 -0.6 2.9 0 3 0.1 2.5 4.5 -0.4 3.4 -0.2 4.5 0.8 4.5 0.8 0 1.4 0.9 1.4 2.1 0 1.8 0.2 1.9 1.5 0.5 0.8 -0.8 1.5 -1.9 1.5 -2.5 0 -0.6 -0.7 -1.1 -1.5 -1.1 -1 0 -1.5 -1.1 -1.5 -3.5 0 -3.3 0.2 -3.5 3.5 -3.5 3.3 0 3.5 0.2 3.5 3.5 0 1.9 0.5 3.5 1 3.5 0.6 0 1 -1.6 1 -3.5 0 -2.8 0.4 -3.5 1.9 -3.5 1.3 0 2 0.9 2.4 3.3 0.2 1.8 0 3.5 -0.7 3.9 -0.7 0.5 -0.5 0.8 0.5 0.8 1.2 0 1.8 1.3 2.2 4.3 0.4 2.3 0.9 5.4 1.3 7 l0.6 2.7 -12.8 -0.2 c-7.1 -0.1 -14.7 -0.3 -16.9 -0.5z"/>
  <path d="M242 319 c0 -0.5 -1.3 -1 -3 -1 -2.8 0 -3 -0.3 -3 -3.5 0 -3.3 0.2 -3.5 3.5 -3.5 1.9 0 3.5 0.5 3.5 1 0 0.6 2.3 1 5 1 l5 0 0 3.5 0 3.5 -5.5 0 c-3 0 -5.5 -0.4 -5.5 -1z"/>
  <path d="M210.1 311.4 c-4 -3.3 -3.9 -4.4 0.4 -4.4 3.3 0 3.5 0.2 3.5 3.5 0 1.9 -0.2 3.5 -0.4 3.5 -0.3 0 -1.8 -1.2 -3.5 -2.6z"/>
  <path d="M247 311 c0 -0.5 -0.7 -1 -1.5 -1 -1 0 -1.5 -1.1 -1.5 -3.5 0 -3.3 0.2 -3.5 3.5 -3.5 1.9 0 3.5 0.5 3.5 1 0 0.6 0.9 1 2 1 1.6 0 2 0.7 2 3.5 0 3.4 -0.1 3.5 -4 3.5 -2.2 0 -4 -0.4 -4 -1z"/>
  <path d="M282 297 c0 -2.8 -0.2 -3 -4 -3 l-4 0 0 -4 0 -4 5.4 0 5.3 0 0.7 3.8 c1.2 7.3 0.8 10.2 -1.4 10.2 -1.6 0 -2 -0.7 -2 -3z"/>
  <path d="M274.6 268.4 c-1.4 -3.7 -0.7 -5.4 2.4 -5.4 2.8 0 3 0.3 3 3.5 0 3 -0.3 3.5 -2.4 3.5 -1.3 0 -2.7 -0.7 -3 -1.6z"/>
  <path d="M298 256.5 c0 -3.2 0.2 -3.5 3 -3.5 l3 0 -1.7 3.5 c-0.9 1.9 -2.3 3.5 -3 3.5 -0.8 0 -1.3 -1.3 -1.3 -3.5z"/>
  <path d="M301 250.5 c0 -0.9 -0.7 -1.8 -1.5 -2.1 -0.8 -0.4 -1.5 -1.7 -1.5 -3 0 -2 -0.5 -2.4 -3 -2.4 -2.8 0 -3 -0.3 -3 -3.5 0 -2.4 0.5 -3.5 1.5 -3.5 2 0 2 -4.6 0 -5.4 -1.7 -0.6 -3.5 2.9 -3.5 7 0 2.1 -0.5 2.4 -3.5 2.4 -3.3 0 -3.5 -0.2 -3.5 -3.5 0 -1.9 -0.4 -3.5 -1 -3.5 -0.5 0 -1 -1.5 -1 -3.4 0 -2.4 0.5 -3.5 1.7 -3.8 1.6 -0.3 1.6 -0.4 0 -2 -0.9 -0.9 -1.7 -2.8 -1.7 -4.2 0 -2.2 -0.4 -2.6 -3.1 -2.6 l-3.2 0 0.7 -6 c0.5 -4.1 0.4 -6 -0.4 -6 -0.6 0 -0.9 -0.4 -0.6 -0.9 0.4 -0.5 0.2 -2 -0.3 -3.3 -0.6 -1.2 -1 -1.7 -1 -1 -0.1 0.6 -1.2 1.2 -2.6 1.2 -2.2 0 -2.5 -0.4 -2.5 -3.5 0 -3.3 0.2 -3.5 3.5 -3.5 2.8 0 3.5 0.4 3.5 2 0 1.7 0.4 1.9 2.8 1.4 1.5 -0.4 3 -1.1 3.3 -1.6 0.8 -1.3 10.6 6.8 14.7 12.1 1.8 2.4 3.1 5 2.8 5.8 -0.3 0.8 -0.2 1.2 0.2 0.9 1.1 -0.7 4.1 5.5 5.8 11.9 1.6 5.8 1.8 19.2 0.4 22.9 -1 2.8 -4 3.6 -4 1.1z"/>
  <path d="M269 188.6 c0 -7.9 2.7 -10.8 6.2 -6.7 2.1 2.5 3.2 6.1 1.9 6.1 -0.6 0 -1.1 0.7 -1.1 1.5 0 1 -1.1 1.5 -3.5 1.5 -3 0 -3.5 -0.3 -3.5 -2.4z"/>
  <path d="M256 153.5 c0 -1.9 0.5 -3.5 1 -3.5 0.6 0 1 -1.2 1 -2.6 0 -2.3 0.3 -2.5 3.8 -2.2 3.5 0.3 3.7 0.5 4 4.2 0.3 3.7 0.2 3.8 -2.3 3.4 -1.9 -0.4 -2.8 -0.1 -3.3 1.1 -0.6 1.7 -2.1 3.1 -3.4 3.1 -0.5 0 -0.8 -1.6 -0.8 -3.5z"/>
  <path d="M261.2 140 c-1.9 -3.1 -1.5 -8.1 0.6 -8.7 1 -0.2 2.2 -1.9 2.8 -3.6 0.7 -2.5 1.5 -3.3 3.8 -3.5 2.4 -0.3 2.8 -0.1 2.1 1.5 -0.4 1 -1 2.7 -1.3 3.8 -0.2 1.1 -0.8 2.5 -1.2 3 -0.3 0.6 -1.2 2.9 -2 5.3 -1.4 4.6 -2.9 5.3 -4.8 2.2z"/>
  <path d="M263 112 c0 -3.7 0.2 -4 2.9 -4 3 0 4.1 1.4 4.1 5.6 0 2.1 -0.5 2.4 -3.5 2.4 -3.4 0 -3.5 -0.1 -3.5 -4z"/>
  <path d="M244 95.5 c0 -3.4 0.1 -3.5 2.8 -2.9 3.9 1 4.2 1.2 4.2 4 0 2.1 -0.5 2.4 -3.5 2.4 -3.3 0 -3.5 -0.2 -3.5 -3.5z"/>
 </g>
 <g fill="#101010">
  <path d="M280.9 332.2 c1.1 -0.8 1 -1.1 -0.5 -1.5 -1.5 -0.4 -1.4 -0.5 0.4 -0.4 2.7 0.2 3.1 2.1 0.5 2.5 -1.4 0.2 -1.5 0.1 -0.4 -0.6z"/>
  <path d="M290 331.9 c0 -0.5 -0.4 -0.8 -0.9 -0.4 -0.5 0.3 -1.2 0.1 -1.6 -0.4 -0.3 -0.6 0.4 -0.8 1.5 -0.6 1.1 0.2 1.8 0 1.5 -0.6 -0.4 -0.5 -1.3 -0.9 -2.1 -0.9 -0.8 0 -1.2 -0.4 -0.9 -1 0.3 -0.5 0.1 -1 -0.4 -1 -0.6 0 -1.1 0.4 -1.1 1 0 1.5 -6.3 0.7 -6.8 -0.9 -0.3 -1 0.1 -1.2 1.7 -0.8 2.4 0.6 2.9 -1.1 0.6 -2 -1.8 -0.6 -4.4 2.3 -4.5 4.8 0 2.1 -6 3.3 -6 1.2 0 -1.7 -2.1 -1.7 -4.7 0.2 -2 1.4 -10.3 1.8 -10.3 0.5 0 -0.3 -0.8 -0.6 -1.7 -0.7 -4.6 -0.2 -7.1 -0.8 -6.7 -1.4 0.2 -0.4 -0.3 -1 -1.2 -1.3 -0.9 -0.3 -1.2 -1.1 -0.8 -1.8 0.4 -0.7 -0.2 -0.5 -1.4 0.6 -2 1.8 -2.2 1.8 -8.1 -0.5 -3.4 -1.3 -6.1 -2.7 -6.1 -3.1 0 -0.5 -0.7 -0.8 -1.5 -0.8 -3.2 0 -18.7 -9.8 -17.8 -11.3 0.3 -0.5 0.2 -0.7 -0.4 -0.4 -0.5 0.3 -2.5 -0.6 -4.3 -2.2 l-3.4 -2.8 4.9 -1.6 c5.8 -2 8.5 -2.1 12.1 -0.5 2.2 1 2.8 1 3.2 0 0.2 -0.6 1 -1.2 1.8 -1.2 0.8 0 1.4 -0.9 1.4 -2 0 -1.6 0.7 -2 3.5 -2 2.8 0 3.5 0.4 3.5 2 0 1.3 0.5 1.8 1.5 1.4 0.9 -0.4 1.5 -1.9 1.5 -3.5 0 -2.4 0.4 -2.9 2.6 -2.9 2.5 0 5.4 -2 5.4 -3.8 0 -0.5 1.6 -1.3 3.5 -1.6 2.6 -0.5 3.5 -1.2 3.5 -2.6 0 -1.6 0.7 -2 3.5 -2 3.3 0 3.5 0.2 3.5 3.5 0 2.4 -0.5 3.5 -1.5 3.5 -0.8 0 -1.5 0.7 -1.5 1.6 0 1.1 0.5 1.4 1.6 1 0.9 -0.3 2.4 -0.6 3.5 -0.6 1.6 0 1.9 -0.7 1.9 -4 0 -2.9 0.4 -4 1.5 -4 0.8 0 1.5 -0.7 1.5 -1.5 0 -0.8 0.5 -1.5 1 -1.5 0.6 0 1 -0.6 1 -1.4 0 -0.8 0.8 -1.7 1.8 -1.9 0.9 -0.3 0.2 -0.5 -1.5 -0.6 -3.1 -0.1 -3.3 -0.3 -3.3 -3.6 0 -1.9 0.5 -3.5 1.1 -3.5 0.5 0 0.7 -0.4 0.4 -1 -0.3 -0.5 -1.7 -1 -3.1 -1 -2.1 0 -2.4 -0.5 -2.4 -3.5 0 -2.4 0.5 -3.5 1.4 -3.5 0.8 0 1.6 -1 1.8 -2.2 0.2 -1.3 1.1 -2.4 2 -2.6 1.2 -0.2 2 0.8 2.8 4 1.6 5.6 4.7 12.2 8.3 17.8 3.8 5.7 3.6 5.4 4.3 4.8 0.3 -0.4 -0.1 -1.9 -0.9 -3.5 -1.3 -2.5 -4 -10.1 -6.7 -18.8 -0.5 -1.6 -1.2 -5.4 -1.6 -8.2 -0.6 -5 -0.5 -5.3 1.5 -5.3 1.7 0 2.1 -0.6 2.1 -3 0 -2.3 0.4 -3 2 -3 1.1 0 2 -0.7 2 -1.5 0 -0.9 -0.9 -1.5 -2.5 -1.5 -1.4 0 -2.5 0.5 -2.5 1 0 0.6 -1.1 1 -2.4 1 -2 0 -2.5 -0.6 -2.8 -3.7 -0.6 -4.6 1.3 -17.1 3.6 -23.3 0.8 -2.5 1.6 -5.8 1.6 -7.3 0 -1.6 0.5 -3.8 1.1 -4.9 0.8 -1.5 0.8 -1.9 0 -1.4 -0.6 0.4 -1.1 0 -1.1 -1 0 -1.6 -0.1 -1.6 -1.4 0.1 -1 1.4 -2.8 2 -6.3 2.1 -4.1 0.2 -5.1 -0.2 -6.7 -2.3 -1.5 -2 -1.6 -2.9 -0.7 -4.9 1.7 -3.7 1.4 -4.4 -1.9 -4.4 -2.8 0 -3 -0.3 -3 -3.5 0 -3.1 0.3 -3.5 2.5 -3.5 2.6 0 3.5 -2.4 1.3 -3.3 -2.4 -0.9 2.5 -3.6 6.5 -3.7 7.5 0 12.8 4.7 13.5 12.2 0.3 3.4 1 4.9 2.2 5.3 1.7 0.5 5.3 3.2 7.5 5.5 0.6 0.6 1.6 1.6 2.4 2.3 4.8 4.2 8 8 7.5 8.8 -0.3 0.5 -1 0.7 -1.5 0.4 -0.5 -0.4 -0.9 0.1 -0.9 0.9 0 1.9 1.1 2 3 0.4 1.1 -1 1.1 -0.9 0 0.6 -1.4 1.8 -1.3 1.9 0.4 1.3 1.7 -0.7 1.7 -0.6 0.5 1 -1.2 1.5 -1.2 1.6 0.4 1 1.5 -0.6 2.2 0.3 1.8 2.6 0 0.4 0.4 0.7 1.1 0.7 0.6 0 0.9 0.2 0.6 0.5 -0.9 0.9 -5.8 -0.6 -5.2 -1.6 0.3 -0.5 0 -1.7 -0.5 -2.6 -0.6 -1 -1.1 -1.3 -1.1 -0.8 0 1.3 -6 1.2 -8.1 0 -1.2 -0.8 -1.2 -0.6 0 0.9 1 1.2 2.3 1.6 4.1 1.3 1.4 -0.3 3.2 -0.1 4 0.5 1.2 0.8 1.2 0.9 -0.2 0.4 -1 -0.3 -2.8 -0.1 -4 0.5 l-2.3 1 2.3 -0.5 c2.7 -0.5 5.2 0.2 5.2 1.5 0 0.5 -0.9 0.9 -2 0.9 -2.5 0 -2.6 2.2 -0.2 4.3 2.3 2.1 4.3 2.2 3.6 0.2 -0.4 -0.8 -1.2 -1.5 -2 -1.5 -0.8 0 -1.4 -0.4 -1.4 -1 0 -1.7 2.4 -1.1 5.4 1.5 1.6 1.3 3.2 2.2 3.6 2 1.7 -1.1 0.3 2.6 -1.6 4 -1.8 1.5 -1.8 1.6 0.5 1.3 2.3 -0.3 2.4 0 2.7 7.5 0.3 4.9 0 7.7 -0.7 7.7 -0.5 0 -0.8 0.4 -0.5 0.9 0.8 1.2 -1.4 7.1 -2.6 7.1 -0.5 0 -0.7 0.4 -0.4 0.9 1.3 2 -6.5 9.8 -13.2 13.3 l-4.4 2.3 0.7 9 c0.4 5 0.9 11.3 1.1 14 0.2 2.8 0.8 7.1 1.5 9.7 0.6 2.5 1 5.7 0.8 7 -0.1 1.3 0.3 3.6 0.9 5.1 1.6 3.9 1.5 6.4 -0.4 7.5 -1.5 0.8 -1.5 1 0 1.5 1.2 0.5 1.5 0.3 1 -0.6 -0.5 -0.8 -0.4 -0.9 0.3 -0.2 1.6 1.5 2.7 7.5 1.4 7.5 -0.6 0 -1.1 -0.5 -1.1 -1.1z m-5.5 -9.9 c-0.3 -0.5 -1.3 -1 -2.1 -1 -0.8 0 -1.4 0.5 -1.4 1 0 0.6 0.9 1 2.1 1 1.1 0 1.7 -0.4 1.4 -1z m3.5 -60 c0 -1.1 0.5 -2 1 -2 0.6 0 1 -1.6 1 -3.5 0 -3.2 -0.2 -3.5 -3 -3.5 -4.4 0 -5.6 1.6 -5.1 6.6 0.3 4.1 0.5 4.4 3.2 4.4 2.2 0 2.9 -0.5 2.9 -2z m14.3 -26.6 c-0.4 -1.1 -1 -0.9 -2.4 0.7 -2.5 2.9 -2.4 3.1 0.5 1.8 1.5 -0.7 2.2 -1.7 1.9 -2.5z m-8.3 -24 c0 -1.8 -0.8 -1.8 -4.2 0 -1.6 0.8 -2.8 1.1 -2.8 0.6 0 -0.5 -0.8 -0.6 -1.7 -0.3 -1.5 0.6 -1.5 0.7 0.1 1.3 2.9 1 8.6 -0.1 8.6 -1.6z m1 -3.3 c0 -0.5 -1.3 -0.9 -3 -0.9 -1.6 0.1 -3 0.5 -3 1 0 0.4 1.4 0.8 3 0.8 1.7 0 3 -0.4 3 -0.9z"/>
  <path d="M260 247.5 c0 -3 0.3 -3.5 2.4 -3.5 2.4 0 3.6 1.6 3.6 5.1 0 1.4 -0.7 1.9 -3 1.9 -2.8 0 -3 -0.3 -3 -3.5z"/>
  <path d="M261 234.5 c0 -3.1 0.3 -3.5 2.5 -3.5 2.6 0 2.9 0.9 1.9 4.8 -0.4 1.3 -1.4 2.2 -2.5 2.2 -1.5 0 -1.9 -0.7 -1.9 -3.5z"/>
  <path d="M261 221.5 c0 -3.9 2.2 -4.8 4 -1.6 1.7 3.3 1.2 5.1 -1.5 5.1 -2.2 0 -2.5 -0.4 -2.5 -3.5z"/>
  <path d="M300.5 223 c-1.9 -0.8 -1.9 -0.9 0.2 -0.9 1.2 -0.1 2.5 0.4 2.8 0.9 0.7 1.2 -0.2 1.2 -3 0z"/>
  <path d="M258 213.3 c0 -3.6 0 -3.6 2.1 -1.7 1.1 1 2.5 2.7 3 3.6 0.8 1.5 0.5 1.8 -2.1 1.8 -2.8 0 -3 -0.3 -3 -3.7z"/>
  <path d="M247.3 165.3 c-1.7 -0.8 -4 -2.3 -5.1 -3.4 -1.2 -1 -2.8 -1.9 -3.7 -1.9 -1.1 0 -1.5 -1 -1.5 -3.5 0 -3.3 0.2 -3.5 3.3 -3.5 2.1 0 3.8 -0.7 4.7 -2 0.8 -1.2 2.6 -2 4.2 -2 1.5 0 2.8 -0.4 2.8 -1 0 -0.5 -1.1 -1 -2.5 -1 -2.2 0 -2.5 -0.4 -2.5 -4 0 -3.3 0.3 -4 2 -4 3.9 0 5.6 -1.9 5.2 -5.8 -0.3 -2.5 0 -3.9 1.2 -4.7 1.5 -1.1 1.5 -1.7 0.1 -7.1 -0.8 -3.3 -2 -6 -2.5 -6.2 -0.6 -0.2 -1 -1.9 -1 -3.8 0 -3 -0.3 -3.4 -2.5 -3.4 -1.4 0 -2.5 -0.4 -2.5 -1 0 -0.5 -1.6 -1 -3.5 -1 -3.3 0 -3.5 -0.2 -3.5 -3.5 0 -2.8 0.4 -3.5 2 -3.5 1.5 0 2 -0.7 2 -2.5 0 -3.6 3.7 -4.2 8.6 -1.5 8.6 4.9 14 9.7 17 15.4 2 3.6 2 14.2 0.1 16.5 -2.2 2.5 -3.2 4.5 -1.9 3.7 1.4 -0.9 1.5 -0.2 0.3 2.2 -3 6 -3.3 7.2 -2.6 13.1 0.6 5.1 0.4 6.2 -0.9 6.7 -2.4 0.9 -3.1 -0.2 -1.6 -2.3 0.8 -1 0.2 -0.7 -1.2 0.7 -1.4 1.4 -2.3 3 -2.1 3.6 0.2 0.6 -0.3 1.4 -1.1 1.7 -0.9 0.4 -1.6 1.3 -1.6 2.2 0 0.8 -0.5 1.5 -1.1 1.5 -0.5 0 -1.5 1.3 -2 2.9 -1.3 3.7 -2.8 4.3 -6.6 2.4z"/>
 </g>
 <g fill="#191919">
  <path d="M249.2 327.4 c1.5 -1.5 1.5 -2 0.2 -4.6 -1.4 -2.6 -1.3 -2.8 0.6 -2.8 1.2 0 1.8 -0.4 1.5 -1 -1 -1.6 -4.2 -1.2 -4.9 0.7 -0.5 1.2 -0.9 1.4 -1.8 0.5 -0.7 -0.7 -2.2 -1.2 -3.5 -1.2 -1.3 0 -2.3 -0.4 -2.3 -1 0 -0.5 0.6 -0.7 1.3 -0.4 0.8 0.3 2 -0.2 2.7 -1.1 0.7 -0.8 1.8 -1.5 2.4 -1.5 0.6 0 0.5 0.4 -0.3 0.9 -1 0.6 -1 1 -0.1 1.6 0.6 0.4 1.8 -0.1 2.6 -1.1 0.9 -1.1 1.3 -1.3 0.9 -0.6 -0.8 1.5 2.1 1.6 3.1 0.1 0.3 -0.6 1.5 -0.9 2.5 -0.6 1.1 0.3 1.9 0.1 1.9 -0.5 0 -0.5 0.5 -0.6 1 -0.3 1.7 1 1.1 2.3 -1.2 2.8 -2 0.4 -2 0.4 0.4 0.6 2.1 0.1 2.5 0.5 2.1 2.1 -0.6 2.3 -2.3 2.7 -2.3 0.5 0 -0.8 -0.5 -1.5 -1.1 -1.5 -0.6 0 -0.9 0.7 -0.5 1.5 0.3 1 -0.1 1.5 -1.1 1.5 -1.3 0 -1.4 0.3 -0.5 1.2 1.6 1.6 1.5 2.8 -0.3 2.8 -0.8 0 -1.5 0.4 -1.5 0.9 0 0.5 -0.8 1.2 -1.7 1.5 -1.7 0.7 -1.7 0.6 -0.1 -1z"/>
  <path d="M239.6 325.5 c-0.5 -1.5 -0.9 -1.5 -2.3 -0.4 -1.2 1 -1.5 1 -0.9 0.1 0.4 -0.7 0 -1.5 -1.1 -1.9 -1 -0.3 -2.6 -1.2 -3.5 -2 -1.1 -1 -2.2 -1.2 -3.5 -0.5 -1.3 0.7 -2.6 0.5 -4.5 -0.7 -1.4 -0.9 -5.2 -3.1 -8.3 -4.9 -3.4 -2 -5.3 -3.7 -4.9 -4.4 0.4 -0.6 0.3 -0.8 -0.3 -0.5 -1.3 0.8 -13.3 -10 -13.3 -11.9 0 -0.9 1.1 -1.4 3.5 -1.4 2.9 0 3.5 0.4 3.6 2.3 0.1 2.1 0.1 2.1 0.8 -0.3 0.4 -1.4 0.6 -4.2 0.3 -6.4 -0.3 -2.6 0 -4.1 0.9 -4.7 1 -0.6 1 -0.9 0.2 -0.9 -0.8 0 -1.3 -1.4 -1.3 -3.6 0 -3.5 0.1 -3.6 3 -3 2.8 0.5 3 0.4 2 -1.4 -0.5 -1 -1 -2.8 -1 -3.9 0 -1.7 0.6 -2.1 3.5 -2.1 3.3 0 3.5 0.2 3.6 3.3 0.1 3.1 0.1 3.1 0.9 -0.8 0.5 -2.2 1.1 -5.7 1.5 -7.7 0.4 -2.5 1.2 -3.9 2.5 -4.3 2.6 -0.8 2.6 -3.5 0 -3.5 -1.6 0 -2 -0.7 -2 -3.5 0 -3.3 0.2 -3.5 3.5 -3.5 2.8 0 3.5 0.4 3.5 2 0 1.7 0.7 2 4.5 2 4.1 0 4.5 0.2 4.5 2.4 0 1.9 0.6 2.4 3.6 2.9 4.4 0.7 6.4 0 6.4 -2.4 0 -1.5 0.7 -1.9 3.5 -1.9 3.2 0 3.5 -0.2 3.5 -3 0 -2.5 -0.4 -3 -2.5 -3 -1.4 0 -2.5 -0.4 -2.5 -1 0 -0.5 -0.7 -1 -1.5 -1 -1.2 0 -1.5 -1.3 -1.5 -6 0 -3.3 -0.4 -6 -1 -6 -0.5 0 -1 -1.6 -1 -3.5 0 -2.8 0.4 -3.5 2 -3.5 1.1 0 2 -0.4 2 -1 0 -0.5 0.7 -1 1.5 -1 0.9 0 1.5 -0.9 1.5 -2.4 0 -1.3 0.6 -2.7 1.3 -2.9 0.6 -0.3 0 -0.6 -1.5 -0.6 -2.3 -0.1 -2.8 -0.6 -2.8 -2.6 0 -1.4 -0.4 -2.5 -1 -2.5 -0.5 0 -1 -1.7 -1 -3.9 0 -3.6 0.2 -3.9 3.5 -4.5 3.4 -0.7 4.9 -2.6 2 -2.6 -0.8 0 -1.5 -0.4 -1.5 -1 0 -0.5 -0.9 -1 -2 -1 -1.6 0 -2 -0.7 -2 -3.5 0 -1.9 0.4 -3.5 0.9 -3.5 0.9 0 10.3 8 13.1 11.2 5.4 6 7.6 10.1 6.4 12 -0.4 0.7 -0.2 0.8 0.4 0.4 0.9 -0.5 1.2 1.3 1.2 6.4 0 3.9 -0.4 6.9 -0.8 6.6 -0.8 -0.5 0.1 10.8 1.6 20.6 0.6 3.9 0.5 6.1 -0.2 6.9 -0.8 0.9 -0.7 1 0.3 0.4 1.1 -0.6 1.3 -0.4 0.8 0.9 -0.5 1.1 -0.3 1.5 0.5 1 0.7 -0.5 0.9 0 0.6 1.4 -0.4 1.2 -0.2 2 0.2 1.7 0.5 -0.3 1.1 0.8 1.5 2.5 0.4 1.6 1.1 3 1.6 3 0.5 0 0.9 0.5 0.9 1.1 0 0.5 -0.6 0.7 -1.2 0.4 -0.7 -0.4 -0.6 0 0.3 0.7 0.9 0.7 3 3.5 4.6 6 1.7 2.6 3.3 4.5 3.7 4.1 0.3 -0.3 0.6 -0.1 0.6 0.5 0 0.7 -0.9 1.2 -2 1.2 -1.5 0 -2 -0.7 -2 -2.5 0 -2.7 -1.7 -3.1 -5.5 -1.5 -1.7 0.7 -1.7 0.9 -0.2 0.9 0.9 0.1 1.7 0.8 1.7 1.6 0 1.7 -1.6 2.1 -2.2 0.5 -0.2 -0.6 -0.8 -0.6 -1.8 0 -1.3 0.8 -1.2 1 0.3 1 0.9 0 1.7 0.5 1.7 1 0 0.6 -0.4 1 -0.8 1 -0.4 0 -0.7 1.6 -0.7 3.5 0 1.9 0.5 3.3 1 3.1 0.6 -0.2 0.9 -0.9 0.7 -1.5 -0.1 -0.6 0.9 -1.1 2.3 -1.1 3.1 0 3.2 1.6 0.3 3.9 -2.8 2.3 -1.5 4.5 2.3 3.7 1.5 -0.3 3.1 -0.1 3.4 0.5 0.4 0.6 -1.4 0.9 -4.9 0.8 -3.1 -0.1 -5.6 -0.6 -5.6 -1.1 0 -0.4 0.5 -0.8 1 -0.8 0.6 0 1 -0.8 1 -1.7 0 -1.4 -0.5 -1.2 -2.7 0.9 -3 3.1 -2.8 3.7 1 4 1.5 0.1 2.7 0.5 2.7 0.9 0 0.9 6.1 3.2 8 3 1 -0.1 0.8 0.3 -0.5 1.1 -1.1 0.6 -2.5 1.9 -3.2 2.7 -0.6 0.9 -1.5 1.3 -1.9 0.9 -0.4 -0.4 -0.1 -1.4 0.6 -2.3 0.7 -0.9 1 -1.9 0.6 -2.2 -0.4 -0.4 -1.1 -0.2 -1.5 0.6 -0.6 1 -1.5 0.7 -3.6 -1.3 -2.9 -2.7 -5.7 -3.7 -3.1 -1.1 0.8 0.8 2 1.5 2.7 1.5 0.9 0 0.9 0.3 -0.1 1.5 -0.6 0.8 -0.9 1.9 -0.5 2.5 0.4 0.7 0 1 -1.1 0.8 -1.1 -0.2 -1.8 0.2 -1.7 0.8 0.1 0.6 -0.9 1 -2.2 0.8 -1.4 -0.1 -2.5 0.2 -2.5 0.7 0 0.5 -0.5 0.9 -1.1 0.9 -0.5 0 -0.7 -0.5 -0.3 -1.1 0.4 -0.8 -0.9 -1 -4.5 -0.8 -4.1 0.3 -5.1 0.1 -5.1 -1.1 0 -1.3 1.2 -1.5 6.3 -1.3 4.4 0.1 5.5 0 3.7 -0.6 -1.4 -0.5 -1.9 -0.9 -1.2 -1 0.7 -0.1 1.1 -0.5 0.7 -1 -0.3 -0.5 0.5 -1.2 1.7 -1.4 1.9 -0.4 1.8 -0.5 -0.6 -0.6 -1.7 0 -3.5 0.7 -4.5 1.8 -1.4 1.6 -1.9 1.7 -3.4 0.6 -1.6 -1.2 -1.6 -1.3 0 -2.6 1.5 -1.2 1.6 -1.2 1 0.6 -0.7 2 -0.7 2 0.8 0.1 2.1 -2.7 1.9 -3.4 -1 -3.2 -1.5 0 -2.5 0.7 -2.5 1.6 0 1.3 -0.1 1.3 -1 0 -0.8 -1.2 -1.3 -1.3 -3 -0.2 -1.7 1 -2 1 -2 -0.5 0 -1.3 -0.3 -1.4 -1.1 -0.6 -0.6 0.6 -1.8 0.9 -2.5 0.6 -0.8 -0.3 -1.4 0 -1.4 0.6 0 0.6 1 1.1 2.3 1.1 1.7 0 1.9 0.2 0.7 1 -0.9 0.6 -1.8 0.6 -2.4 0 -1.4 -1.4 -2.9 -1.2 -2 0.2 0.4 0.7 0.3 0.8 -0.4 0.4 -0.7 -0.4 -1.2 -0.1 -1.2 0.8 0 0.9 -0.3 1.5 -0.7 1.5 -0.5 -0.1 -2.5 -0.1 -4.6 0 -3.2 0.1 -3.6 0.3 -2.5 1.5 0.9 1 1.5 1.1 2 0.2 0.6 -0.8 0.8 -0.8 0.8 0.2 0 0.6 0.5 1.2 1.1 1.2 0.5 0 0.7 -0.4 0.4 -1 -0.4 -0.6 0.8 -1 2.9 -1 1.9 0 3.8 0.5 4.2 1.1 0.5 0.9 -0.1 1 -2.2 0.5 l-2.9 -0.8 2.3 2.1 c2.3 1.9 2.3 2 0.3 1.8 -1.2 -0.1 -2.1 -0.5 -2.1 -0.9 0 -0.4 -1.8 -0.8 -4 -0.8 -3.1 0 -3.8 0.3 -3.4 1.5 0.4 0.9 1.9 1.5 4 1.5 2.8 0 3.5 0.5 4 2.5 0.3 1.4 1.3 2.5 2.1 2.5 0.9 0 1.3 0.6 0.9 1.5 -0.6 1.7 0.9 2.1 1.9 0.5 0.3 -0.5 1.2 -1 1.8 -1 0.8 0 0.8 0.3 -0.1 0.9 -1.1 0.7 -1 0.9 0.3 1.4 1 0.5 1.8 0 2.4 -1.5 l0.8 -2.2 0.5 2.2 c0.4 1.2 0.2 2 -0.2 1.7 -0.5 -0.3 -1.1 -0.1 -1.5 0.5 -0.4 0.6 -1.2 0.7 -2.4 0 -1.2 -0.6 -2.2 -0.5 -2.8 0.1 -0.7 0.7 -1.2 0.5 -1.7 -0.6z m-17.8 -11.2 c-1 -0.2 -2.8 -0.2 -4 0 -1.3 0.2 -0.5 0.4 1.7 0.4 2.2 0.1 3.2 -0.1 2.3 -0.4z m-8 -6.7 c0.7 -0.4 1.2 -0.2 1.2 0.3 0 0.6 1 1.1 2.2 1.1 l2.1 0 -2.3 -2 c-1.2 -1.1 -2.8 -1.6 -3.4 -1.2 -1.2 0.7 -1.8 0.9 -4.1 1.1 -0.8 0 -1.5 0.5 -1.5 0.9 0 0.9 4.2 0.8 5.8 -0.2z m19.8 0.6 c-0.3 -0.5 1.1 -1.4 3 -2.1 1.8 -0.7 3.4 -1.7 3.4 -2.2 0 -0.6 -0.3 -0.8 -0.7 -0.6 -0.5 0.2 -2.5 1.2 -4.5 2.2 -3.4 1.5 -4.3 3.5 -1.7 3.5 0.6 0 0.8 -0.4 0.5 -0.8z m16.5 -8.2 c0.6 0 0.7 0.4 0.4 1 -0.3 0.6 0.1 0.7 1 0.4 1.1 -0.5 1.3 -1 0.6 -1.7 -1.2 -1.2 -4.1 -0.2 -4 1.5 0 1 0.2 1 0.6 0.1 0.2 -0.7 0.9 -1.3 1.4 -1.3z m-27.7 -15.6 c1 -2.6 0.7 -3.4 -1.4 -3.4 -1.5 0 -2 0.7 -2 2.5 0 2.8 2.4 3.4 3.4 0.9z m24.6 -4.4 c0 -0.5 -0.7 -1 -1.5 -1 -0.8 0 -1.5 0.5 -1.5 1 0 0.6 0.7 1 1.5 1 0.8 0 1.5 -0.4 1.5 -1z m-3 -3.5 c0 -0.8 -0.4 -1.5 -1 -1.5 -0.5 0 -1 0.7 -1 1.5 0 0.8 0.5 1.5 1 1.5 0.6 0 1 -0.7 1 -1.5z"/>
  <path d="M258.5 324 c2.8 -1.2 3.7 -1.2 3 0 -0.3 0.6 -1.6 1 -2.8 0.9 -2.1 0 -2.1 -0.1 -0.2 -0.9z"/>
  <path d="M266.2 319.9 c-2.6 -1.3 -2.9 -1.8 -1.6 -2.3 0.9 -0.3 2.2 -0.2 2.8 0.3 0.6 0.5 2.7 1.3 4.6 1.8 l3.5 1 -3 0.4 c-1.6 0.2 -4.5 -0.3 -6.3 -1.2z"/>
  <path d="M287.4 318.8 c0 -1 0.3 -1.8 0.7 -1.8 0.4 0 0.9 0.8 1.1 1.8 0.3 1 0 1.9 -0.6 1.9 -0.7 0 -1.2 -0.9 -1.2 -1.9z"/>
  <path d="M287 313.2 c0 -0.6 -0.8 -1.3 -1.7 -1.6 -1 -0.3 -1.9 -1.7 -1.9 -3.1 -0.2 -2.8 0.3 -3 2.9 -1.1 1.6 1.3 1.6 1.4 0.1 2 -1.6 0.6 -1.5 0.8 0.2 2 1 0.8 1.6 1.8 1.1 2.2 -0.4 0.4 -0.7 0.2 -0.7 -0.4z"/>
  <path d="M277.5 305 c-0.3 -0.5 0 -1 0.8 -1 0.8 0 2.7 -0.7 4.3 -1.5 3.6 -1.8 4.4 -1.1 1.6 1.5 -2.3 2.1 -5.7 2.6 -6.7 1z"/>
  <path d="M275.1 286.3 c-0.1 -1.2 -0.7 -2.4 -1.3 -2.6 -1 -0.4 -1 -0.6 0 -0.6 1.5 -0.1 2.6 2.3 1.9 4.1 -0.3 0.7 -0.6 0.3 -0.6 -0.9z"/>
  <path d="M279.7 278.9 c0.4 -1.6 0.8 -1.7 1.4 -0.7 1.3 1.9 1.1 2.8 -0.5 2.8 -0.9 0 -1.2 -0.7 -0.9 -2.1z"/>
  <path d="M275.9 270.3 c-0.9 -1.5 -1.5 -3.6 -1.4 -4.5 0.2 -1 -0.1 -2.1 -0.6 -2.4 -0.6 -0.3 -0.5 -1.1 0.2 -2 1 -1.2 0.9 -1.3 -0.5 -0.8 -1.2 0.5 -1.6 0 -1.6 -1.9 0 -1.4 -0.4 -3.6 -0.9 -4.9 -0.4 -1.3 -1.2 -5.4 -1.6 -9.2 -0.5 -5.2 -0.4 -6.7 0.5 -6.1 0.7 0.4 0.4 -0.4 -0.5 -1.8 -1.5 -2.4 -1.5 -2.9 -0.2 -5.7 0.9 -1.7 1.1 -2.7 0.5 -2.4 -1.2 0.8 -0.1 -3.4 1.4 -5.3 0.7 -0.9 0.7 -1.3 -0.1 -1.3 -1.6 0 -1.4 -1.6 0.5 -3.4 0.8 -0.9 1.3 -2 0.9 -2.6 -1 -1.6 1.2 -4.6 3.7 -4.7 1.2 -0.1 1.8 0.1 1.3 0.5 -1.5 1.1 -1.7 3.3 -0.4 4.8 0.9 1.1 0.9 1.4 0 1.4 -0.7 0 -0.9 0.5 -0.5 1.1 0.4 0.8 -0.1 0.9 -1.7 0.4 -1.8 -0.4 -2 -0.4 -1 0.4 1.2 0.8 1.3 1.2 0.1 2.5 -2 2.5 -0.8 2.7 2.8 0.6 2.1 -1.3 3 -2.5 2.6 -3.5 -0.5 -1.1 0 -1.5 1.7 -1.5 1.9 0 2.1 0.2 0.9 1 -1.2 0.8 -0.8 1 1.5 1.1 2.1 0.1 2.4 0.3 1 0.6 -1.1 0.3 -2.8 1.3 -3.7 2.3 -0.9 1 -3 2.4 -4.7 3.1 -3.2 1.4 -5 4.9 -2.5 4.9 0.8 0 1.4 -0.7 1.4 -1.5 0 -2.2 2.3 -1.8 3.8 0.5 0.7 1.2 2.3 2 3.9 2 2.5 0 2.5 0.1 1 1.8 -2.1 2.3 -2.2 3.6 -0.1 2.8 0.9 -0.4 1.3 -0.2 0.8 0.5 -0.4 0.8 0.3 0.9 2.5 0.4 2 -0.4 3.1 -0.3 3.1 0.4 0 0.6 0.7 1.1 1.5 1.1 2.3 0 1.8 1.9 -0.7 3 -1.8 0.7 -1.9 0.9 -0.5 0.9 0.9 0.1 1.7 0.6 1.7 1.1 0 1.3 2.7 1.3 3.2 -0.1 0.2 -0.6 1.2 -0.7 2.8 -0.1 l2.5 0.9 -2.5 0.8 c-1.4 0.5 -4.1 0.8 -6 0.8 -2.1 -0.1 -2.6 0.1 -1.2 0.4 2.8 0.6 2.9 2.3 0 2.3 -3.1 0 -1.9 0.6 2.7 1.3 2.6 0.4 3.5 0.3 2.5 -0.3 -2.4 -1.5 -0.5 -2.1 2.6 -0.9 2.3 0.9 2.5 1.3 1.2 1.6 -1 0.3 -1.8 0.9 -1.8 1.4 0 0.6 -0.9 0.8 -1.9 0.4 -1.1 -0.3 -2.3 0 -2.7 0.6 -0.5 0.9 -0.2 1 0.9 0.6 1.1 -0.4 1.7 -0.1 1.7 0.9 0 0.8 0.6 1.7 1.4 2 1.3 0.5 1.4 1.9 0.7 6.7 0 0.4 -0.8 0.7 -1.7 0.7 -0.9 0 -1.2 0.5 -0.8 1.2 0.5 0.7 0.3 0.8 -0.6 0.3 -0.8 -0.5 -1.8 -0.1 -2.6 1 -0.8 1.1 -2.1 1.6 -3.4 1.2 -1.1 -0.3 -2 -0.1 -2 0.4 0 0.5 -0.6 0.9 -1.4 0.9 -0.8 0 -1.3 0.8 -1.2 1.8 0.1 1.3 -0.8 1.8 -3.4 2 -3 0.2 -3.8 -0.2 -5.1 -2.5z m7.1 0.7 c0 -1.3 -1.1 -1.3 -3 0 -1.2 0.8 -1.1 1 0.8 1 1.2 0 2.2 -0.4 2.2 -1z m2.8 -22.8 c0.6 -1.8 -1.5 -1.4 -2.2 0.4 -0.4 1 -0.1 1.4 0.6 1.2 0.6 -0.2 1.4 -1 1.6 -1.6z"/>
  <path d="M299.4 257.5 c-0.2 -2 0.3 -2.5 2 -2.4 2 0 2 0.1 0.1 0.9 -1.1 0.5 -1.5 0.9 -0.8 0.9 0.7 0.1 1 0.8 0.7 1.6 -0.9 2.3 -1.9 1.8 -2 -1z"/>
  <path d="M302 248.8 c0 -0.4 -0.8 -0.8 -1.7 -0.8 -1.4 0 -1.5 -0.2 -0.4 -1.2 1.1 -1 1.4 -1 1.8 0 0.6 1.5 2.4 1.6 2.1 0.1 -0.2 -0.6 0.3 -1.4 1 -1.6 1.4 -0.6 1.6 1.3 0.2 2.2 -0.6 0.4 -0.8 1 -0.6 1.4 0.3 0.4 -0.1 0.8 -0.9 0.8 -0.8 0 -1.5 -0.4 -1.5 -0.9z"/>
  <path d="M222 239.5 c0 -3.3 0.2 -3.5 3.5 -3.5 3.3 0 3.5 0.2 3.5 3.5 0 3.3 -0.2 3.5 -3.5 3.5 -3.3 0 -3.5 -0.2 -3.5 -3.5z"/>
  <path d="M230 238.5 c0 -3.3 0.2 -3.5 3.5 -3.5 3.3 0 3.5 0.2 3.5 3.5 0 3.3 -0.2 3.5 -3.5 3.5 -3.3 0 -3.5 -0.2 -3.5 -3.5z"/>
  <path d="M279.3 228 c0.4 -2.7 1.3 -3.4 3.4 -2.6 1.7 0.7 1.7 0.8 -0.1 1.8 -1.5 0.8 -1.6 1.2 -0.5 1.9 1 0.6 0.8 0.9 -0.8 0.9 -1.7 0 -2.2 -0.5 -2 -2z"/>
  <path d="M274.5 206.2 c-0.3 -0.8 0.3 -2.4 1.2 -3.5 1.7 -1.9 1.7 -2 0.1 -1.4 -1 0.4 -1.8 0.2 -1.8 -0.2 0 -0.5 0.6 -1.1 1.3 -1.4 1 -0.4 1 -0.7 0 -1.8 -1.1 -1.1 -1.3 -1.1 -1.3 0 0 1 -0.3 1.1 -1.3 0.2 -1 -0.8 -1.4 -0.7 -1.4 0.4 0 0.8 0.4 1.2 0.9 0.9 0.4 -0.3 0.8 -0.1 0.8 0.4 0 1.8 -2.5 3 -6.5 3.3 -3.5 0.2 -4.6 -0.3 -9 -4.5 -4.5 -4.2 -5 -5 -4.9 -8.9 0.2 -7.9 5.9 -13.2 13.5 -12.4 4.2 0.4 5.7 1.2 4.4 2.5 -0.4 0.4 -1 0.1 -1.2 -0.5 -0.6 -1.8 -2.3 -1.6 -2.3 0.2 0 0.7 -0.8 1.9 -1.7 2.4 -1.7 1 -1.7 1 -0.1 1.1 0.9 0 2 -0.4 2.3 -1 0.3 -0.5 1.5 -1 2.6 -1 1 0 1.9 -0.5 1.9 -1.1 0 -0.8 0.5 -0.8 1.5 0.1 1.5 1.3 1.1 3.5 -0.6 2.5 -0.5 -0.4 -1.8 0 -3 0.9 -2.1 1.4 -2.1 1.4 -0.1 2.5 1.1 0.6 2.1 0.9 2.3 0.8 0.2 -0.1 -0.7 0.8 -2.1 2 -1.4 1.1 -2.1 2.5 -1.7 3 0.5 0.4 1.3 0.1 1.8 -0.8 0.4 -0.9 2.1 -2.4 3.5 -3.4 l2.7 -1.8 -2.3 3.2 c-1.2 1.8 -1.9 3.5 -1.5 3.9 0.6 0.7 1.3 0 4.2 -4.5 1.2 -1.7 1.2 -1.7 0.6 0.2 -1.2 3.7 -3.4 6.4 -5.6 6.8 -1.5 0.3 -1.2 0.5 1.1 0.6 1.7 0 3.2 0.6 3.2 1.1 0 0.6 0.5 1 1.1 1 0.5 0 0.8 -0.4 0.5 -0.9 -0.3 -0.5 0.3 -1.1 1.4 -1.4 1.6 -0.4 1.7 -0.2 0.7 1.4 -0.6 1 -1.5 1.9 -1.9 1.9 -0.5 0 -0.8 0.5 -0.8 1.1 0 0.5 0.6 0.7 1.3 0.3 0.6 -0.4 0.5 0.1 -0.4 1.2 -2.9 3.4 -3.4 4.8 -1.6 4.1 0.9 -0.3 1.9 -0.2 2.2 0.2 0.2 0.5 -0.4 1.1 -1.4 1.4 -1.2 0.3 -2.2 -0.1 -2.6 -1.1z m-9.5 -15.2 c-0.6 -1.2 -1.4 -2 -1.7 -1.7 -0.2 0.3 0.1 1.4 0.8 2.6 1.7 2.6 2.4 1.9 0.9 -0.9z"/>
  <path d="M229.3 195.8 c0.4 -2.8 1.2 -5.5 1.9 -6 1 -0.6 0.8 -0.8 -0.4 -0.8 -1.4 0 -1.8 -0.8 -1.8 -3.5 0 -3 0.3 -3.5 2.3 -3.5 1.7 0 2.6 0.9 3.5 3.3 0.6 1.7 2.8 4.9 4.7 6.9 2.1 2.2 3.5 4.7 3.5 6.2 0 2.5 -0.1 2.6 -7.1 2.6 l-7.2 0 0.6 -5.2z"/>
  <path d="M271.5 184 c-0.2 -0.4 0.7 -0.7 2 -0.7 3.3 0 4 1.2 0.9 1.3 -1.3 0.1 -2.6 -0.2 -2.9 -0.6z"/>
  <path d="M229.6 169.3 c-0.2 -1 -0.8 -3.7 -1.1 -6 -0.4 -2.7 -1.2 -4.3 -2.1 -4.3 -0.8 0 -1.4 0.7 -1.4 1.5 0 1.1 -1.1 1.5 -3.6 1.5 l-3.6 0 3 -3.7 c3.5 -4.4 17.6 -18 21.2 -20.5 1.7 -1.1 2 -1.7 1 -1.7 -0.9 -0.1 -2.5 0.5 -3.6 1.3 -2.3 1.7 -7.4 1 -7.4 -1 0 -0.8 -0.4 -1.4 -1 -1.4 -0.5 0 -1 -2 -1 -4.4 0 -5.7 -0.8 -7.6 -3.1 -7.6 -1.5 0 -1.9 -0.7 -1.9 -3.5 0 -1.9 0.5 -3.5 1 -3.5 0.6 0 1 -0.9 1 -2 0 -1.1 0.7 -2 1.5 -2 1.7 0 1.8 -1.1 0.9 -8.7 -0.6 -4.7 -0.9 -5.3 -3 -5.3 -1.7 0 -2.4 -0.6 -2.4 -2 0 -5.6 21.3 -6.5 27.4 -1.1 1 0.9 1.9 1.4 2 1.3 0 -0.2 1.6 0.4 3.4 1.5 1.9 1.1 3 2.3 2.7 3.2 -0.4 0.9 0.1 1.2 1.5 0.8 2 -0.5 2.6 0.3 1.3 1.7 -0.4 0.4 -0.8 1.8 -0.9 3.2 -0.1 2.3 0 2.3 1.7 0.8 1 -0.9 1.5 -2.3 1.2 -3.2 -0.4 -1 -0.4 -1.5 -0.2 -1.2 0.2 0.3 1.5 1.8 2.9 3.4 1.4 1.6 1.9 2.6 1.1 2.1 -0.8 -0.4 -1.7 -0.2 -2.2 0.6 -0.7 1.1 -0.9 0.9 -0.9 -0.6 -0.1 -1.8 -0.2 -1.8 -1 0.3 -0.5 1.2 -1.6 2.2 -2.5 2.2 -1.8 0 -2 1.6 -0.3 2.6 0.6 0.4 0.8 0.3 0.5 -0.3 -0.4 -0.6 0 -1.4 0.9 -1.7 1.2 -0.5 1.5 -0.2 1 1 -0.4 1.2 -0.2 1.5 0.9 1 0.8 -0.3 1.5 -0.2 1.5 0.3 0 1.4 -2.5 3 -5.1 3.4 -1.3 0.2 -2.3 0.7 -2.1 1 0.1 0.4 0.2 1.4 0.2 2.3 0 1.2 0.9 1.5 3.8 1.3 2.1 -0.2 4.3 0 5 0.5 0.7 0.4 1.7 0.4 2.2 0.1 0.6 -0.3 1 -0.1 1 0.4 0 0.6 -0.4 1.1 -1 1.1 -0.5 0 -1 0.9 -1 2 0 1.1 -0.5 2 -1.1 2 -0.5 0 -0.7 0.5 -0.4 1 0.3 0.6 0.1 1 -0.4 1 -1.5 0 -1.4 -1.3 0.2 -2.9 1 -1 0.9 -1.1 -0.5 -0.6 -1 0.4 -1.8 1.1 -1.8 1.6 0 0.4 -0.6 0.6 -1.4 0.3 -0.8 -0.3 -1.7 -0.1 -2.1 0.5 -0.3 0.7 0.3 1.1 1.7 1.2 1.7 0.1 1.8 0.3 0.5 0.6 -0.9 0.2 -1.4 0.9 -1.1 1.5 0.4 0.6 -0.2 0.5 -1.5 -0.1 -2.2 -1.2 -4.5 -0.6 -3.6 0.9 0.3 0.5 1.3 0.6 2.2 0.3 1.3 -0.5 1.5 -0.1 0.9 2.3 -0.4 1.6 -1.1 3 -1.5 3.2 -0.5 0.1 -1.7 1 -2.7 1.8 -1 0.9 -1.3 1.3 -0.6 0.9 0.7 -0.4 1.9 -0.1 2.7 0.5 1.1 0.9 1.5 0.9 1.5 0.1 0 -0.6 0.5 -1.1 1.1 -1.1 0.8 0 0.7 0.6 -0.2 1.6 -1.1 1.4 -1 1.9 0.9 3.4 2.5 2.1 2.9 3.5 0.6 2.6 -0.8 -0.3 -1.2 -0.2 -0.9 0.4 0.3 0.5 0 0.7 -0.8 0.4 -0.8 -0.3 -1.3 -1.3 -1 -2.3 0.3 -1.1 -0.2 -2.1 -1.2 -2.5 -2 -0.7 -3.5 0 -3.4 1.7 0 0.9 0.2 0.9 0.6 0 0.9 -2.3 2.5 -1.4 2.1 1.1 -0.3 1.6 0 2.7 0.9 3 2.3 0.9 1.3 4 -2.9 8.7 -1 1 -1.8 2.6 -1.8 3.5 0 0.8 -0.4 1.2 -1 0.9 -0.6 -0.3 -0.7 0.1 -0.4 0.9 1 2.7 -3.7 2.4 -7.7 -0.5 -1.5 -1 -4.1 -1.9 -5.7 -1.9 -2.6 0 -3.3 0.6 -5.1 4.5 -2.2 4.8 -3.6 5.6 -4.5 2.8z m29.9 -65.3 c0.3 -0.5 -0.1 -1 -0.9 -1 -0.8 0 -1.8 0.5 -2.1 1 -0.3 0.6 0.1 1 0.9 1 0.8 0 1.8 -0.4 2.1 -1z"/>
  <path d="M262.1 138.8 c0 -0.9 0.4 -2 0.9 -2.3 0.6 -0.4 0.8 -1 0.5 -1.5 -0.3 -0.4 0.5 -0.5 1.7 -0.2 2.1 0.6 2.1 0.7 0.4 1 -1.5 0.3 -1.6 0.6 -0.5 1.4 1.1 0.8 1.1 0.9 -0.3 0.4 -1 -0.3 -1.8 0.1 -2.1 1.2 -0.4 1.6 -0.5 1.6 -0.6 0z"/>
  <path d="M260.5 120 c-0.3 -0.6 0.2 -1.3 1.2 -1.6 1 -0.3 3.4 -1.2 5.3 -2.1 1.9 -0.8 3.2 -1.2 2.8 -0.7 -0.4 0.4 0 1.3 1 2.1 1.5 1.3 1.5 1.3 -0.4 0.4 -1.7 -0.8 -2.5 -0.6 -3.9 0.9 -1.9 2.1 -5 2.6 -6 1z"/>
  <path d="M267 114.2 c0 -0.5 0.6 -1.5 1.3 -2.1 1.4 -1.1 2.7 -0.5 2.7 1.2 0 0.6 -0.3 0.7 -0.7 0.4 -0.3 -0.4 -1.2 -0.2 -2 0.4 -0.8 0.7 -1.3 0.8 -1.3 0.1z"/>
 </g>
 <g fill="#212121">
  <path d="M227 317.9 c0 -0.6 -0.9 -0.9 -2 -0.6 -1.3 0.3 -2 0 -2 -1 0 -1 0.6 -1.3 1.6 -0.9 0.9 0.3 1.9 0.6 2.4 0.6 0.4 0 1 0.7 1.4 1.5 0.3 0.8 0.1 1.5 -0.4 1.5 -0.6 0 -1 -0.5 -1 -1.1z"/>
  <path d="M200.3 302.8 c-5.9 -5.7 -16.3 -19.7 -16.3 -22.1 0 -0.8 -1.1 -2.6 -2.5 -4.1 -1.4 -1.5 -2.5 -3.6 -2.5 -4.7 0 -1.5 0.7 -1.9 3.5 -1.9 1.9 0 3.5 0.5 3.5 1 0 0.6 0.9 1 2 1 1.1 0 2 0.7 2 1.5 0 1.5 2.6 2 5.4 0.9 0.9 -0.3 1.6 -1.5 1.6 -2.5 0 -3.1 3.6 -2.3 5.9 1.4 2.3 3.8 6.9 8.3 7.6 7.5 0.3 -0.3 -0.9 -2.2 -2.6 -4.4 -5.5 -6.9 -7.2 -11.3 -7 -17.9 0.1 -3.4 0.7 -6.3 1.4 -6.7 0.9 -0.6 0.9 -0.8 0 -0.8 -0.8 0 -1.3 -1.4 -1.3 -3.5 0 -2.4 0.5 -3.5 1.5 -3.5 0.8 0 1.5 -0.9 1.5 -2 0 -1.1 -0.5 -2 -1.1 -2 -0.6 0 -0.9 -1.6 -0.7 -3.7 0.3 -3.6 0.5 -3.8 4.1 -4.1 3.5 -0.3 3.7 -0.1 3.8 2.5 0 1.5 0.4 3.7 0.8 4.8 0.7 1.7 0.9 1.5 1.4 -1.5 3 -17.3 2.9 -17 4.8 -17 1 0 1.9 -0.7 1.9 -1.5 0 -0.9 -0.9 -1.5 -2.5 -1.5 -2.2 0 -2.5 -0.4 -2.5 -3.5 0 -3.1 0.3 -3.5 2.5 -3.5 2.2 0 2.4 -0.2 1.5 -2.6 -0.6 -1.4 -1 -3.9 -1 -5.5 0 -2.6 0.3 -2.9 3.3 -3 1.7 -0.1 2.4 -0.3 1.5 -0.6 -0.9 -0.2 -2 -1.3 -2.3 -2.4 -0.4 -1 -1.3 -1.9 -2.1 -1.9 -0.9 0 -1.4 -1.1 -1.4 -3.5 0 -2.4 0.5 -3.5 1.5 -3.5 0.9 0 1.5 -0.9 1.5 -2.5 0 -2.2 -0.4 -2.5 -3.5 -2.5 -1.9 0 -3.5 -0.4 -3.5 -1 0 -0.5 -1.3 -1 -3 -1 -1.6 0 -3 -0.2 -3 -0.5 0 -2.1 12.2 -19.9 14.5 -21.2 0.7 -0.4 1.3 -1.1 1.2 -1.4 -0.1 -0.3 1.1 -2 2.8 -3.7 2.1 -2.2 3.6 -3 5 -2.6 1.6 0.4 1.7 0.3 0.5 -0.5 -1.2 -0.8 -1.2 -1.3 0.4 -3 1 -1.1 2.4 -1.8 3 -1.4 0.6 0.3 0.8 0.2 0.3 -0.2 -0.4 -0.5 0 -1.7 1 -2.7 1.8 -2 3.8 -2.5 2.7 -0.6 -0.4 0.7 -0.3 0.8 0.4 0.4 0.6 -0.4 0.9 -1.2 0.6 -1.9 -0.2 -0.7 1 -2.1 2.7 -3.1 3 -1.8 3.1 -1.9 1.2 -3 -2 -1.1 -2 -3.5 0.1 -4.8 0.7 -0.5 0.4 -0.8 -0.6 -0.8 -1.3 0 -2 1.1 -2.4 3.9 -0.5 3.2 -1.4 4.5 -4.5 6.6 -7.9 5.2 -22.3 18.5 -26.1 24.1 -2.5 3.7 -4.8 4.4 -4.8 1.5 0 -5.3 1.4 -11.1 2.6 -11.1 0.8 0 1.4 -0.9 1.4 -2 0 -1.3 -0.7 -2 -2 -2 -1.6 0 -2 -0.7 -2 -3.4 0 -2.9 0.5 -3.7 3 -4.8 1.7 -0.7 3 -2.1 3 -3 0 -1.4 0.8 -1.8 3.5 -1.8 3.3 0 3.5 0.2 3.5 3.5 0 2.4 -0.5 3.5 -1.5 3.5 -0.8 0 -1.5 0.6 -1.5 1.4 0 0.9 0.7 1.2 1.9 0.9 1.4 -0.4 2 -1.6 2.3 -5.3 0.7 -7.4 0 -10.8 -2.6 -11.2 -1.9 -0.3 -2.1 -1 -2.4 -8 l-0.3 -7.8 -2.9 0 c-2.5 0 -3 -0.4 -3 -2.4 0 -2.7 4.4 -8.6 6.5 -8.6 0.7 0 1.6 -1.1 1.9 -2.5 0.4 -1.4 1 -2.5 1.4 -2.5 0.5 0 1.7 -0.8 2.8 -1.9 2.6 -2.4 5.4 -3.8 9 -4.7 5 -1.1 10.4 -1.2 10.4 -0.2 0 0.6 -0.6 0.8 -1.3 0.5 -0.8 -0.3 -1.4 0 -1.4 0.7 0 0.7 1.3 1 3.6 0.8 2.8 -0.3 3.3 -0.1 2.1 0.8 -1.3 0.9 -1.2 1.3 0.8 2.9 2.2 1.9 3.1 3.8 1.2 2.6 -0.5 -0.3 -1 0 -1 0.7 0 0.9 -0.3 0.9 -1 -0.2 -0.8 -1.2 -1 -1.2 -1 -0.1 0 1 -0.3 1.1 -1.3 0.3 -1 -0.8 -1.3 -0.6 -1.3 0.9 0 1 0.5 1.8 1.1 1.8 2.4 -0.3 3.5 0.2 3.5 1.6 0 0.9 1 2 2.3 2.5 l2.2 0.9 -2.3 0 c-1.4 0.1 -2.2 0.6 -1.9 1.4 0.2 0.6 1.4 1.1 2.5 1.1 2.8 -0.2 2.9 1.6 0.2 2.3 -1.1 0.3 -2 1.4 -2 2.4 0 1.1 -0.6 2.2 -1.4 2.5 -0.8 0.3 -2.2 1.7 -3.1 3 l-1.6 2.5 4.1 -2.7 c2.7 -1.8 4 -3.3 3.7 -4.4 -0.3 -1.1 0.6 -1.9 2.9 -2.6 1.8 -0.6 3.1 -0.7 2.8 -0.2 -0.3 0.4 -0.1 0.8 0.4 0.8 1.2 0 3.3 -2.5 2.7 -3.2 -0.3 -0.3 0.7 -0.3 2.2 0 1.5 0.3 2.2 0.7 1.4 1 -0.7 0.2 -2.2 1.3 -3.2 2.3 -1.1 1.1 -2.5 1.6 -3.6 1.2 -1.4 -0.5 -1.2 0 0.7 2.7 1.3 1.8 3.2 3.5 4.2 3.8 2.2 0.5 2.4 2.2 0.3 2.2 -0.8 0 -1.5 -0.4 -1.5 -1 0 -1.6 -4.7 -1.2 -5.4 0.5 -0.4 1.2 0 1.4 1.9 0.9 1.5 -0.4 2.5 -0.2 2.5 0.5 0 0.6 -1.2 1.2 -2.7 1.2 -1.6 0.1 -2.1 0.3 -1.2 0.6 1.1 0.2 1.6 1.3 1.5 2.9 0 1.5 -0.6 2.2 -1.3 1.9 -0.8 -0.2 -1.3 0.4 -1.3 1.4 0 1.1 -0.3 2.6 -0.6 3.5 -0.4 1.2 0 1.6 1.6 1.6 1.9 0 2 0.2 1 1.5 -0.7 0.8 -1 2.4 -0.7 3.5 0.3 1.3 0 2 -0.9 2 -0.8 0 -1.4 -0.6 -1.4 -1.4 0 -0.8 -0.3 -1.7 -0.7 -1.9 -0.5 -0.3 -0.8 0.8 -0.8 2.3 0 1.5 0.3 2.6 0.8 2.3 0.4 -0.2 0.7 0 0.7 0.6 0 0.5 -0.8 1.2 -1.7 1.5 -1 0.3 -3.1 1.7 -4.8 3.1 -2.1 1.7 -2.4 2.3 -1 1.8 1.1 -0.4 2.6 -1.3 3.3 -2 2.1 -2.1 3.7 -1.5 1.8 0.6 -1.3 1.5 -1.4 2 -0.4 2.4 0.7 0.2 1 0.7 0.6 1.1 -0.3 0.4 -1.5 0.3 -2.6 -0.3 -1.6 -0.8 -2.4 -0.7 -3.9 0.7 -1 0.9 -1.3 1.3 -0.7 0.9 0.8 -0.5 1.7 -0.1 2.4 1 1 1.6 1 1.5 0.5 -0.4 -0.5 -1.8 -0.3 -2.2 0.9 -1.7 0.8 0.3 1.5 0.9 1.4 1.2 -0.3 2.6 0.3 3.4 1.6 2.3 2 -1.7 2.8 0.2 1.1 2.5 -1 1.3 -1.7 1.6 -2.2 0.7 -0.9 -1.2 -2.5 -1.6 -6 -1.4 -1.5 0.1 -2.8 1.4 -4.2 4.4 -2.6 5.4 -2.7 10.2 -0.2 16.7 1.1 2.7 1.7 5 1.5 5 -0.4 0 8.2 8.3 14.9 14.3 2.1 1.9 4 4.3 4.1 5.3 0.2 1 0.9 2 1.7 2.2 1.1 0.3 1.1 0.1 -0.1 -0.8 -1.3 -1 -1.2 -1.1 0.3 -0.6 1 0.3 2 0.6 2.1 0.6 0.8 0 -0.8 5.6 -1.8 6.2 -0.6 0.4 -0.7 1 -0.3 1.5 0.7 0.7 2.2 -0.8 3 -3 0.5 -1.7 3.7 0.6 4.3 3.2 0.4 1.4 1.1 3.1 1.6 3.8 1.2 1.5 0.1 3.5 -1.5 2.7 -0.7 -0.3 -0.4 0.1 0.6 0.9 1.2 1 1.4 1.7 0.8 2.2 -0.6 0.3 -1.1 0 -1.1 -0.7 -0.1 -0.9 -0.5 -0.7 -1.4 0.4 -0.7 1 -1.6 1.5 -1.9 1.1 -1 -0.9 -0.9 0.2 0.3 3.3 1 2.5 0.9 2.6 -1.7 2.1 -2.6 -0.5 -2.6 -0.4 -0.8 0.9 1.8 1.3 1.8 1.4 -0.6 1.5 -2 0.1 -2.1 0.2 -0.4 0.6 2.7 0.7 3.9 1.9 2.6 2.7 -0.6 0.4 -1.1 0.2 -1.1 -0.3 0 -0.6 -0.7 -1.1 -1.5 -1.1 -0.8 0 -1.5 0.4 -1.5 0.9 0 1.1 4.3 2.3 5 1.3 0.6 -0.8 4 -1.5 4 -0.8 0 0.3 -0.4 1.6 -1 3.1 -0.7 1.7 -0.7 2.4 0 2 0.6 -0.3 1 -0.2 1 0.4 0 0.5 -0.6 1.2 -1.2 1.4 -0.8 0.3 -0.5 0.6 0.6 0.6 1.5 0.1 1.7 0.6 1.3 3 -0.3 1.5 -0.1 3.3 0.6 4 0.8 0.8 0.7 1.1 -0.6 1.2 -3.3 0.3 -3.7 0.4 -3.4 1.4 0.1 0.6 0.5 0.9 1 0.8 2.4 -0.9 3.1 -0.6 3.3 1.4 0.1 2.2 -1.5 2.7 -2.8 0.8 -0.5 -0.6 -0.8 -0.6 -0.8 0.2 0 0.6 -1 0.9 -2.2 0.7 -2.1 -0.4 -2.1 -0.4 -0.3 0.4 1.9 0.9 1.9 0.9 -0.4 1.7 -1.8 0.5 -2.1 0.9 -1 1.6 1.2 0.8 1.2 1.1 -0.1 1.9 -1.3 0.9 -1.3 1 0 1.1 1 0 0.9 0.3 -0.5 1 -1.8 0.9 -1.8 0.9 0.3 0.5 3.9 -0.8 5.4 0.2 4 2.7 -0.8 1.6 -0.8 2.2 0.1 2.5 0.6 0.2 1.1 1 1.1 1.7 0 0.7 0.5 1.5 1.2 1.7 0.7 0.3 -0.6 1.6 -2.7 3.1 -3 2.1 -3.5 2.7 -2 2.7 1.9 0.1 1.9 0.1 0.2 1.5 -1.8 1.3 -1.7 1.4 0.5 1.8 1.3 0.2 0.4 0.5 -2 0.6 -3 0.1 -4.1 -0.2 -3.6 -1.1 0.5 -0.7 0.3 -0.8 -0.6 -0.3 -1 0.6 -0.9 1.1 0.5 2.1 1.5 1.1 1.4 1.3 -1.1 1.2 -3.5 -0.2 -8.4 1.8 -8.4 3.2 0 0.7 -0.8 0.9 -2.1 0.5 -1.4 -0.5 -1.9 -0.3 -1.5 0.3 0.3 0.6 -0.3 1.4 -1.4 1.7 -1.7 0.5 -1.9 1 -0.9 2.1 0.6 0.8 0.8 1.4 0.4 1.4 -0.9 0 -3.4 -3.1 -3.5 -4.3 0 -0.5 0.4 -0.6 0.9 -0.3 0.5 0.3 1.1 0 1.4 -0.8 0.4 -0.9 0 -1.2 -1.2 -0.9 -1 0.2 -4.2 0 -7.2 -0.5 -3.3 -0.7 -5.8 -0.7 -6.3 -0.1 -0.6 0.6 -0.5 0.9 0.5 1 5.3 0.2 8.3 0.9 9 2 1.3 2.2 0.1 2.4 -2.2 0.3 -2 -1.8 -2.2 -1.8 -3.4 -0.1 -1.4 2 -4.1 2.2 -4.9 0.5 -0.3 -0.7 -0.4 -0.2 -0.3 1.2 0.1 1.9 -0.3 2.6 -2.1 2.8 -1.2 0.2 -2 0.7 -1.7 1.2 0.3 0.4 -1.1 1.1 -3 1.4 -4.1 0.8 -4.6 2.1 -1 2.4 1.4 0.1 2.5 -0.3 2.5 -0.8 0 -0.6 0.8 -1 1.8 -1 1 0 1.9 0.7 1.9 1.5 0 1.1 -1.1 1.5 -3.7 1.5 -2 0 -4.1 0.5 -4.8 1.2 -0.9 0.9 -1.2 0.8 -1.2 -0.7 -0.1 -2 -0.1 -2 -1.6 0 -1.3 1.7 -1.6 1.8 -2.5 0.5 -0.8 -1.2 -0.9 -1 -0.4 0.8 1 3.5 -1.1 2.6 -7.2 -3z m21.5 -6.5 c-1 -0.2 -2.8 -0.2 -4 0 -1.3 0.2 -0.5 0.4 1.7 0.4 2.2 0.1 3.2 -0.1 2.3 -0.4z m41.2 -20.4 c0 -1.2 -2.7 -1.1 -3.5 0.1 -1.1 1.7 0.5 3.2 2.1 1.9 0.8 -0.6 1.4 -1.5 1.4 -2z m-34.6 0.6 c0.3 -0.9 0 -1.5 -0.9 -1.5 -0.8 0 -1.5 0.7 -1.5 1.5 0 0.8 0.4 1.5 0.9 1.5 0.5 0 1.1 -0.7 1.5 -1.5z m32.6 -6.7 c0 -0.4 -0.9 -0.8 -2 -0.8 -1.1 0 -2 0.4 -2 0.8 0 0.4 0.9 0.8 2 0.8 1.1 0 2 -0.4 2 -0.8z m-2.2 -24.7 c1.1 -0.7 1 -0.9 -0.3 -1.4 -1 -0.5 -1.4 -0.3 -0.9 0.5 0.5 0.7 0 0.9 -1.4 0.6 -1.2 -0.4 -2 -0.2 -1.6 0.3 0.7 1.1 2.5 1.1 4.2 0z m-43.3 -0.8 c-1.1 -0.3 -2.3 -1 -2.7 -1.7 -0.5 -0.7 -0.8 -0.5 -0.8 0.7 0 1.2 0.7 1.7 2.8 1.6 2.1 -0.1 2.2 -0.2 0.7 -0.6z m39.5 -8 c0 -1.5 -0.2 -1.5 -0.9 -0.4 -0.5 0.8 -1.6 1.1 -2.6 0.8 -0.9 -0.4 -1.4 -0.3 -1 0.3 1.1 1.7 4.5 1.1 4.5 -0.7z m0.7 -4.3 c0.1 -1.6 -0.1 -1.7 -1.2 -0.7 -0.7 0.6 -1.1 1.5 -0.8 2 0.8 1.3 1.9 0.7 2 -1.3z m-1.3 -3.6 c0.9 -0.3 1.6 -1.2 1.6 -1.9 0 -0.8 0.8 -1.1 2 -0.8 1.1 0.3 2 0 2 -0.6 0 -0.6 -0.3 -1.1 -0.7 -1.2 -0.5 0 -1.8 -0.2 -3.1 -0.5 -1.9 -0.3 -2.3 0 -2 1.8 0.2 1.4 -0.2 2.2 -0.9 2.1 -0.7 -0.2 -1.3 0.2 -1.3 0.7 0 1.2 0.3 1.2 2.4 0.4z m-12.4 -79.5 c0 -0.5 -0.8 -0.9 -1.7 -1 -1.6 0 -1.5 -0.1 0.1 -0.8 2 -0.8 2 -0.8 0 -1.3 -3.3 -0.8 -4.8 0.2 -2.5 1.9 1.2 0.8 1.9 1.9 1.6 2.4 -0.3 0.5 0.1 0.6 0.9 0.3 0.9 -0.3 1.6 -1 1.6 -1.5z m8.5 -27.3 c1.3 0.5 1.6 0.3 1.3 -0.7 -0.5 -1.6 -3.9 -1.9 -5 -0.4 -1.3 1.7 -0.9 2.8 0.6 1.6 0.7 -0.6 2.1 -0.8 3.1 -0.5z m-8.2 -6.2 c-0.3 -0.9 -0.9 -1.1 -1.2 -0.6 -0.3 0.5 -1.3 1.2 -2.1 1.5 -0.9 0.3 -0.4 0.6 1.2 0.6 2.1 0.1 2.6 -0.3 2.1 -1.5z m-20.3 -7.9 c0 -0.8 -0.7 -1.5 -1.5 -1.5 -0.8 0 -1.5 0.7 -1.5 1.5 0 0.8 0.7 1.5 1.5 1.5 0.8 0 1.5 -0.7 1.5 -1.5z"/>
  <path d="M224 303 c0 -0.5 0.7 -1 1.6 -1 0.8 0 1.2 -0.4 0.9 -1 -0.3 -0.5 0.1 -1 0.9 -1 1.4 0 1.4 0.3 0.4 2 -1.3 2.1 -3.8 2.7 -3.8 1z"/>
  <path d="M262.3 295.1 c0.1 -1.2 0.6 -1.7 1.6 -1.3 1 0.4 1.1 0.7 0.3 1 -0.7 0.2 -1 0.8 -0.6 1.3 0.3 0.5 0.1 0.9 -0.5 0.9 -0.5 0 -0.9 -0.9 -0.8 -1.9z"/>
  <path d="M275.9 269.8 c-0.7 -2.4 -0.5 -3.6 0.5 -3.2 1.4 0.5 1.7 3.4 0.4 3.4 -0.4 0 -0.8 -0.1 -0.9 -0.2z"/>
  <path d="M261 265 c1.1 -0.8 1.2 -1.2 0.3 -1.8 -0.9 -0.6 -0.7 -1.1 0.7 -2 1.1 -0.7 2 -0.8 2 -0.3 0 0.5 0.8 0.8 1.8 0.7 0.9 0 1.7 0.6 1.7 1.4 0 0.8 -0.8 1.4 -1.7 1.4 -1 -0.1 -1.8 0.1 -1.8 0.5 0 0.4 -1 0.8 -2.2 0.8 -1.8 0.2 -2 0 -0.8 -0.7z"/>
  <path d="M286.5 261.9 c-0.4 -0.6 -0.4 -1.3 -0.1 -1.6 0.3 -0.4 0.6 0 0.6 0.8 0 1.1 0.2 1.1 1 -0.1 0.8 -1.3 1 -1.2 1 0.3 0 1.9 -1.5 2.3 -2.5 0.6z"/>
  <path d="M282 257 c0 -0.5 0.5 -1 1 -1 0.6 0 1 -0.6 1 -1.4 0 -0.7 0.9 -1.6 2 -1.9 1.1 -0.3 1.8 -0.1 1.5 0.3 -0.3 0.5 0.7 1.1 2.2 1.3 2.3 0.3 2.1 0.4 -0.9 0.6 -2.9 0.1 -3.6 0.4 -3.2 1.6 0.4 1 0 1.5 -1.5 1.5 -1.2 0 -2.1 -0.4 -2.1 -1z"/>
  <path d="M196.1 249.3 c-1.7 -6 -1.4 -7.3 1.4 -7.3 2.4 0 2.5 0.3 2.5 5.5 0 6.7 -2.3 7.7 -3.9 1.8z"/>
  <path d="M275.6 247.2 c-0.4 -0.7 -1.8 -1.2 -3.2 -1.2 -1.4 0 -2.2 -0.4 -1.9 -1 0.3 -0.5 0.1 -1 -0.4 -1 -0.6 0 -1.1 -0.7 -1.1 -1.6 0 -0.8 0.5 -1.2 1 -0.9 0.6 0.3 1 -0.2 1.1 -1.2 0 -1.6 0.1 -1.6 0.8 0.1 0.7 1.8 0.8 1.8 1.4 0.2 0.4 -1 0.5 -2.1 0.2 -2.5 -0.2 -0.5 0.7 -0.6 2 -0.3 2.1 0.4 2.2 0.6 1 1.9 -2.4 2.3 -1.8 3.3 2.3 3.4 2 0.1 2.7 0.4 1.6 0.6 -1.2 0.2 -2.6 1.4 -3.1 2.5 -0.6 1.5 -1.2 1.8 -1.7 1z"/>
  <path d="M261 236.7 c0 -0.2 1.1 -1.8 2.5 -3.7 1.7 -2.3 2.5 -2.8 2.5 -1.7 0 0.9 -0.5 1.7 -1.1 1.7 -0.6 0 -0.8 0.7 -0.5 1.6 0.3 0.8 0.2 1.2 -0.4 0.9 -0.6 -0.3 -1 -0.1 -1 0.4 0 0.6 -0.4 1.1 -1 1.1 -0.5 0 -1 -0.1 -1 -0.3z"/>
  <path d="M193 230.5 c0 -3.4 0.1 -3.5 4 -3.5 3.9 0 4 0.1 4 3.5 0 3.4 -0.1 3.5 -4 3.5 -3.9 0 -4 -0.1 -4 -3.5z"/>
  <path d="M201 221 c0 -2.8 -0.3 -3 -3.5 -3 -2.8 0 -3.5 -0.4 -3.5 -1.9 0 -3.7 1.2 -5.1 4.1 -5.1 2.6 0 2.9 0.4 2.9 3 0 2.8 0.3 3 3.5 3 3.3 0 3.5 0.2 3.5 3.5 0 3.3 -0.2 3.5 -3.5 3.5 -3.2 0 -3.5 -0.2 -3.5 -3z"/>
  <path d="M265.6 202 c-1.5 -0.5 -1.6 -0.9 -0.7 -1.4 0.7 -0.5 1.8 -0.3 2.4 0.3 1.4 1.4 0.6 2 -1.7 1.1z"/>
  <path d="M260.4 199.5 c-0.4 -0.8 -1 -1.3 -1.4 -1 -1.2 0.7 -6.3 -4.2 -5.6 -5.4 0.4 -0.6 0.2 -1.1 -0.3 -1.1 -1.4 0 -1.4 -3.7 0 -4.6 0.7 -0.4 0.9 0 0.5 1.4 -0.6 1.7 -0.3 1.9 1.4 1.5 2.4 -0.7 2.7 1.2 0.3 2.2 -1.5 0.6 -1.3 0.9 1.1 1.6 3.3 0.9 4.8 0.3 2.6 -1.1 -0.8 -0.5 -1.1 -1.2 -0.7 -1.6 0.4 -0.4 1.6 0.3 2.7 1.6 2.3 2.7 0.9 4.6 -2.2 2.9 -1.2 -0.6 -1.8 -0.6 -1.8 0.1 0 0.5 0.7 1 1.5 1 0.7 0 1.9 0.8 2.4 1.8 0.6 1 1.1 1.2 1.1 0.4 0 -0.7 0.5 -1 1 -0.7 1.2 0.7 0.4 2.5 -1.1 2.5 -0.5 0 -1.2 -0.7 -1.5 -1.5z"/>
  <path d="M207 196.5 c0 -3.3 0.2 -3.5 3.5 -3.5 3.3 0 3.5 0.2 3.5 3.5 0 3.3 -0.2 3.5 -3.5 3.5 -3.3 0 -3.5 -0.2 -3.5 -3.5z"/>
  <path d="M253 185.1 c0 -0.6 0.9 -1.1 2 -1.1 1.1 0 2 -0.4 2 -0.9 0 -0.5 0.9 -1.1 2 -1.4 1.1 -0.3 2 -0.1 2 0.4 0 0.5 -0.7 0.9 -1.6 0.9 -0.8 0 -1.2 0.5 -0.9 1 0.3 0.6 0 1 -0.9 1 -0.8 0 -2.1 0.3 -3 0.6 -0.9 0.3 -1.6 0.1 -1.6 -0.5z"/>
  <path d="M255.2 181.9 c0.4 -1.2 4.8 -4.6 4.8 -3.7 0 0.2 -1.2 1.5 -2.6 2.7 -1.5 1.3 -2.4 1.7 -2.2 1z"/>
  <path d="M196 169.5 c0 -3.3 0.2 -3.5 3.5 -3.5 3.3 0 3.5 0.2 3.5 3.5 0 3.3 -0.2 3.5 -3.5 3.5 -3.3 0 -3.5 -0.2 -3.5 -3.5z"/>
  <path d="M179.4 167.4 c0.3 -0.9 0.6 -2.4 0.6 -3.5 0 -1.4 0.7 -1.9 2.5 -1.9 2.2 0 2.5 0.4 2.5 3.5 0 3.2 -0.2 3.5 -3.1 3.5 -2.4 0 -3 -0.3 -2.5 -1.6z"/>
  <path d="M194 136.5 c0 -3.1 0.3 -3.5 2.8 -3.6 l2.7 -0.1 -2.7 -0.7 -2.8 -0.6 3.4 -6 c2.2 -4 4 -6.1 5.4 -6.3 1.9 -0.3 2.2 0.1 2.2 3.2 0 3.2 -0.3 3.6 -2.5 3.6 -2 0 -2.5 0.5 -2.5 2.5 0 2.1 0.5 2.5 3 2.5 2.7 0 3 0.3 3 3.1 0 4.3 -2.1 5.9 -7.4 5.9 -4.6 0 -4.6 0 -4.6 -3.5z"/>
  <path d="M250 136 c0 -0.5 0.7 -1 1.5 -1 0.8 0 1.5 0.5 1.5 1 0 0.6 -0.7 1 -1.5 1 -0.8 0 -1.5 -0.4 -1.5 -1z"/>
  <path d="M253 131 c0 -0.5 0.6 -1 1.3 -1 0.8 0 0.7 -0.4 -0.3 -1 -0.8 -0.5 -1 -1 -0.5 -1 0.6 0 1.5 0.4 2.2 0.8 0.9 0.6 0.7 1.1 -0.7 2 -1.2 0.7 -2 0.8 -2 0.2z"/>
  <path d="M263.4 127.1 c0.4 -0.5 0 -1.1 -0.6 -1.4 -1 -0.3 -1 -0.8 0.1 -1.8 0.8 -0.8 1.1 -0.9 0.7 -0.2 -0.3 0.6 -0.2 1.4 0.4 1.8 1.3 0.8 1.3 2.5 -0.1 2.5 -0.5 0 -0.8 -0.4 -0.5 -0.9z"/>
  <path d="M250.9 109.9 c1.3 -1.1 2.7 -1.7 3 -1.3 0.7 0.7 -2.8 3.4 -4.3 3.4 -0.6 -0.1 0 -1 1.3 -2.1z"/>
  <path d="M244 104.5 c0 -1.6 0.6 -2.5 1.5 -2.5 1.8 0 2 1.6 0.3 2.3 -1 0.4 -0.9 0.8 0.2 1.6 1.3 0.9 1.3 1.1 -0.2 1.1 -1.3 0 -1.8 -0.8 -1.8 -2.5z"/>
  <path d="M247.7 103 c0.8 -2.9 2.5 -3.7 2.1 -0.9 -0.1 1.2 -0.8 2.4 -1.5 2.6 -0.7 0.3 -0.9 -0.3 -0.6 -1.7z"/>
 </g>
 <g fill="#292929">
  <path d="M202.5 301 c-0.3 -0.5 -1.6 -1 -2.9 -1 -2.2 0 -4.6 -1.7 -4.6 -3.3 0 -0.5 0.7 -0.7 1.5 -0.3 0.8 0.3 1.5 0.1 1.5 -0.4 0 -0.6 -0.7 -1 -1.7 -1 -1.4 0 -1.4 -0.2 0.2 -2 1 -1.1 1.3 -2 0.7 -2 -1.4 0 -3.4 3.5 -2.5 4.4 0.3 0.3 0.2 0.6 -0.3 0.6 -0.8 0 -2.4 -2.1 -6.4 -8.8 -0.8 -1.4 -2.3 -3.3 -3.2 -4.3 -4.1 -4.3 -9.8 -18.6 -9.8 -24.5 0 -3.3 0.4 -4.3 2 -4.7 1.7 -0.4 2 -1.4 2 -6.5 0 -5.8 0.1 -6.1 2.8 -6.5 2.5 -0.4 2.5 -0.4 -0.5 -0.6 -3.2 -0.1 -3.3 0 -3.3 3.9 0 3.9 -0.1 4 -3.3 4 -3.3 0 -3.4 -0.1 -4.5 -6.4 -0.7 -3.5 -1.2 -6.8 -1.2 -7.5 0 -0.7 2.4 -1.1 6.8 -1.1 l6.8 0 -0.4 -4 c-0.4 -4 -0.4 -4 3.2 -4 l3.6 0 0 5.3 c0 2.8 0.5 6.9 1.1 9.1 0.8 3.1 0.8 4.1 -0.3 4.7 -0.9 0.6 -1 0.9 -0.1 0.9 0.7 0 2 2.6 2.9 5.8 1.8 6.4 6.7 17.3 9.6 21.5 1.1 1.5 1.7 2.7 1.4 2.7 -0.4 0 0.8 1.3 2.6 2.9 3.2 2.9 3.3 2.9 1.4 5 -1.1 1.2 -1.5 2.1 -1 2.1 0.5 0 0.2 0.4 -0.6 1 -1.2 0.7 -1 1.2 0.9 2.9 1.3 1.2 1.9 2.1 1.4 2.1 -0.6 0 -1.6 -0.7 -2.3 -1.5 -0.7 -0.8 -1.6 -1.3 -2 -1 -0.5 0.3 -1 0 -1.2 -0.7 -0.3 -0.7 -0.7 -0.4 -1.2 0.7 -0.4 1.1 -0.4 1.6 0 1.2 0.4 -0.4 1.3 0.1 1.9 1 0.7 1 2.8 2.3 4.6 2.9 2.4 0.9 2.8 1.3 1.4 1.4 l-2 0.1 2 1 2 0.9 -2 -0.3 c-1.1 -0.2 -1.9 -0.9 -1.7 -1.6 0.1 -0.7 -0.2 -1 -0.8 -0.6 -0.5 0.3 -1 1.2 -1 2 0 0.7 -0.7 1.5 -1.5 1.9 -0.8 0.3 -1.2 1.2 -0.9 2.1 0.7 1.7 -0.1 2.1 -1.1 0.5z m-2 -11.5 c0 -1.4 -0.3 -2.5 -0.7 -2.5 -1 0 -1 3.4 -0.1 4.3 0.3 0.4 0.7 0.7 0.7 0.7 0.1 0 0.1 -1.1 0.1 -2.5z m7 -9.5 c-0.9 -1.5 -4.1 -1.2 -5.6 0.6 -1.1 1.4 -1.1 1.8 0.4 2.9 0.9 0.6 1.5 1.4 1.3 1.7 -0.2 0.3 0.7 -0.5 2.1 -1.8 1.4 -1.3 2.2 -2.8 1.8 -3.4z m-19.5 -26.1 c0 -2.4 -2.3 -2.1 -2.8 0.4 -0.2 1 0.3 1.7 1.2 1.7 1 0 1.6 -0.9 1.6 -2.1z"/>
  <path d="M212.8 294.8 c0.4 -0.4 2.1 -0.3 3.7 0.1 3 0.9 3 0.9 -0.7 0.8 -2 -0.1 -3.4 -0.5 -3 -0.9z"/>
  <path d="M210.6 291.5 c1 -0.8 2.6 -1.5 3.4 -1.5 1 -0.1 0.8 -0.4 -0.5 -0.9 -2 -0.8 -2 -0.8 0.2 -1.5 1.1 -0.4 2.4 -1.7 2.7 -3 0.3 -1.3 1.4 -2.6 2.5 -2.9 1.4 -0.3 1.7 0 1.4 1.4 -0.3 1 -1 1.7 -1.5 1.6 -0.5 -0.1 -1.4 0.8 -1.9 2.1 -0.6 1.7 -0.5 2.2 0.7 2.2 0.9 0 1.4 0.6 1.1 1.3 -0.2 0.6 -1.8 1.1 -3.5 1.1 -1.8 -0.1 -3.2 0.2 -3.2 0.7 0 0.5 -0.8 0.9 -1.7 0.9 -1.5 0 -1.4 -0.2 0.3 -1.5z"/>
  <path d="M230.5 286.9 c0.3 -0.4 -0.3 -1 -1.3 -1.4 -1.6 -0.6 -1.6 -0.7 0.2 -2.1 1.4 -1 1.6 -1.4 0.5 -1.4 -1 -0.1 -0.7 -0.6 0.8 -1.9 1.2 -1 2 -2.1 1.7 -2.4 -0.3 -0.3 0.4 -0.3 1.6 0 2.2 0.6 2.1 0.6 -0.6 1.9 -1.6 0.7 -2.3 1.3 -1.5 1.3 1.1 0.1 1 0.6 -0.5 2.2 l-1.9 2.1 3.2 -0.6 c4.3 -1 4.9 0.7 0.8 2 -1.9 0.6 -3.2 0.7 -3 0.3z"/>
  <path d="M208.6 285.4 c-0.4 -1.2 -0.1 -1.4 1.4 -0.9 1.1 0.4 2 0.2 2 -0.4 0 -0.6 -0.5 -1.1 -1.1 -1.1 -0.6 0 -0.9 -0.5 -0.7 -1.1 0.2 -0.6 0.7 -0.9 1 -0.7 0.4 0.2 1.4 -0.6 2.1 -1.7 1.3 -1.6 1.7 -1.7 3.1 -0.6 0.9 0.7 1.6 0.9 1.6 0.3 0 -0.5 -0.7 -1.3 -1.6 -1.6 -0.9 -0.4 -1.5 -0.9 -1.2 -1.2 0.7 -0.6 5.8 1.7 5.8 2.7 0 1 -5.7 2.9 -6.4 2.2 -0.3 -0.4 -0.9 0.8 -1.2 2.5 -0.7 3.5 -3.7 4.5 -4.8 1.6z"/>
  <path d="M223 286 c-1.2 -0.8 -1.1 -1 0.8 -1 1.2 0 2.2 0.5 2.2 1 0 1.3 -1.1 1.3 -3 0z"/>
  <path d="M222.5 283 c-0.3 -0.5 0.3 -1 1.5 -1 1.2 0 1.8 0.5 1.5 1 -0.3 0.6 -1 1 -1.5 1 -0.5 0 -1.2 -0.4 -1.5 -1z"/>
  <path d="M245.5 283 c-3 -0.8 -3 -0.8 0.8 -0.9 2.3 -0.1 3.6 0.3 3.2 0.9 -0.3 0.6 -0.7 0.9 -0.8 0.9 -0.1 -0.1 -1.5 -0.5 -3.2 -0.9z"/>
  <path d="M241.5 280.3 c1.1 -0.3 2.4 -0.9 3 -1.4 1.4 -1.4 2.5 -1.1 2.5 0.6 0 1.1 -1 1.5 -3.7 1.4 -2.2 -0.1 -2.9 -0.3 -1.8 -0.6z"/>
  <path d="M241 277 c0 -0.5 -0.9 -1 -1.9 -1 -3.2 0 -3.2 -1.5 0 -1.6 1.5 -0.1 2.6 0.3 2.3 0.7 -0.3 0.5 0.2 0.9 1 0.9 0.9 0 1.6 0.5 1.6 1 0 0.6 -0.7 1 -1.5 1 -0.8 0 -1.5 -0.4 -1.5 -1z"/>
  <path d="M206.6 274.3 c-0.4 -1 -0.2 -1.9 0.3 -2.1 0.6 -0.2 0.8 -0.8 0.5 -1.4 -0.4 -0.6 0 -1.4 0.7 -1.9 1 -0.6 1 -0.9 0.2 -0.9 -0.7 0 -1.7 1 -2.4 2.1 -0.9 1.7 -1.3 1.9 -2 0.8 -1.5 -2.3 -6.7 -16.2 -7.3 -19.4 -0.3 -1.6 -1 -4.8 -1.5 -7 -3.2 -12.4 -1.6 -33.2 3.6 -48 2.9 -8.1 10.7 -23.5 13.4 -26.4 1.1 -1.1 1.9 -2.4 1.9 -2.9 0 -0.5 1.7 -2.7 3.8 -5 2.2 -2.3 3.7 -4.4 3.4 -4.7 -0.3 -0.3 0.3 -0.5 1.3 -0.5 1 0 1.6 -0.3 1.2 -0.6 -1.1 -1.1 2.3 -3.6 3.9 -3 1.4 0.5 1.4 0.9 0.3 2.2 -0.7 0.9 -2.2 2 -3.4 2.4 -1.5 0.7 -1 0.9 2.1 0.9 2.8 0.1 4.4 0.6 4.8 1.6 0.4 1.3 0.2 1.4 -1.5 0.5 -2.9 -1.6 -7.1 -0.8 -9.9 1.8 -1.9 1.8 -2.1 2.2 -0.7 2.2 0.9 0 1.7 -0.5 1.7 -1.1 0 -0.5 0.4 -0.7 1 -0.4 0.5 0.3 0.8 0 0.5 -0.7 -0.5 -1.2 3 -1.6 6.8 -1 0.5 0.1 -0.3 2.3 -1.7 4.9 -2.8 4.9 -2.8 6.6 0 3.9 0.9 -1 2.2 -1.5 3 -1.2 0.7 0.3 1.5 0.2 1.7 -0.2 0.2 -0.4 0.2 -0.1 0 0.6 -0.1 0.8 -0.3 2 -0.3 2.8 0 0.8 -0.9 1.4 -2 1.4 -1.1 0 -2 0.4 -2 0.9 0 0.5 1 0.7 2.2 0.3 1.7 -0.4 2 -0.2 1.5 1.1 -0.3 0.9 0.3 3.7 1.4 6.2 1.3 2.9 1.8 5.4 1.3 6.8 -0.6 1.9 -0.5 2 0.9 0.9 1.3 -1.1 1.7 -1 2.7 0.9 0.9 1.5 0.9 1.9 0.1 1.4 -1.5 -0.8 -10.2 2.5 -9.5 3.6 0.3 0.5 -0.3 0.9 -1.2 0.9 -1.4 0 -1.5 0.3 -0.6 1.2 0.8 0.8 1.5 0.8 2.4 0 1 -0.7 1.8 -0.6 3.3 0.5 1.9 1.5 1.9 1.5 -0.5 0.8 -1.4 -0.4 -2.2 -0.4 -1.7 0.1 1.4 1.4 9.7 1.2 9.7 -0.3 0 -2.5 1.9 -1.3 2.3 1.5 0.4 2.6 0.4 2.6 1.2 0.5 0.8 -2.4 2 -2.9 3 -1.3 0.3 0.6 0 1 -0.7 1 -0.9 0 -0.9 0.3 0.2 1 1.1 0.7 1.7 0.4 2.2 -0.8 0.7 -1.4 0.7 -1.4 0.5 0.3 -0.1 1.4 -1 2 -3.3 2.1 -1.7 0.1 -4.1 0.5 -5.5 0.8 -1.8 0.6 -2 0.5 -0.9 -0.3 0.8 -0.5 1.1 -1.4 0.6 -1.8 -0.4 -0.4 -1.3 -0.1 -1.9 0.8 -0.7 0.9 -2 1.5 -2.9 1.3 -1 -0.1 -1.8 0.4 -1.8 1.3 0 1 0.6 1.2 2 0.8 2.4 -0.8 2.6 0.3 0.3 2 -1.8 1.3 -1.1 5.1 0.8 3.9 0.8 -0.4 0.7 -0.9 -0.2 -1.5 -1.2 -0.7 -1.1 -0.9 0.1 -1 0.8 -0.1 2.1 -0.1 2.8 0 0.6 0.1 1.2 -0.2 1.2 -0.8 0 -0.5 -0.6 -1.2 -1.2 -1.4 -0.7 -0.3 0 -0.6 1.5 -0.6 1.6 -0.1 2.6 -0.5 2.2 -1.1 -0.8 -1.3 3.5 -1.3 5.5 0 0.8 0.5 1.2 1 0.8 1.1 -1.4 0.3 -2.8 0.6 -3.3 0.9 -0.3 0.1 -1.1 0.3 -1.7 0.4 -0.7 0.1 -1.2 1.1 -1 2.4 0.2 1.6 -0.2 2.2 -1.7 2.2 -1 0 -2.2 -0.6 -2.4 -1.2 -0.4 -1 -0.6 -1 -0.6 0 -0.1 0.7 2 2.3 4.7 3.4 4.4 2 4.5 2.2 2.2 2.8 l-2.5 0.7 2.7 0.8 c3.5 0.9 2.6 2.7 -0.9 1.8 l-2.7 -0.6 2 2.1 c1.7 1.9 2.5 2 5.4 1.2 2.2 -0.6 3.8 -0.6 4.4 0 0.9 0.9 -0.4 1.5 -2.6 1.1 -0.5 0 -0.8 0.4 -0.8 1 0 0.5 -0.4 0.8 -0.9 0.4 -0.6 -0.3 -1.5 0.4 -2.1 1.5 -0.6 1.1 -1.4 1.9 -1.8 1.8 -2 -0.4 -8.2 3.8 -8.2 5.5 0 0.5 0.6 0.4 1.3 -0.2 1.6 -1.3 2.8 -0.5 2.1 1.4 -0.6 1.4 2.2 2.8 3.7 1.9 0.5 -0.3 0.9 0.5 0.9 1.8 0 1.7 -0.3 1.9 -0.9 0.9 -0.7 -1.1 -1 -1.1 -1.6 0 -0.6 0.8 -0.1 1.8 1.3 2.7 2.9 1.9 2.8 3.6 -0.3 5.2 -1.6 0.9 -2.5 2.2 -2.5 3.7 0 1.6 0.4 2.2 1.2 1.7 0.8 -0.5 0.9 -0.2 0.5 1 -0.4 1 -0.7 2.3 -0.8 2.9 -0.1 0.7 -0.4 0.1 -0.8 -1.3 -0.4 -1.4 -1.4 -2.4 -2.1 -2.2 -1.1 0.3 -1.1 0 0 -1.2 0.7 -1 0.8 -1.6 0.2 -1.6 -2 0 -2.3 1.9 -0.8 4.8 1.2 2.3 1.2 2.9 0.1 2.9 -0.7 0 -1.1 -0.6 -0.8 -1.4 0.4 -0.9 0 -1.1 -1.1 -0.7 -0.9 0.3 -1.3 1 -1 1.5 0.3 0.5 -0.3 0.9 -1.3 0.9 -2.2 0 -10.4 2.9 -8.4 3 1.9 0 -0.6 3 -2.7 3 -0.8 0 -2.1 0.8 -2.9 1.8 -0.8 0.9 -1.2 1.1 -0.8 0.5 0.3 -0.8 0 -1.3 -0.8 -1.3 -2.2 0 -2.7 1.1 -1.6 3.2 0.9 1.8 0.8 1.8 -1 0.8 -1.4 -0.7 -2.1 -0.7 -2.1 0 0 0.5 0.5 1 1 1 0.6 0 1 0.5 1 1.1 0 0.6 -0.9 0.9 -2 0.6 -1.1 -0.3 -1.8 -0.1 -1.4 0.4 0.3 0.5 -0.1 0.9 -1 0.9 -0.8 0 -2.1 0.3 -2.9 0.6 -0.8 0.3 -1.7 -0.2 -2.1 -1.3z m15.3 -9.6 c0.8 -1.1 0.5 -1.3 -1.9 -0.9 -1.7 0.2 -3 0.8 -3 1.3 0 1.4 3.6 1.1 4.9 -0.4z m-15.5 -2.1 c-0.6 -1.6 0.5 -2.5 3.7 -3.1 3.5 -0.7 3.7 -1.8 0.2 -1.3 -1.8 0.2 -3.4 0.2 -3.6 -0.1 -0.2 -0.3 -0.2 -0.1 -0.1 0.6 0.2 0.6 -0.4 1.7 -1.2 2.4 -1.2 1 -1.2 1.4 -0.2 2 1.7 1.2 1.8 1.1 1.2 -0.5z m16.2 -1.1 c1.2 -0.8 2.4 -1.2 2.7 -0.9 0.9 0.9 8.6 -1.8 9.1 -3.3 0.4 -0.8 0.2 -2.2 -0.4 -3.1 -0.8 -1.4 -0.9 -1.3 -0.7 0.8 0.1 1.6 -0.3 2.4 -1 2.3 -0.7 -0.2 -1.3 0.2 -1.3 0.7 0 1.4 -3.7 1.2 -4.4 -0.2 -0.5 -1 -0.7 -1 -1.2 0 -0.6 1.2 -4.4 1.7 -4.4 0.6 0 -0.4 0.8 -1.3 1.8 -2 1.6 -1.3 1.6 -1.3 -0.3 -1.4 -1.8 -0.1 -1.9 -0.1 -0.2 -1.1 0.9 -0.5 2.1 -0.8 2.6 -0.5 0.5 0.3 1.2 -0.1 1.5 -1 0.8 -2.1 0.8 -2.4 -0.5 -2.4 -0.5 0 -0.7 0.5 -0.4 1 0.3 0.6 0.1 1 -0.4 1 -0.6 0 -1.1 -0.9 -1.1 -1.9 0 -1.8 -0.2 -1.9 -2.7 -0.6 -1.6 0.8 -3.5 1.2 -4.5 0.9 -0.9 -0.2 -1.9 0 -2.3 0.6 -0.3 0.5 -1.2 1 -1.8 1 -0.7 0 0.2 -0.9 1.8 -2.1 2.8 -1.9 2.8 -2 0.5 -1.3 -2.9 0.8 -4 2.2 -3.3 4 0.4 1 1 1.1 2.4 0.4 1.3 -0.7 2.5 -0.7 3.9 0.2 2.3 1.5 2.7 5.5 0.5 5.5 -0.8 0 -1.5 -0.7 -1.5 -1.4 0 -0.8 0.5 -1.1 1 -0.8 0.6 0.3 1 0.1 1 -0.4 0 -0.6 -0.7 -1.1 -1.5 -1.1 -0.8 0 -1.5 0.4 -1.5 1 0 0.5 -0.8 0.7 -1.7 0.3 -1.3 -0.4 -1.1 0.1 0.6 1.5 1.3 1.2 3.3 2.2 4.5 2.2 2.1 0.1 2.1 0.1 0.2 1.5 -2.7 2 0.2 2 3 0z m6.8 -12.7 c-0.5 -0.8 -0.2 -0.9 0.9 -0.5 0.9 0.3 1.9 0.2 2.2 -0.3 0.9 -1.5 -1.2 -2 -4.1 -0.9 -2.3 0.8 -2.5 1.2 -1.4 1.9 2.1 1.3 3.3 1.2 2.4 -0.2z m-1.9 -2.8 l2 -0.9 -2 0 c-1.1 0 -2.7 0.4 -3.5 0.9 -1.3 0.9 -1.3 1 0 0.9 0.8 0 2.4 -0.4 3.5 -0.9z m3.4 -4.5 c1.6 -0.8 3.1 -2.4 3.4 -3.6 0.4 -1.6 0.3 -1.9 -0.5 -1.1 -0.6 0.6 -1.7 0.8 -2.4 0.5 -0.8 -0.3 -2 0 -2.7 0.5 -1.5 1.3 -4.2 -0.1 -3.3 -1.7 0.4 -0.6 0 -1.1 -0.8 -1.1 -0.9 0 -1.6 -0.4 -1.6 -0.9 0 -0.5 -0.7 -1.2 -1.6 -1.5 -0.8 -0.3 -1.2 -0.2 -0.9 0.4 0.3 0.6 0.1 1 -0.5 1 -0.6 0 -1.8 0.6 -2.5 1.4 -1.2 1.2 -0.9 1.3 2.5 0.9 3.3 -0.5 3.8 -0.3 3.6 1.3 -0.2 0.9 -1.1 2.1 -2.2 2.5 -1.8 0.7 -1.7 0.8 0.3 0.8 1.2 0.1 2.5 0.6 2.8 1.1 0.9 1.4 3.1 1.2 6.4 -0.5z m-3.4 -8.5 c1.9 -0.8 1.9 -0.9 -0.2 -0.9 -1.2 -0.1 -2.5 0.4 -2.8 0.9 -0.7 1.2 0.2 1.2 3 0z m-6 -3 c0.4 -0.6 -0.6 -1 -2.2 -0.9 -2.5 0 -2.6 0.1 -0.8 0.9 1.1 0.5 2.1 0.9 2.2 0.9 0.1 0.1 0.5 -0.3 0.8 -0.9z m16.5 -0.5 c1.1 -1.3 0.8 -1.5 -1.4 -1.5 -2.3 0 -2.5 0.2 -1.4 1.5 1.6 1.8 1.3 1.8 2.8 0z m6.4 -1.1 c2.3 -0.9 2 -2.4 -0.4 -2.4 -1.1 0 -2 -0.4 -2 -1 0 -1.3 -2.7 -1.3 -3.5 0 -0.8 1.3 1.3 4 3 4 0.8 0 2 -0.3 2.9 -0.6z m-12.4 -12.4 c-1.3 -0.8 -1.2 -1 0.4 -1 1.1 0 1.7 -0.3 1.3 -0.6 -0.3 -0.3 -1.5 -0.3 -2.8 0.1 -1.7 0.6 -1.9 0.9 -0.8 1.6 0.8 0.5 1.9 0.9 2.4 0.9 0.6 0 0.3 -0.5 -0.5 -1z m-1.1 -28.7 c1.4 -0.9 2.1 -1.1 1.7 -0.5 -0.3 0.6 -0.2 1.3 0.4 1.7 0.5 0.3 1 -0.1 1 -0.9 0 -0.8 -0.5 -1.8 -1 -2.1 -0.6 -0.4 -0.8 -1.1 -0.5 -1.6 0.4 -0.5 -0.4 -0.9 -1.7 -0.9 -1.8 0 -2 0.2 -0.8 1 1.2 0.7 0.8 1 -1.5 1 -2.3 0 -2.7 0.3 -1.5 1 1.3 0.9 1.3 1.1 0 2 -1.3 0.9 -1.3 1 0 1 0.9 0 2.6 -0.8 3.9 -1.7z m-4.9 -4.3 c-1.9 -1.3 -3 -1.3 -3 0 0 0.6 1 1 2.3 1 1.8 0 1.9 -0.2 0.7 -1z"/>
  <path d="M243.9 274 c-1.3 -1 -2 -1.9 -1.6 -2 0.4 0 1.7 0.9 2.9 2 2.8 2.6 1.7 2.6 -1.3 0z"/>
  <path d="M247.6 271.5 c0.5 -1.1 0.1 -1.4 -1.2 -0.9 -1.6 0.5 -1.7 0.4 -0.4 -0.6 1.1 -0.9 1.2 -1.3 0.3 -1.7 -0.7 -0.2 -1.3 -0.9 -1.3 -1.5 0 -0.7 0.5 -0.6 1.4 0.1 1 0.9 1.6 0.8 2.6 -0.4 1 -1.2 1 -1.5 -0.4 -1.5 -0.9 0 -1.5 -0.6 -1.3 -1.2 0.2 -1.4 -2.9 -1.6 -8.1 -0.5 -2 0.4 -3.1 0.3 -2.7 -0.3 0.9 -1.4 9.5 -2.4 10.7 -1.2 1.2 1.2 4.1 0.4 3.2 -0.9 -0.3 -0.5 0.5 -0.9 1.7 -0.9 l2.2 0 -2.1 1.8 c-2.3 2 -2.4 5.3 -0.2 6.5 0.9 0.4 0.4 0.5 -1.2 0.2 -2.2 -0.4 -2.5 -0.2 -2.1 1.5 0.3 1 1.2 2.1 2.2 2.3 0.9 0.3 0.4 0.5 -1.1 0.6 -2.1 0.1 -2.6 -0.3 -2.2 -1.4z"/>
  <path d="M237 267 c2.2 -2.2 3.9 -2.7 2.1 -0.7 -0.6 0.8 -0.8 1.7 -0.4 2 0.3 0.4 -0.3 0.7 -1.5 0.7 l-2.2 0 2 -2z"/>
  <path d="M227 266.5 c0 -0.8 0.5 -1.5 1 -1.5 0.6 0 0.9 -0.5 0.8 -1.1 -0.2 -0.6 0.3 -1.4 1 -1.6 1.6 -0.6 1.3 2.6 -0.5 4.5 -1.5 1.6 -2.3 1.5 -2.3 -0.3z"/>
  <path d="M232 263.5 c0 -0.8 0.5 -1.5 1 -1.5 0.6 0 1 0.7 1 1.5 0 0.8 -0.4 1.5 -1 1.5 -0.5 0 -1 -0.7 -1 -1.5z"/>
  <path d="M243 259 c0 -0.5 0.5 -1 1.1 -1 0.6 0 0.9 -0.7 0.5 -1.5 -0.7 -2 0.8 -1.9 2.5 0.2 1 1.2 1 1.4 0.1 0.9 -0.7 -0.4 -1.5 -0.1 -1.8 0.8 -0.7 1.8 -2.4 2.2 -2.4 0.6z"/>
  <path d="M259 253 c0 -0.5 0.7 -1 1.5 -1 0.8 0 1.5 0.5 1.5 1 0 0.6 -0.7 1 -1.5 1 -0.8 0 -1.5 -0.4 -1.5 -1z"/>
  <path d="M244.2 251.2 c1.9 -2.3 4.5 -3.3 4.5 -1.7 0 0.8 -0.4 1.2 -0.9 0.9 -0.4 -0.3 -0.8 0.2 -0.8 1 0 0.8 -0.8 1.4 -1.9 1.3 -1.6 -0.1 -1.7 -0.4 -0.9 -1.5z"/>
  <path d="M251.6 248.4 c1 -0.8 1.3 -1.3 0.7 -0.9 -0.7 0.3 -2.3 -0.1 -3.5 -0.9 -1.2 -0.9 -1.7 -1.6 -1.1 -1.6 0.7 0 1.5 0.5 1.8 1 0.3 0.6 1.1 1 1.6 1 0.6 0 0.8 -0.4 0.5 -0.9 -0.3 -0.5 0.2 -1.5 1.2 -2.2 1.5 -1.3 1.6 -1.2 0.3 0.4 -0.7 0.9 -1 1.8 -0.5 1.9 0.5 0 1.4 0.2 1.9 0.3 0.6 0.2 1.8 0.3 2.8 0.4 0.9 0 1.7 0.6 1.7 1.1 0 0.6 -1 0.8 -2.4 0.4 -1.3 -0.3 -2.7 -0.1 -3 0.5 -0.4 0.6 -1.5 1.1 -2.4 1.1 -1.3 0 -1.3 -0.2 0.4 -1.6z"/>
  <path d="M247.3 241.5 c-0.3 -0.9 -0.3 -1.9 0.1 -2.2 0.3 -0.4 0.6 -0.1 0.6 0.5 0 0.7 1 1.2 2.3 1.2 1.8 0 1.9 0.2 0.7 1 -2.1 1.4 -3 1.2 -3.7 -0.5z"/>
  <path d="M241.6 234.1 c-0.3 -0.4 0.6 -1.3 1.9 -1.9 1.4 -0.7 2.5 -0.8 2.5 -0.4 0 1.2 -3.9 3.2 -4.4 2.3z"/>
  <path d="M182.2 219.3 c0.3 -3.5 0.6 -3.8 3.6 -4.1 3.1 -0.3 3.2 -0.2 3.2 3.7 0 4 -0.1 4.1 -3.6 4.1 -3.5 0 -3.5 -0.1 -3.2 -3.7z"/>
  <path d="M255 218.8 c0 -0.5 1.8 -0.8 3.9 -0.8 2.2 0 4.2 0.3 4.4 0.8 0.3 0.4 -1.5 0.7 -3.9 0.7 -2.4 0 -4.4 -0.3 -4.4 -0.7z"/>
  <path d="M169.4 213.8 c0.3 -1.3 0.6 -2.9 0.6 -3.5 0 -0.7 1.1 -1.3 2.5 -1.3 2.2 0 2.5 0.4 2.5 3.5 0 3.3 -0.2 3.5 -3.1 3.5 -2.8 0 -3.1 -0.3 -2.5 -2.2z"/>
  <path d="M177 205.5 c0 -3.3 0.2 -3.5 3.5 -3.5 3.3 0 3.5 0.2 3.5 3.5 0 3.3 -0.2 3.5 -3.5 3.5 -3.3 0 -3.5 -0.2 -3.5 -3.5z"/>
  <path d="M186 203.8 c0.2 -2.4 0.2 -6 0.1 -8 -0.1 -3.4 -0.4 -3.8 -3.6 -4.4 -2.5 -0.4 -3.5 -1.1 -3.5 -2.5 0 -1.2 -0.7 -1.9 -2 -1.9 -1.6 0 -2 -0.7 -2 -3.4 0 -1.9 0.4 -3.7 0.9 -4 0.4 -0.3 1.1 -2.8 1.5 -5.6 0.6 -4.2 1 -5.1 3.2 -5.6 1.3 -0.4 3.8 -0.4 5.4 0 4.3 0.8 5.9 -0.1 6.6 -3.9 0.3 -1.9 1.3 -3.6 2.2 -4 2.7 -1 -0.6 -2.5 -5.5 -2.5 -4.2 0 -4.3 -0.1 -4.3 -3.5 0 -1.9 0.4 -3.5 0.9 -3.5 0.5 0 1.1 -1.2 1.3 -2.7 0.2 -2.3 0.8 -2.9 3.6 -3.1 1.7 -0.2 3.2 -0.7 3.2 -1.3 0 -0.5 1.4 -0.9 3 -0.9 1.7 0 3 -0.4 3 -0.8 0 -0.5 -2.5 -0.7 -5.5 -0.4 l-5.6 0.5 1.7 -3.7 c1 -2 2.5 -3.6 3.3 -3.6 1.3 0 1.3 -0.2 0.3 -0.9 -1.2 -0.7 -1.2 -1.2 -0.1 -3 0.8 -1.1 1.6 -2.1 2 -2.1 0.3 0 0.6 -0.6 0.6 -1.4 0 -1.7 8.6 -15.8 12.3 -20.1 5 -5.9 9.3 -9.7 12.4 -11.1 1.7 -0.7 2.7 -1.3 2.1 -1.4 -1 0 1.5 -2 2.7 -2 0.3 0 0.4 1 0 2.2 -0.4 1.9 -0.3 2.1 0.9 1.1 0.8 -0.6 1.9 -1.3 2.4 -1.4 0.6 -0.2 0.9 -0.9 0.7 -1.5 -0.1 -0.6 1.2 -1.4 2.9 -1.6 2.6 -0.4 2.9 -0.3 1.6 0.7 -1.6 1.2 -1.7 3 -0.3 5.3 0.6 1 0.2 1.1 -1.7 0.7 -1.9 -0.5 -2.8 -0.2 -3.6 1.3 -2.2 4.2 -0.8 6.8 2.1 3.9 1.7 -1.7 4.8 -2.9 4.8 -1.8 0 0.4 -1.1 1.4 -2.5 2.1 -2.6 1.4 -3.3 3.4 -1.5 4.5 0.6 0.4 0.6 1.5 0 3.1 -0.6 1.4 -0.7 3 -0.4 3.6 0.4 0.7 0.2 0.8 -0.5 0.4 -0.6 -0.4 -0.9 -1.6 -0.6 -2.7 0.4 -1.1 0.2 -1.9 -0.4 -1.9 -0.6 0 -1.1 1 -1.1 2.3 0 1.8 -0.2 1.9 -1 0.7 -0.6 -1 -1 -1.1 -1 -0.2 0 0.6 -1.1 1.2 -2.5 1.2 -1.5 0 -2.4 0.5 -2.2 1.3 0.1 0.8 -0.9 1.1 -3 0.9 -1.8 -0.1 -3.3 0.2 -3.3 0.7 0 1.9 3.3 4.2 4.9 3.5 3.3 -1.3 5.1 -1.6 6.8 -1 1.5 0.6 1.5 0.9 0.3 1.7 -1.2 0.9 -1.1 1 0.6 0.6 1.3 -0.3 2.1 0.1 2.1 0.9 0 0.8 -0.7 1.4 -1.4 1.4 -0.8 0 -1.1 0.5 -0.8 1 0.3 0.6 1.7 0.7 3.1 0.4 1.5 -0.4 2.4 -0.2 2.4 0.5 0 0.7 -0.6 1.1 -1.2 1 -0.7 -0.1 -2.6 -0.1 -4.3 0 l-3 0.2 2.5 1.4 c1.4 0.8 2.1 1.5 1.5 1.5 -0.5 0 -0.2 0.5 0.8 1.1 0.9 0.6 1.4 1.5 1.1 2.1 -0.5 0.7 -0.2 0.9 0.8 0.5 1.2 -0.4 1.7 0.3 2 2.9 0.3 2.5 0.1 3.3 -0.9 3 -0.7 -0.3 -1.2 -0.2 -1 0.3 0.1 0.4 -2.6 3.1 -6 5.9 -6.9 5.7 -9.2 8 -14.2 13.8 -1.9 2.1 -3.9 3.8 -4.4 3.6 -0.5 -0.1 -0.6 0.1 -0.3 0.6 0.3 0.5 -0.6 2.4 -2 4.3 -5.9 7.9 -12.9 25.3 -14.1 35.2 -0.4 3.2 -0.9 3.7 -3 3.7 -2.3 0 -2.5 -0.3 -2.3 -4.2z m36 -102.2 c0 -1 -0.7 -1.2 -2.2 -0.8 -2.1 0.5 -2.1 0.6 -0.2 1.3 1 0.4 2 0.8 2.2 0.8 0.1 0.1 0.2 -0.5 0.2 -1.3z"/>
  <path d="M229.8 165.8 c0.3 -1.2 0.7 -1.7 1 -1 0.6 1.9 2.2 1.4 1.6 -0.5 -0.5 -1.6 -0.4 -1.6 0.6 0 1.3 2.1 1.3 2.2 -1.7 3.1 -1.8 0.6 -2.1 0.4 -1.5 -1.6z"/>
  <path d="M236.3 161.1 c1.8 -2.7 4.9 -3.8 4 -1.5 -0.3 0.8 -0.8 1.2 -1.1 0.9 -0.3 -0.3 -1.4 0.3 -2.5 1.2 -2 1.8 -2 1.8 -0.4 -0.6z"/>
  <path d="M230.5 158.3 c-1.9 -1.5 -1.9 -1.5 0.4 -0.8 1.6 0.5 2.1 0.4 1.7 -0.4 -0.4 -0.6 0 -1.4 0.8 -1.7 0.9 -0.3 1.3 -1 1 -1.5 -0.3 -0.5 0 -0.9 0.6 -0.9 0.7 0 1 0.6 0.7 1.4 -0.3 0.7 -0.1 1.9 0.4 2.5 0.6 0.8 0.5 0.8 -0.3 0.1 -1.7 -1.4 -2.8 -1.2 -2.2 0.4 0.8 2.1 -0.9 2.6 -3.1 0.9z"/>
  <path d="M229.6 150.1 c-0.3 -0.4 0.4 -1.7 1.5 -2.7 1.8 -1.6 1.9 -1.6 1.3 -0.1 -0.3 0.9 -1 1.7 -1.6 1.7 -0.5 0 -0.6 0.5 -0.3 1 0.3 0.6 0.4 1 0.1 1 -0.3 0 -0.7 -0.4 -1 -0.9z"/>
  <path d="M235 150 c0 -0.5 0.7 -1 1.5 -1 0.8 0 1.5 0.5 1.5 1 0 0.6 -0.7 1 -1.5 1 -0.8 0 -1.5 -0.4 -1.5 -1z"/>
  <path d="M238.5 146.9 c-0.4 -0.6 -1.3 -0.8 -2 -0.5 -0.9 0.3 -1.1 -0.2 -0.7 -1.7 0.6 -2.3 3.2 -5.5 3.2 -4 0 0.5 -0.5 1.4 -1.1 2 -1.6 1.6 -0.4 3.1 2.3 2.8 1.3 -0.1 1.5 0 0.5 0.2 -0.9 0.2 -1.5 0.9 -1.2 1.4 0.4 0.5 0.4 0.9 0.1 0.9 -0.3 0 -0.8 -0.5 -1.1 -1.1z"/>
  <path d="M243 135.4 c-3 -1.2 -3.1 -1.3 -0.7 -0.9 1.6 0.3 3.5 0.1 4.3 -0.6 1 -0.8 1.4 -0.8 1.4 0 0 0.6 -0.5 1.1 -1.1 1.1 -0.5 0 -0.7 0.5 -0.4 1 0.7 1.2 0.9 1.2 -3.5 -0.6z"/>
  <path d="M239.1 128.1 c-2.2 -1.4 1.2 -6.3 3.7 -5.3 1.5 0.6 1.4 0.7 -0.6 1 -1.8 0.3 -2.1 0.8 -1.6 2.8 0.7 2.7 0.5 2.8 -1.5 1.5z"/>
  <path d="M232.7 124.4 c-0.7 -0.7 1.4 -4.4 2.5 -4.4 0.5 0 0.8 0.6 0.8 1.4 0 1.6 -2.4 3.8 -3.3 3z"/>
  <path d="M234.9 112.1 c0.7 -0.5 1.1 -1.3 0.7 -1.9 -0.3 -0.6 -0.2 -1.3 0.4 -1.7 1.7 -1.1 7 -1.4 7 -0.4 0 0.5 -0.9 0.9 -2.1 0.9 -1.2 0 -2.3 0.8 -2.6 2 -0.3 1.2 -1.4 2 -2.7 2 -1.6 0 -1.8 -0.2 -0.7 -0.9z"/>
  <path d="M232 106.8 c0 -0.4 1.4 -0.8 3 -0.8 1.7 0 3 0.2 3 0.4 0 0.2 -1.3 0.6 -3 0.8 -1.6 0.3 -3 0.1 -3 -0.4z"/>
 </g>
 <g fill="#313131">
  <path d="M191.5 291.6 c-1.2 -1.1 -2.8 -3 -3.5 -4 -1.4 -1.8 -1.4 -1.9 0.6 -0.8 1.2 0.6 2.5 0.8 2.9 0.4 0.5 -0.4 0.5 0.1 0.2 1.1 -0.4 1.1 -0.1 1.7 0.9 1.7 0.8 0 1.3 0.4 1 0.9 -0.4 0.5 -0.1 1.1 0.6 1.3 0.7 0.3 0.8 0.7 0.3 1 -0.6 0.3 -1.9 -0.4 -3 -1.6z"/>
  <path d="M186.5 284.2 c-0.5 -0.4 -1.6 -1.5 -2.4 -2.4 -1.2 -1.6 -1.1 -1.8 1.3 -1.8 2.3 0 2.6 0.3 2.1 2.1 -0.5 1.6 -0.4 1.9 0.5 1.4 0.9 -0.5 1.1 -0.4 0.6 0.3 -0.8 1.4 -0.8 1.4 -2.1 0.4z"/>
  <path d="M193.6 282.5 c-1 -0.8 -2.4 -1.1 -3.2 -0.8 -0.8 0.3 -1.4 -0.1 -1.4 -1 0 -0.8 0.7 -1.8 1.6 -2.1 0.8 -0.3 1.3 -1 0.9 -1.5 -0.3 -0.6 0.4 -0.9 1.5 -0.8 l2.1 0.1 -2.1 1.6 c-1.2 0.9 -1.8 1.9 -1.4 2.3 1 1 2.6 0.9 2 -0.2 -0.3 -0.5 0.2 -0.8 1.2 -0.7 0.9 0 1.6 -0.4 1.5 -1.1 -0.2 -0.8 0.4 -1 1.3 -0.6 1.4 0.5 1.3 0.9 -0.6 2.3 -1.7 1.2 -1.9 1.9 -0.9 2.2 0.7 0.2 0.9 0.7 0.3 1 -0.5 0.4 -1.7 0 -2.8 -0.7z"/>
  <path d="M185 277.5 c-1 -1.2 -1.6 -1.3 -2.6 -0.4 -1.3 1.1 -1.9 0.2 -1.5 -2.3 0 -0.5 -0.4 -0.8 -1 -0.8 -0.6 0 -0.4 -0.7 0.5 -1.5 0.8 -0.8 2.1 -1.5 2.8 -1.5 0.7 0 1.9 -0.4 2.7 -0.9 0.8 -0.5 -0.1 -0.8 -2.7 -0.7 -2.3 0 -3.6 0.3 -3.1 0.7 0.6 0.4 0.3 0.9 -0.7 1.3 -1 0.4 -1.5 0.4 -1.1 0 0.4 -0.4 0.3 -1.2 -0.2 -1.8 -1.8 -2.4 -6.2 -17.2 -7.6 -25.9 -0.5 -3.1 -0.3 -3.7 0.7 -3.1 0.7 0.4 0.5 -0.2 -0.5 -1.3 -2.9 -3.3 -2.2 -24.3 1.4 -43.3 2.2 -11.3 5.3 -23 6.2 -23 0.4 0 0.5 -0.5 0.2 -1 -0.6 -1 0.9 -6.8 2.6 -10.2 0.5 -1 0.9 -2.2 0.9 -2.8 0 -1 0.8 -2.8 6.1 -14.7 1.2 -2.7 3 -6.7 4 -9 1 -2.4 2.3 -4.3 2.9 -4.3 0.6 0 0.8 -0.5 0.4 -1.1 -0.4 -0.8 0.1 -0.9 1.7 -0.4 2.2 0.6 2.2 0.6 0.7 -0.6 -1.7 -1.3 -1.5 -1.9 2.3 -8.1 2.2 -3.8 4.7 -6.8 5.5 -6.8 0.7 0 1.4 -0.5 1.4 -1.1 0 -0.5 -0.4 -0.7 -1 -0.4 -0.6 0.4 -0.7 -0.1 -0.3 -1.1 0.4 -1.1 0.8 -1.3 1.1 -0.6 0.2 0.7 0.8 1 1.3 0.6 0.5 -0.3 0.9 0.2 0.9 1.1 0 1.1 0.8 1.6 2.3 1.5 4 -0.4 5.8 0 5.2 0.9 -0.3 0.5 0.3 1.2 1.2 1.4 1.1 0.3 0.7 0.5 -1 0.6 -2 0.1 -2.6 0.5 -2.1 1.3 1.1 1.7 1.2 4.8 0.2 4.2 -0.4 -0.3 -0.5 0.2 -0.2 1 0.4 1.1 1.1 1.3 3.1 0.5 3.2 -1.2 3.3 -1.2 3.3 0.6 0 1.1 -1.2 1.5 -4.7 1.5 -3.5 0 -4.4 0.3 -3.3 1 1.3 0.8 1.2 1 -0.2 1 -1 0 -1.8 0.4 -1.8 0.9 0 0.5 -0.8 1.2 -1.7 1.4 -1.4 0.4 -1.3 0.5 0.4 0.6 1.2 0 2.5 -0.3 2.8 -0.9 0.8 -1.2 6.8 -0.1 7.7 1.6 0.5 0.7 1.7 1 3 0.6 1.4 -0.3 1.9 -0.2 1.4 0.6 -0.4 0.7 -1.9 1.2 -3.4 1.3 l-2.7 0 2.5 1.1 c4.4 1.8 7.5 3.7 7.5 4.5 0 0.4 0.4 1.3 0.8 2 0.8 1.2 -2.2 1.1 -4.3 -0.2 -0.6 -0.3 -1 -0.1 -1 0.4 0 0.6 0.7 1.1 1.5 1.1 0.8 0 1.5 0.5 1.5 1.1 0 0.5 0.5 0.7 1.2 0.3 0.7 -0.4 0.8 -0.3 0.4 0.4 -0.5 0.9 -1.3 0.9 -2.6 0.2 -1.3 -0.7 -2.1 -0.7 -2.5 0 -0.3 0.5 -0.3 1 0.1 1 0.4 0 -0.5 0.9 -2 2.1 -1.4 1.1 -3 1.8 -3.5 1.5 -0.5 -0.3 -1.4 0 -2 0.8 -0.9 1 -0.8 1.5 0.4 2 0.9 0.3 1.3 0.2 1 -0.4 -0.3 -0.6 -0.1 -1 0.4 -1 1.8 0 1.2 2.7 -0.6 3.6 -1 0.4 -2.2 0.6 -2.6 0.5 -0.5 -0.1 -0.6 0.3 -0.2 0.9 0.3 0.5 0.1 1 -0.5 1 -0.6 0 -0.9 0.4 -0.6 0.8 0.9 1.4 -2.9 3.9 -5.5 3.6 -1.3 -0.1 -1.8 0 -1.1 0.2 1.6 0.7 0.5 2.5 -1.2 1.8 -1.6 -0.6 -4.1 2.2 -2.7 3 0.5 0.4 1.2 0.2 1.6 -0.4 0.3 -0.5 1 -1 1.5 -1 1.1 0 0.7 2.4 -0.7 4.1 -0.6 0.8 -2.5 3.9 -4.2 6.9 -1.7 3 -3.6 5.4 -4.2 5.2 -0.9 -0.2 -0.9 0.1 0 1.2 1.1 1.3 1.1 1.7 -0.2 2.2 -0.9 0.3 -1.3 1.2 -1 2.1 0.5 1.2 0.3 1.4 -0.7 0.8 -0.8 -0.5 -1.1 -0.4 -0.6 0.3 0.7 1.1 -1.9 12.2 -3.1 13.1 -0.5 0.3 -0.9 2.4 -1 4.6 -1 16.9 -1.7 23.1 -2.7 23.7 -0.8 0.6 -0.7 0.8 0.2 0.8 0.6 0 1.2 1 1.2 2.3 0 2.4 2.6 15.5 3.6 18.1 0.3 0.9 0.1 2.3 -0.6 3.1 -1.1 1.3 -1 1.4 0.5 0.8 1.4 -0.5 1.7 -0.3 1.2 1 -0.3 0.8 -0.3 1.7 0.1 1.9 1.4 0.6 5.8 10.6 4.5 10.1 -0.7 -0.3 -1.3 -1.3 -1.3 -2.2 0 -1.4 -0.2 -1.4 -1 -0.1 -0.9 1.4 -1.5 0.6 -1 -1.5 0.1 -0.5 -0.8 -0.1 -1.9 0.9 -3 2.7 -2.7 4.6 0.9 4.6 3.1 0 4.3 1.9 1.3 2.1 -1.2 0 -0.8 0.5 1.1 1.3 l2.9 1.3 -2.9 0.6 c-1.6 0.3 -3.5 0.1 -4.1 -0.5 -0.9 -0.8 -1.3 -0.7 -1.3 0.3 0 1 -0.3 1 -0.8 0.3 -0.9 -1.4 -5.2 0 -5.2 1.7 0 0.8 0.4 0.8 1.5 -0.1 2.1 -1.7 2.7 -0.9 1 1.3 -1.1 1.5 -1.4 1.6 -2.5 0.2z m0.6 -12.2 c-0.8 -0.8 -3.6 1 -3.6 2.3 0 1.1 0.4 1 2 -0.3 1.1 -0.9 1.8 -1.8 1.6 -2z m5.7 -3 c-0.4 -1.1 -0.8 -1 -1.9 0.4 -1.9 2.6 -1.7 3.5 0.5 2.1 1 -0.6 1.7 -1.8 1.4 -2.5z m8.1 -91.5 c-0.5 -0.7 -0.2 -0.9 0.8 -0.5 0.9 0.3 2.4 0 3.3 -0.7 1.5 -1.1 1.4 -1.2 -0.7 -1.1 -3 0 -4.8 1.2 -4.8 3.1 0 0.8 0.5 1.2 1 0.9 0.6 -0.4 0.7 -1.1 0.4 -1.7z m11.4 -13.1 c1 0.3 1.3 0.2 0.6 -0.4 -1.8 -1.4 -2.4 -5.3 -0.8 -5.3 0.8 0 1.4 -0.4 1.4 -0.9 0 -0.5 0.9 -1.1 1.9 -1.4 1.3 -0.3 1.9 -1.3 1.8 -3.1 -0.1 -1.4 -0.5 -2.6 -0.9 -2.6 -0.8 0 -1.2 1.6 -0.9 3.9 0.2 0.7 -0.2 1 -0.8 0.6 -0.6 -0.3 -1.4 0 -1.7 0.9 -0.3 0.8 -1.2 1.2 -2 0.9 -1.6 -0.6 -1.9 -2.4 -0.3 -2 0.5 0.1 2.2 -1.8 3.6 -4.3 1.4 -2.5 3 -4.8 3.7 -5.2 0.6 -0.4 0.7 -0.8 0.1 -0.8 -1.6 0.1 -4.5 2.6 -4.5 3.9 0 0.6 -1.6 2.5 -3.5 4.2 -3.9 3.5 -4.5 6.3 -1.5 8.1 2.2 1.4 2.7 3 0.8 2.7 -2.9 -0.3 -4.1 0.4 -1.8 1 1.4 0.4 2.6 0.4 2.8 0 0.2 -0.4 1.1 -0.5 2 -0.2z m11.9 -15.9 c0 -0.7 0.4 -2.1 0.8 -3 0.5 -1.4 0.2 -1.8 -1.1 -1.7 -1.1 0 -1.4 0.3 -0.7 0.5 1.7 0.7 0.4 3.4 -1.3 2.7 -1.4 -0.5 -1.9 0.8 -0.7 2 1.1 1.1 3 0.8 3 -0.5z m-5 -9.2 c-0.2 -0.5 -0.9 -1.1 -1.5 -1.2 -0.7 -0.1 -0.8 0 -0.2 0.3 0.8 0.3 0.7 0.9 -0.1 1.9 -0.6 0.8 -1.5 1.1 -2 0.8 -0.5 -0.3 -0.9 -0.1 -0.9 0.5 0 0.5 0.6 1.1 1.3 1.4 1.4 0.5 3.9 -2.2 3.4 -3.7z m-11.3 -7.5 c0.3 -0.5 -0.2 -0.8 -1.1 -0.7 -1 0 -1.8 -0.4 -1.8 -1.1 0 -0.7 -0.5 -1.7 -1.2 -2.4 -1.7 -1.7 -1.1 1.4 0.6 3.5 1.5 1.8 2.7 2 3.5 0.7z m6.6 -1.1 c0 -0.5 -1 -1 -2.2 -1 -1.9 0 -2 -0.2 -0.8 -1.1 1.3 -0.8 1.2 -1 -0.3 -0.7 -2.5 0.4 -2.3 2.2 0.5 3 1.3 0.3 2.4 0.6 2.6 0.7 0.1 0.1 0.2 -0.3 0.2 -0.9z m-4.2 -4.2 c1.7 -1.7 1.5 -2.8 -0.5 -2.8 -1.6 0 -1.6 0.2 -0.3 1.1 1.2 0.8 0.9 1 -1.2 0.6 -1.9 -0.3 -2.5 0 -2.1 1 0.6 1.6 2.5 1.7 4.1 0.1z"/>
  <path d="M203.1 262.3 c-0.9 -1.6 -1.2 -1.6 -2.1 -0.3 -0.6 1 -1 1.1 -1 0.3 0 -1.6 3.6 -5.3 5.2 -5.3 0.9 0 0.9 0.3 0 1.2 -1.5 1.5 -1.6 4.8 -0.1 4.8 0.6 0 0.9 -0.7 0.6 -1.5 -0.6 -1.5 0.6 -2.9 1.6 -1.8 0.8 0.7 -1.1 4.3 -2.3 4.3 -0.5 0 -1.4 -0.8 -1.9 -1.7z"/>
  <path d="M201 255 c0 -0.5 -0.9 -1 -2 -1 -2.1 0 -2.7 -1.5 -1 -2.5 0.6 -0.3 1 -0.2 1 0.3 0 0.5 1.1 1.2 2.5 1.4 1.4 0.3 2.5 0.2 2.5 -0.2 0 -1.4 5 -2.1 6.8 -1 1.4 0.9 1.3 1 -0.9 0.6 -1.8 -0.4 -3.5 0.1 -5.2 1.4 -2.8 2.2 -3.7 2.5 -3.7 1z"/>
  <path d="M233 252.5 c-0.9 -1.1 -0.9 -1.5 -0.1 -1.5 0.6 0 1.1 0.6 1.1 1.3 0.1 0.7 0.6 0.5 1.4 -0.6 0.8 -1 1.6 -1.4 1.9 -1 0.3 0.5 -0.3 1.4 -1.3 2.1 -1.4 0.9 -2.1 0.8 -3 -0.3z"/>
  <path d="M200.1 251.1 c-0.8 -0.5 -2.1 -0.7 -3 -0.3 -0.9 0.3 -1.3 0.2 -0.9 -0.3 0.4 -0.4 0.3 -1.6 -0.2 -2.5 -0.7 -1.4 -0.6 -1.8 0.5 -1.6 0.9 0.1 1.5 0.6 1.4 1 0 0.5 1.2 1.7 2.8 2.7 2.7 1.8 2.2 2.7 -0.6 1z"/>
  <path d="M201.8 249.4 c-1.1 -1 0.4 -4.3 2.3 -4.9 1 -0.4 1.9 -1.1 1.9 -1.6 0 -0.5 0.9 -0.9 2.1 -0.9 1.1 0 1.7 -0.4 1.4 -1 -0.4 -0.6 -1.6 -0.8 -2.8 -0.5 -1.7 0.5 -1.9 0.4 -0.7 -0.4 2.4 -1.7 4.5 -1.3 6.9 1.3 l2.3 2.4 -2.6 1.8 c-1.5 0.9 -2.4 1.9 -2.2 2.2 0.3 0.2 1.6 -0.2 2.8 -1 1.5 -1 3 -1.2 4.3 -0.7 l2 0.8 -2 0 c-1.1 0.1 -3.1 0.7 -4.5 1.4 -2.9 1.4 -7.3 1.1 -6.7 -0.6 0.2 -0.7 0.8 -1.2 1.3 -1.3 1.8 -0.2 4.4 -1.6 4.4 -2.5 0 -1.3 -5.1 0.1 -7.2 1.9 -1.4 1.1 -1.5 1.8 -0.7 2.9 0.9 1 0.8 1.3 -0.3 1.3 -0.8 0 -1.7 -0.3 -2 -0.6z"/>
  <path d="M236.5 246 c0.6 -0.9 0.2 -1 -1.6 -0.5 -1.3 0.4 -2.2 0.6 -1.9 0.3 3.4 -2.7 3.8 -2.8 4.3 -1.4 0.4 0.9 0.1 1.8 -0.5 2.2 -0.7 0.5 -0.8 0.2 -0.3 -0.6z"/>
  <path d="M196.8 245.3 c-1 -0.2 -1.9 -1 -1.9 -1.6 -0.2 -1.6 -0.8 -7.2 -1.5 -13.2 -0.2 -2.7 -0.2 -7.4 0.1 -10.4 0.6 -4.9 0.8 -5.3 3 -4.9 1.7 0.4 2.5 0 2.8 -1.4 0.4 -1.2 0.1 -1.6 -0.6 -1.1 -2.1 1.3 -4.6 1.3 -4.2 0 0.2 -0.6 0.6 -2.5 0.9 -4 0.4 -1.5 1.1 -2.5 1.6 -2.2 0.5 0.3 1.2 0 1.6 -0.6 0.4 -0.7 0.3 -0.9 -0.4 -0.5 -1.7 1 -2.4 -1.1 -1.2 -3.5 0.7 -1.1 1.4 -3.2 1.6 -4.7 0.3 -1.4 1.7 -5.1 3.2 -8.1 2.4 -5.1 3 -5.6 6.2 -5.9 1.9 -0.1 4.2 -1 5 -2 0.8 -0.9 1.4 -1.5 1.3 -1.3 -0.2 0.2 0.3 1.1 1 1.9 1 1.3 0.9 1.4 -0.2 0.7 -0.9 -0.5 -1.2 -0.4 -0.7 0.3 0.3 0.5 0 1.3 -0.6 1.5 -0.9 0.4 -0.9 0.6 -0.1 0.6 0.6 0.1 1.9 -0.6 2.8 -1.6 1.1 -1 1.9 -1.2 2.3 -0.6 0.4 0.5 1.4 1.3 2.2 1.6 0.8 0.3 -0.1 0.6 -2 0.7 -2.9 0.1 -3.2 0.3 -1.5 1 l2 0.9 -2 0 c-1.5 0.1 -1.7 0.3 -0.7 1 1 0.6 0.7 1 -1.2 1.5 -1.4 0.3 -2.6 1.1 -2.6 1.6 0 1.4 1.8 1.2 2.3 -0.2 0.2 -0.7 0.8 -0.9 1.3 -0.5 0.5 0.5 0.2 1.4 -0.7 2 -1.5 1.1 -1.9 1.8 -1.9 3.5 0 0.4 -0.4 0.1 -0.8 -0.6 -1.3 -1.9 -4.5 -0.3 -3.9 1.9 0.3 1.1 0 1.9 -0.6 2 -0.7 0 -0.3 0.4 0.8 0.9 l2 0.9 -2 0.1 c-1.1 0 -2.9 0.7 -3.9 1.5 -1.7 1.3 -1.7 1.5 -0.3 1.5 1.1 0 1.5 0.6 1.1 1.8 -0.5 1.6 -0.5 1.6 0.6 -0.1 0.6 -0.9 0.8 -2.2 0.5 -2.7 -0.4 -0.6 0.9 -1 3 -1 2 0 3.4 0.4 3.1 0.9 -0.8 1.2 5.5 2 7.9 1 l2 -0.9 -2 0.1 c-5.1 0.3 -6.4 -0.1 -5.8 -1.7 0.5 -1.3 0.7 -1.3 1.4 -0.2 0.7 1 0.9 1 0.9 -0.2 0 -1.3 0.1 -1.3 1 0 0.8 1.3 1 1.3 1 -0.1 0 -1.2 -1.3 -1.9 -4.2 -2.4 l-4.3 -0.7 3 -1.1 c2.1 -0.7 3 -0.7 3.3 0.2 0.2 0.6 1.8 1.2 3.5 1.2 1.8 0.1 2.4 0.3 1.5 0.6 -2.5 0.6 -2.2 3.3 0.3 3.3 1.1 0 1.8 0.4 1.4 0.9 -0.3 0.5 0.3 1.2 1.2 1.5 1.5 0.4 1.5 0.5 -0.2 0.4 -3.5 -0.1 -4.3 0.2 -4.8 1.5 -0.2 0.6 0.1 1.8 0.8 2.4 1 1 1.4 0.9 1.9 -0.3 0.4 -1 0.2 -1.3 -0.6 -0.8 -0.7 0.4 -0.8 0.3 -0.4 -0.4 0.9 -1.4 3.6 -1.6 3.6 -0.3 0 0.5 0.6 1.1 1.3 1.4 0.6 0.2 0.2 0.2 -1 0 -1.3 -0.2 -2.3 0.1 -2.3 0.7 0 0.5 0.6 1 1.3 1 0.8 0 0.7 0.4 -0.3 1 -1.2 0.8 -0.9 1 1.3 1 1.6 0 2.6 0.4 2.2 1 -1 1.7 -5.5 1.2 -5.5 -0.6 0 -1.1 -0.5 -1.4 -1.7 -1 -1.1 0.4 -2.4 -0.2 -3.7 -1.6 -1.2 -1.3 -1.8 -1.9 -1.3 -1.4 1.2 1.6 0.8 3.8 -0.9 5.7 -1.5 1.6 -1.4 1.7 0.8 1.2 1.8 -0.4 2 -0.3 0.8 0.6 -1.2 0.9 -1 1.1 1.3 1.1 2.9 0 3.4 -0.9 1.5 -2.8 -0.9 -0.9 -0.8 -1.2 0.4 -1.2 0.9 0 2 0.5 2.3 1.1 0.4 0.6 1.7 1.5 2.9 2 1.7 0.8 1.6 0.8 -0.8 0.4 -2.6 -0.6 -2.8 -0.4 -1.7 0.9 1.1 1.3 1 1.7 -0.5 2.2 -1.1 0.4 -2.2 0.9 -2.6 1.1 -0.5 0.2 -0.8 0 -0.8 -0.6 0 -0.5 1 -1.2 2.3 -1.4 1.9 -0.4 1.8 -0.4 -0.5 -0.6 -1.6 0 -2.8 0.4 -2.8 0.9 0 0.6 -1 1 -2.2 0.9 -1.3 0 -1.7 -0.3 -1 -0.6 2.1 -0.8 0.3 -2.3 -2.9 -2.3 -1.8 0 -2.8 0.4 -2.4 1 0.4 0.6 1 0.8 1.5 0.5 0.5 -0.3 1.1 -0.1 1.5 0.5 0.9 1.4 -3.8 1.3 -5.3 -0.2 -1.6 -1.6 -4.7 0.9 -3.2 2.7 0.8 0.9 0.8 1.5 0 2 -0.5 0.3 -1 0 -1 -0.8 0 -0.8 -0.7 -1.8 -1.6 -2.1 -2.4 -0.9 -5.4 -0.7 -5.4 0.4 0 0.5 0.7 0.7 1.5 0.4 1.8 -0.7 2 1.7 0.4 3.3 -0.7 0.7 -0.7 1.3 -0.1 1.7 0.6 0.3 1.3 -0.3 1.7 -1.4 0.8 -2.5 2.5 -2.7 1.8 -0.2 -0.3 1.2 0.3 2.2 1.9 2.9 2.2 1 2.2 1 -1.1 1.8 l-3.5 0.7 2.5 1.5 c2.3 1.3 2.3 1.4 0.2 0.8 -2.7 -0.7 -3 0.7 -0.7 3 0.9 0.9 1.3 1.9 1 2.3 -0.4 0.3 -1.1 0 -1.6 -0.8 -0.7 -1 -1 -1.1 -1 -0.2 0 0.6 -0.7 1.2 -1.6 1.2 -1.3 0 -1.4 0.3 -0.4 1.5 0.7 0.8 1.6 1.3 2 1 0.4 -0.3 1.3 0.2 2 1 1 1.2 1 1.8 0 3 -0.7 0.8 -1.5 1.4 -1.9 1.4 -0.3 -0.1 -1.4 -0.3 -2.3 -0.6z m1.7 -11.3 c-0.5 -0.8 -1.1 -0.8 -1.7 -0.2 -0.6 0.6 -0.7 1.6 -0.3 2.2 0.5 0.8 1.1 0.8 1.7 0.2 0.6 -0.6 0.7 -1.6 0.3 -2.2z m-1.4 -3.4 c0.8 0.4 0.9 0.3 0.5 -0.4 -0.5 -0.8 0.1 -1.2 1.6 -1.3 1.3 0 1.7 -0.3 1 -0.6 -2.2 -0.9 -6.2 1.8 -6.1 4.1 0 2 0.1 2 1 -0.2 0.5 -1.4 1.3 -2 2 -1.6z m6.9 -14.6 c0.3 -0.1 0.8 -0.2 1.3 -0.1 0.4 0 0.7 -0.3 0.7 -0.9 0 -0.5 -0.8 -1 -1.7 -1 -1.5 0 -1.6 -0.2 -0.3 -1 0.8 -0.5 1.1 -1 0.7 -1 -0.5 0 -0.5 -0.5 -0.2 -1.1 0.5 -0.6 1.2 -0.4 2.1 0.8 1.3 1.6 1.4 1.6 0.8 0.1 -0.4 -1.1 -0.1 -1.8 0.7 -1.9 0.8 0 0.5 -0.4 -0.6 -0.9 -1.5 -0.6 -2.6 -0.2 -4.3 1.6 -1.3 1.3 -2 2.9 -1.7 3.4 0.3 0.6 0.1 1 -0.4 1 -0.6 0 -1.1 0.4 -1.1 0.9 0 0.8 2.1 0.8 4 0.1z m11.4 -3.3 c0.3 0.4 0.6 -0.2 0.6 -1.1 0 -1.3 -0.5 -1.6 -1.7 -1.1 -1 0.5 -2.6 0.8 -3.5 0.9 -2.1 0 -2.1 0.1 -0.5 2.6 1.2 2.1 1.2 2.1 2.8 0.1 0.9 -1.1 1.9 -1.7 2.3 -1.4z m-0.6 -6.7 c2.1 0 1.3 -0.6 -2.1 -1.4 -2.6 -0.6 -2.7 -0.5 -1.5 1.4 0.7 1.1 1.4 1.6 1.6 1 0.2 -0.5 1.1 -1 2 -1z m-9.8 -10.5 c0 -0.9 -0.6 -1.2 -1.5 -0.9 -0.8 0.4 -1.2 1 -0.9 1.5 0.8 1.4 2.4 1 2.4 -0.6z m-0.8 -4 c0.6 -2.9 0.5 -3 -1.6 -0.9 -0.9 0.8 -1.4 2 -1.1 2.5 1.1 1.6 2.3 0.9 2.7 -1.6z m4.4 1.1 c0.8 -0.8 1 -1.7 0.5 -2 -0.5 -0.3 -1.2 0.1 -1.5 1 -0.3 0.8 -1 1.2 -1.6 0.9 -0.5 -0.3 -1 -0.1 -1 0.4 0 1.5 1.9 1.4 3.6 -0.3z"/>
  <path d="M207.8 237.3 c1.3 -0.3 2.7 -1.5 3.2 -2.8 0.7 -1.8 1.6 -2.3 4 -2.3 3.1 0.1 4.3 1.8 1.2 1.8 -1 0 -2.4 0.9 -3.2 2 -0.9 1.3 -2.5 2 -4.5 1.9 -2.4 -0.1 -2.6 -0.3 -0.7 -0.6z"/>
  <path d="M223.5 231 c0.3 -0.5 1.6 -1 2.8 -1 1.8 0 1.9 0.2 0.7 1 -2 1.3 -4.3 1.3 -3.5 0z"/>
  <path d="M212.4 227.5 c-0.3 -0.8 -0.3 -1.9 0.1 -2.5 0.4 -0.6 0.1 -1.8 -0.7 -2.7 -1.1 -1.4 -1.1 -1.6 0.2 -0.8 0.8 0.4 2.4 1.6 3.5 2.5 1.1 1 2.9 2 4 2.3 1.9 0.4 1.8 0.5 -0.2 0.6 -1.2 0 -2.5 0.6 -2.8 1.1 -0.9 1.5 -3.5 1.2 -4.1 -0.5z"/>
  <path d="M224.4 226.8 c-0.6 -0.9 -0.7 -0.9 2.9 -1.2 1.5 -0.1 2.7 0.3 2.7 0.9 0 1.3 -4.9 1.5 -5.6 0.3z"/>
  <path d="M206.6 225.3 c-0.4 -1 -0.4 -1.4 0 -1 0.4 0.4 1.3 0.2 2.1 -0.4 0.8 -0.7 1.3 -0.8 1.3 -0.1 0 0.5 -0.6 1.5 -1.4 2.1 -1.1 0.9 -1.5 0.8 -2 -0.6z"/>
  <path d="M237.3 217.5 c0 -1.4 2.6 -3 3.5 -2 0.6 0.5 -1.7 3.5 -2.8 3.5 -0.3 0 -0.7 -0.7 -0.7 -1.5z"/>
  <path d="M218.6 194.3 c-0.5 -1.9 -0.3 -4 0.4 -5 0.9 -1.6 1 -1.5 0.4 0.6 -0.3 1.3 -0.2 2.6 0.4 3 0.5 0.3 0.6 1.5 0.2 2.6 -0.6 1.7 -0.8 1.6 -1.4 -1.2z"/>
  <path d="M205.6 180.7 c0.6 -1.6 6.6 -1.9 6.1 -0.3 -0.2 0.6 -1.8 1.2 -3.5 1.4 -2.4 0.2 -3.1 0 -2.6 -1.1z"/>
  <path d="M218.5 177.2 c0.8 -0.9 6.5 -1.1 6.5 -0.3 0 0.4 -1.6 0.7 -3.6 0.8 -1.9 0.1 -3.3 -0.2 -2.9 -0.5z"/>
  <path d="M210 173.5 c0 -1.8 5.7 -6.8 7.2 -6.2 1 0.4 0.9 0.6 -0.2 0.6 -1.7 0.1 -5.1 3.6 -4.3 4.4 0.3 0.3 1.1 0.3 1.9 0 0.8 -0.3 1.4 0 1.4 0.6 0 0.6 -0.3 1.1 -0.7 1.2 -0.5 0 -1.8 0.2 -3 0.3 -1.3 0.2 -2.3 -0.2 -2.3 -0.9z"/>
  <path d="M217.8 171.8 c0.9 -0.9 1.5 -0.9 2.4 0 0.9 0.9 0.7 1.2 -1.2 1.2 -1.9 0 -2.1 -0.3 -1.2 -1.2z"/>
  <path d="M222.8 127.4 c-1 -0.9 0.4 -4.4 1.7 -4.4 0.8 0 1 0.9 0.7 2.5 -0.4 2.4 -1.3 3.1 -2.4 1.9z"/>
  <path d="M219.5 114 c-1.1 -0.5 -1.5 -0.9 -0.8 -0.9 0.6 -0.1 1.9 -0.4 2.9 -0.8 1.2 -0.4 1.5 -0.3 1 0.5 -0.4 0.7 -0.3 1.2 0.2 1.2 0.6 0 1.2 -0.7 1.6 -1.5 0.3 -0.9 0 -1.5 -0.9 -1.5 -0.8 0 -1.7 -1.4 -2.1 -3.5 -0.3 -1.9 -1 -3.2 -1.5 -3 -0.4 0.3 -0.6 1.2 -0.2 2 0.3 0.8 0 1.5 -0.6 1.5 -0.6 0 -1.1 -0.4 -1.1 -0.8 0 -0.4 -1.1 -0.9 -2.5 -1 -2.8 -0.2 -3.4 1.6 -0.7 2.4 3.4 1.1 6.5 2.5 6.1 2.8 -0.2 0.2 -1.6 0.6 -3.1 1 -2.3 0.5 -2.8 0.3 -2.8 -1.1 0 -1.5 -0.2 -1.6 -1 -0.3 -0.6 1 -1 1.1 -1 0.3 0 -0.7 -0.7 -1.3 -1.5 -1.3 -2.3 0 -1.8 -2.8 0.7 -4.1 1.4 -0.8 1.8 -1.4 1.1 -1.6 -1 -0.4 -0.9 -0.8 0.1 -1.9 1.9 -1.9 3.2 -1.8 1.6 0.1 -1 1.2 -1 1.5 0.4 1.5 0.9 0 1.6 -0.5 1.6 -1.1 0 -0.6 0.7 -0.8 1.5 -0.5 0.8 0.3 2.1 0.9 2.9 1.2 0.9 0.3 1.6 -0.2 1.9 -1.3 0.4 -1.6 0.5 -1.6 0.6 0 0 0.9 0.7 1.7 1.4 1.7 0.6 0 0.1 0.9 -1.3 2 -2.3 1.8 -2.3 2 -0.5 2 1.7 0 1.7 0.2 0.5 1 -1.3 0.8 -1.3 1 0.2 1 0.9 0 1.9 0.6 2.1 1.3 0.3 0.7 0.6 0.5 0.6 -0.5 0.1 -1.8 3.1 -2.6 3.1 -0.9 0 0.9 -3 2.5 -4.2 2.3 -0.5 -0.1 -0.8 0.5 -0.8 1.3 0 1.6 -2.4 1.9 -5.5 0.5z"/>
  <path d="M225.7 100.4 c-1 -1 1.2 -4.4 2.8 -4.4 0.8 0 1.5 0.5 1.5 1.1 0 0.5 -0.5 0.7 -1.1 0.4 -0.6 -0.4 -0.9 0 -0.7 1 0.3 1.8 -1.3 3.1 -2.5 1.9z"/>
 </g>
 <g fill="#3a3a3a">
  <path d="M178 267 c0.6 -1.1 1.6 -2 2.2 -2 0.6 0 0.3 0.9 -0.7 2 -1 1.1 -2 2 -2.2 2 -0.2 0 0.1 -0.9 0.7 -2z"/>
  <path d="M179 260.5 c0.7 -0.8 2.4 -1.5 3.9 -1.5 2.5 0.1 2.5 0.1 -0.8 1.5 -4.2 1.9 -4.7 1.9 -3.1 0z"/>
  <path d="M173.2 255.5 c0.2 -1.4 0.9 -1.9 2.3 -1.7 1.2 0.2 1.6 0 0.9 -0.5 -0.6 -0.4 -1 -2.4 -0.9 -4.3 0.3 -3 0.2 -3.2 -0.8 -1.5 -1.8 3 -3.6 2.8 -3.5 -0.3 0 -1.5 -0.1 -3.4 -0.3 -4.2 -0.3 -1 0.4 -1.5 2.1 -1.6 4.4 -0.2 4.6 -0.4 2.1 -1.7 -3.6 -1.8 -4.1 -4.1 -0.6 -2.5 2.2 1 2.8 0.9 3.6 -0.3 0.7 -1.1 0.9 -0.8 0.9 1.1 0 2 0.2 2.2 1 1 0.8 -1.2 1 -1 1 0.8 0 1.3 -0.4 2.1 -0.9 1.7 -0.6 -0.3 -0.9 0.4 -0.8 1.5 0.2 2.4 0.4 2.4 2.3 0.6 0.8 -0.8 1.1 -2.2 0.8 -3 -0.4 -1.1 0 -1.6 1.2 -1.6 0.9 0 1.4 -0.3 1.1 -0.7 -0.7 -0.7 2.2 -3.2 3.8 -3.2 0.6 0 0.2 0.4 -0.7 1 -2.4 1.4 -2.2 2.7 0.5 3.2 1.4 0.3 0.9 0.5 -1.5 0.6 -3.1 0.1 -3.5 0.4 -3.1 2 0.3 1.2 1.7 2.3 3.4 2.6 3.7 0.8 4.6 2.3 2.3 4 -2.9 2.2 -5 1.8 -2.3 -0.3 l2.2 -1.9 -3.3 -1.1 c-2.8 -1 -3.5 -0.9 -4.5 0.5 -0.7 0.9 -1.7 1.3 -2.3 0.9 -0.7 -0.4 -1.2 -0.3 -1.2 0.1 0 1.1 4 3.6 6.5 4 2.3 0.4 4.1 2 2.3 2 -0.8 0 -2.6 0.8 -4.2 1.8 -2.5 1.7 -2.6 2 -1 2.5 1 0.4 -0.6 0.6 -3.5 0.6 -4.6 -0.1 -5.1 -0.3 -4.9 -2.1z m6.6 -1 c-0.6 -0.6 -5.8 0.8 -5.8 1.6 0 0.4 1.4 0.3 3.1 -0.3 1.6 -0.6 2.9 -1.2 2.7 -1.3z m-5.3 -9.5 c0.4 -0.6 1.2 -0.7 1.8 -0.3 0.7 0.4 0.6 -0.1 -0.2 -1 -1 -1.3 -1.7 -1.5 -2.7 -0.6 -0.8 0.6 -1.4 1.5 -1.4 2 0 1.2 1.7 1.1 2.5 -0.1z"/>
  <path d="M196.3 248.9 c-0.1 -1 0.3 -2.2 0.9 -2.5 0.7 -0.5 0.8 -0.2 0.3 0.6 -0.4 0.7 -0.2 1.5 0.5 2 0.9 0.5 0.8 0.8 -0.2 1.3 -0.9 0.3 -1.4 -0.2 -1.5 -1.4z"/>
  <path d="M187.3 243.3 c-0.7 -0.2 -1.3 -1 -1.3 -1.6 0 -0.8 0.4 -0.7 1.2 0.1 1.5 1.5 3.2 1.6 2.3 0.2 -0.3 -0.5 -0.1 -1 0.5 -1 1.3 0 0.8 2.3 -0.6 2.6 -0.5 0.1 -1.5 0 -2.1 -0.3z"/>
  <path d="M169.1 225 c-0.1 -11.6 -0.2 -11.4 4.7 -11.3 2 0.1 1.4 -0.7 -1.3 -1.7 -2.4 -0.9 -2.5 -1.2 -1.9 -6.7 0.3 -3.2 1 -7.1 1.5 -8.7 0.5 -1.6 0.9 -3.9 0.9 -5.1 0 -1.1 0.7 -3 1.6 -4.1 0.8 -1 1.3 -1.3 0.9 -0.6 -0.3 0.6 -0.2 1.2 0.4 1.2 0.5 0 1.2 -0.6 1.4 -1.2 0.3 -0.7 0.6 -0.3 0.6 1 0.1 1.3 0.5 2 1.1 1.7 0.6 -0.4 0.7 -1.2 0.3 -1.8 -0.3 -0.7 0.2 -0.5 1.3 0.4 1.9 1.6 9.7 1.9 11.1 0.5 0.4 -0.4 -0.3 -1.6 -1.7 -2.7 l-2.5 -2 2.5 0.3 c1.4 0.2 2.4 0.9 2.2 1.6 -0.1 0.6 0.3 1.2 0.9 1.2 0.5 0 0.8 0.4 0.5 0.9 -0.4 0.5 -0.1 1.1 0.5 1.3 1.7 0.6 -0.7 4.8 -2.6 4.8 -2.3 0 -2.3 0 -5.2 1.5 -1.7 0.9 -2.9 1.1 -3.1 0.5 -0.2 -0.6 -0.8 -1 -1.3 -1 -0.4 0 -0.6 0.7 -0.3 1.5 0.4 0.8 1.8 1.5 3.4 1.5 1.5 0 3.3 -0.7 4 -1.5 1.6 -1.9 4 -1.9 4 -0.1 0 2.6 -1.2 4.6 -2.9 4.7 -1 0 -1.1 0.2 -0.4 0.6 1.8 0.7 1.6 2.3 -0.3 2.3 -0.9 0 -2.5 1.1 -3.6 2.5 -1.1 1.4 -2.7 2.5 -3.6 2.5 -1.5 0 -1.5 0.2 -0.2 1 1.1 0.7 0.3 1 -2.8 1 -2.5 0 -4.1 0.4 -3.7 1 0.3 0.5 1.2 0.7 2 0.3 0.9 -0.3 1.5 0.1 1.5 1.1 0 2 0 2 4 0 2.3 -1.2 2.9 -1.9 1.9 -2.5 -0.7 -0.4 -1.1 -0.9 -0.9 -1.1 0.3 -0.2 2 -1.3 3.7 -2.6 l3.3 -2.2 -0.7 3.2 c-0.3 1.8 -1.5 4.1 -2.7 5 -2.1 1.7 -2.1 1.8 -0.1 1.9 1.5 0 1.6 0.2 0.5 0.6 -0.8 0.3 -1.8 1.1 -2.2 1.7 -0.6 0.8 -1.1 0.7 -1.7 -0.2 -0.5 -0.9 -2.3 -1.3 -5.2 -1 -4.3 0.3 -5.9 1.2 -5.9 3.3 0 0.6 0.5 0.3 1 -0.5 0.8 -1.3 1 -1.2 1 0.3 0 0.9 -0.7 1.7 -1.5 1.7 -0.8 0 -1.5 0.8 -1.4 1.8 0 1 0.3 1.2 0.6 0.5 0.7 -2 2.3 -1.5 1.7 0.5 -0.5 1.6 -0.5 1.6 0.9 0 1.7 -2.1 4.1 -2.4 3.4 -0.4 -0.3 0.8 0.2 1.6 1.4 1.9 1 0.3 1.9 1 1.9 1.6 0 0.6 -0.6 0.8 -1.4 0.5 -0.8 -0.3 -1.7 0 -2.2 0.7 -0.5 0.9 0.1 1.1 2.4 0.6 3.2 -0.7 5.3 0.7 2.7 1.7 -2.6 0.9 -1.7 2.5 1.8 2.9 1.7 0.2 1.1 0.3 -1.6 0.2 -5.3 -0.2 -6.9 -1.1 -4.7 -2.6 1.2 -0.8 0.9 -0.9 -1 -0.5 -1.4 0.3 -2.9 0.6 -3.4 0.6 -0.5 0 -0.3 0.6 0.3 1.4 0.9 1.1 0.6 1.2 -1.4 0.8 -1.7 -0.3 -2.5 0 -2.3 0.8 0.2 0.7 -0.2 1.4 -0.8 1.7 -0.8 0.2 -1.2 -3.1 -1.3 -10.7z m12.9 -19.5 c0.7 -0.8 1 -1.5 0.7 -1.5 -0.3 0 -1.3 -0.3 -2.3 -0.7 -1.2 -0.4 -1.5 -0.3 -1 0.5 0.5 0.8 0.2 1 -0.8 0.6 -0.9 -0.3 -1.6 -0.2 -1.6 0.4 0 0.9 1.5 1.9 3.1 2.1 0.4 0.1 1.2 -0.6 1.9 -1.4z m-7.2 -6.7 c-0.9 -0.7 -0.7 -0.8 0.9 -0.5 1.3 0.3 2.6 0.1 2.9 -0.4 1.1 -1.8 1.4 -5.9 0.4 -5.9 -0.5 0 -1 0.7 -1 1.5 0 0.8 -0.6 1.5 -1.3 1.5 -0.7 0 -2 0.9 -3 2 -0.9 1.1 -1.2 2 -0.6 2 0.5 0 0.7 0.4 0.4 1 -0.3 0.6 0.1 0.7 1 0.3 1.4 -0.5 1.4 -0.8 0.3 -1.5z m15.7 0.4 c1.2 -0.9 1.8 -3.2 0.7 -3.2 -0.4 0 -1.3 0.9 -2 2 -1.2 2 -0.6 2.6 1.3 1.2z m-3.8 -5.6 c-0.1 -0.6 1 -1.1 2.5 -1.1 1.5 0 3.2 -0.5 3.8 -1.1 0.7 -0.7 0.1 -1 -2.2 -1 -1.8 0.1 -3.9 0.8 -4.6 1.6 -1.2 1.3 -1.3 1.3 -0.8 -0.3 0.3 -1 0.2 -1.5 -0.3 -1.2 -1.4 0.8 -0.9 4.2 0.5 4.2 0.7 0 1.2 -0.5 1.1 -1.1z"/>
  <path d="M182.5 223 c0.3 -0.5 1.2 -1 1.8 -1 0.7 0 2 -1.2 2.9 -2.7 1.2 -1.9 1.8 -2.3 1.8 -1.1 0 0.9 -0.6 1.9 -1.2 2.1 -1 0.4 -1 0.8 0 1.5 1.1 0.7 1 1 -0.3 1.6 -2.6 0.9 -5.7 0.7 -5 -0.4z"/>
  <path d="M177.7 220.3 c-1.3 -1.3 -0.7 -2 1.8 -2 1.5 0 2.5 0.5 2.5 1.3 0 1.4 -3.1 1.9 -4.3 0.7z"/>
  <path d="M197.2 206 c-1.2 -2 -1.2 -2.1 1.3 -0.4 2.8 1.8 3.1 2.4 1.2 2.4 -0.7 0 -1.8 -0.9 -2.5 -2z"/>
  <path d="M200.7 191.5 c0.6 -1.1 1.2 -2.7 1.5 -3.4 0.4 -1.3 0.5 -1.3 1 0 0.3 0.7 -0.4 2.3 -1.5 3.4 l-2 2 1 -2z"/>
  <path d="M176 184 c1 -0.6 1.1 -1 0.3 -1 -0.7 0 -1.3 -0.7 -1.3 -1.6 0 -1 0.5 -1.4 1.6 -1 1 0.4 1.3 0.2 0.8 -0.6 -0.4 -0.6 -0.3 -0.8 0.3 -0.5 1.6 1 0.3 5.7 -1.6 5.7 -1.4 0 -1.4 -0.2 -0.1 -1z"/>
  <path d="M181 182.6 c0.5 -1.3 0.7 -2.6 0.4 -2.8 -0.2 -0.3 1.8 -0.6 4.5 -0.7 3.7 -0.1 5.2 0.3 5.9 1.5 0.6 1.1 1.1 1.3 1.6 0.5 0.4 -0.6 1.2 -1.1 1.7 -1.1 0.6 0 0.8 0.4 0.4 0.9 -0.3 0.5 -0.1 1.2 0.5 1.6 0.5 0.3 1 1.2 1 1.8 0 0.7 -0.5 0.4 -1.1 -0.5 -0.7 -1.4 -1.8 -1.6 -4.4 -1.2 -2.8 0.4 -3.4 0.2 -2.9 -0.9 0.4 -1.1 -0.1 -1.3 -2.1 -0.9 -2 0.3 -2.3 0.7 -1.3 1.3 0.7 0.5 0.8 0.9 0.3 0.9 -0.6 0 -1.6 -0.5 -2.3 -1.2 -0.9 -0.9 -1.2 -0.7 -1.2 1 0 1.2 -0.4 2.2 -1 2.2 -0.6 0 -0.6 -0.9 0 -2.4z"/>
  <path d="M176 177.9 c0 -0.4 0.6 -1.2 1.4 -1.8 1.6 -1.3 2.9 -5.4 1.5 -4.5 -1 0.6 -1.2 -0.7 -0.3 -3 0.5 -1.3 0.9 -1.4 2 -0.5 1.7 1.4 1.8 0.5 0.2 -2.1 -0.9 -1.4 -0.9 -2.5 -0.1 -4.2 0.6 -1.3 1.7 -3.9 2.4 -5.8 0.6 -1.9 1.9 -4.1 2.7 -4.7 0.9 -0.7 1.2 -1.3 0.6 -1.3 -0.5 0 -0.2 -0.5 0.6 -1 0.9 -0.6 1 -1 0.3 -1 -0.6 0 0.2 -2.6 2 -6.2 1.7 -3.5 3 -6.6 2.9 -7 -0.1 -0.5 0.3 -0.8 0.9 -0.8 0.5 0 0.8 -0.4 0.4 -0.9 -0.3 -0.5 0 -1.3 0.6 -1.7 0.8 -0.4 0.9 -0.3 0.5 0.4 -0.4 0.7 -0.1 1.2 0.7 1.2 0.8 0 2 0.6 2.6 1.4 1 1.2 0.8 1.3 -1 0.9 -1.8 -0.5 -2.1 -0.3 -1.6 1 0.5 1.2 0.1 1.7 -1.3 1.7 -1.1 0 -2 0.4 -2 1 0 0.6 0.9 0.6 2.3 0.1 1.4 -0.6 3 -0.5 4.1 0.1 1 0.5 2.6 0.8 3.7 0.5 1 -0.3 1.9 -0.1 1.9 0.4 0 0.5 -0.8 0.9 -1.7 0.9 -1.5 0 -1.6 0.2 -0.3 1 1.2 0.8 0.8 1 -1.5 1.1 -2.7 0.1 -2.5 0.2 1.5 1.4 2.6 0.8 3.6 1.3 2.3 1.4 -1.2 0.1 -2.4 0.5 -2.7 1 -0.8 1.2 1.9 3.3 2.9 2.3 0.5 -0.4 0.5 -0.1 0.1 0.6 -0.4 0.7 -1.2 1 -1.7 0.7 -0.5 -0.4 -0.9 -0.1 -0.9 0.6 0 0.6 -0.8 0.9 -2 0.6 -1.5 -0.4 -2 0 -2 1.5 0 1 -0.5 1.6 -1 1.3 -0.6 -0.4 -0.8 -0.9 -0.6 -1.3 0.2 -0.4 -1.1 -0.7 -3 -0.8 -1.9 0 -3.4 0.3 -3.4 0.8 0 0.5 0.5 0.6 1 0.3 0.6 -0.3 1 -0.1 1 0.4 0 0.6 -0.5 1.1 -1.1 1.1 -0.5 0 -0.7 0.5 -0.4 1 0.8 1.4 2.6 1.3 2.2 -0.1 -0.1 -0.6 0.3 -1.3 1 -1.6 0.7 -0.3 0.9 0.3 0.6 1.6 -0.3 1.3 -0.1 2.1 0.7 2.1 0.7 0 1 -0.7 0.6 -1.5 -0.3 -0.8 -0.1 -1.5 0.3 -1.5 0.5 0 1.2 0.6 1.4 1.3 0.4 0.9 0.6 0.9 0.6 -0.1 0.1 -0.7 0.5 -1 1.1 -0.7 0.5 0.3 0.7 0 0.4 -0.9 -0.6 -1.6 1.9 -1.7 3.3 -0.1 0.4 0.4 0.3 0.6 -0.2 0.2 -0.6 -0.3 -1.6 0.3 -2.3 1.4 -1.1 1.7 -0.9 1.9 1.4 1.9 2.2 0 2.4 0.2 1.4 1.5 -0.8 0.9 -2.2 1.2 -4.1 0.8 -1.8 -0.3 -2.9 -0.1 -2.9 0.6 0 0.6 -0.7 1.1 -1.5 1.1 -0.9 0 -1.2 -0.6 -0.9 -1.7 0.4 -1.3 0.3 -1.5 -0.4 -0.5 -0.6 0.9 -2.2 1.2 -4.8 0.8 -2.1 -0.3 -3.1 -0.3 -2.1 0 0.9 0.3 1.4 1 1.1 1.6 -0.4 0.6 0.1 0.8 1.5 0.3 1.2 -0.4 2.1 -0.2 2.1 0.4 0 0.6 1.4 0.9 3.3 0.6 l3.2 -0.5 -3.2 1 c-3.4 1.1 -4.5 3 -1.7 3 0.8 0 1.2 0.5 0.9 1 -0.4 0.6 -1.2 0.7 -1.8 0.3 -1.7 -1.1 -5.1 -0.3 -6 1.3 -0.4 0.8 -1.6 1.4 -2.6 1.4 -2 0 -4.7 5.2 -3.7 6.9 0.4 0.5 -0.3 0.9 -1.4 0.8 -1.1 -0.1 -2 -0.4 -2 -0.8z m13 -24.6 c0 -1.1 -0.5 -1.1 -2 -0.3 -1.1 0.6 -2 1.2 -2 1.3 0 0.2 0.9 0.3 2 0.3 1.1 0 2 -0.6 2 -1.3z m11.1 -5.6 c-1.8 -1.9 -2.3 -1.9 -4.6 -0.7 -1.4 0.7 -2.3 1.5 -2.1 1.7 0.2 0.3 1.4 -0.1 2.6 -0.7 2.8 -1.5 4 -0.4 1.5 1.4 -1.6 1.2 -1.5 1.2 1.4 0.8 l3.3 -0.5 -2.1 -2z"/>
  <path d="M188.1 177.5 c0 -0.5 0.6 -1.9 1.4 -2.9 0.8 -1.1 1.5 -1.5 1.5 -1 0 0.6 -0.7 1.9 -1.5 3 -0.8 1 -1.4 1.5 -1.4 0.9z"/>
  <path d="M194.7 174.3 c-1.1 -1 -0.8 -2 0.7 -2.6 1 -0.4 1.2 0 0.9 1.4 -0.6 2.1 -0.7 2.2 -1.6 1.2z"/>
  <path d="M198.4 164.7 c0.3 -1 0.6 -2.1 0.6 -2.3 0 -0.2 1 -0.4 2.3 -0.3 1.4 0 1.7 0.2 0.7 0.6 -0.8 0.3 -2.1 1.3 -2.9 2.2 -1.2 1.5 -1.3 1.4 -0.7 -0.2z"/>
  <path d="M215.7 148.9 c1.2 -1.2 2.5 -2 2.8 -1.7 0.3 0.3 -0.7 1.3 -2.2 2.3 l-2.8 1.7 2.2 -2.3z"/>
  <path d="M205.3 143.3 c1 -0.3 1.4 -0.9 1 -1.6 -0.4 -0.8 -0.2 -0.8 0.9 0.1 0.8 0.7 2.4 0.9 3.3 0.5 1.2 -0.4 1.6 -0.3 1.2 0.4 -0.4 0.6 -2.4 1.1 -4.4 1 -2.1 0 -3 -0.2 -2 -0.4z"/>
  <path d="M207.7 139.8 c-0.2 -0.7 0 -2.1 0.5 -3 0.6 -1.2 0.5 -1.8 -0.3 -1.8 -0.7 0 -0.5 -0.8 0.6 -2 2.2 -2.4 5.7 -2.8 4.9 -0.5 -0.4 0.8 -1 1.2 -1.5 0.9 -0.5 -0.3 -1.4 -0.2 -2.1 0.2 -0.8 0.5 -0.6 1 0.8 1.5 1.8 0.7 1.8 0.8 0 0.8 -1.4 0.1 -1.7 0.7 -1.4 2.6 0.5 2.5 -0.7 3.5 -1.5 1.3z"/>
  <path d="M197.3 132.5 c-0.8 -2.2 0.4 -3 2.1 -1.6 0.8 0.7 2 0.9 2.7 0.5 1.2 -0.7 -1.2 -2.6 -3.9 -3 -3.2 -0.5 -2.2 -1.4 1.4 -1.4 2.5 0 3.4 0.3 2.6 0.9 -1.1 0.7 -1.1 0.9 0.2 1.4 0.9 0.4 2.3 0.4 3.1 0.1 1.2 -0.5 1.3 -0.9 0.4 -2 -0.9 -1.2 -0.9 -1.3 0.4 -0.8 3 1.1 2.8 3.4 -0.3 4 -1.6 0.4 -3.1 1.2 -3.4 2 -0.7 1.9 -4.5 1.8 -5.3 -0.1z"/>
  <path d="M197.4 125.1 c0.3 -0.5 1.6 -0.7 2.8 -0.3 1.4 0.3 1.9 0.2 1.4 -0.6 -1 -1.7 -0.1 -1.5 1.4 0.3 1.1 1.3 0.7 1.5 -2.4 1.5 -2.1 0 -3.5 -0.4 -3.2 -0.9z"/>
  <path d="M202.8 117.3 c0.6 -0.2 0.9 -1 0.5 -1.6 -0.5 -0.8 -0.2 -0.8 0.9 0 0.8 0.7 1.9 0.9 2.3 0.5 0.5 -0.4 0.5 -0.1 0.1 0.6 -0.4 0.6 -1.7 1.2 -2.9 1.1 -1.2 0 -1.6 -0.3 -0.9 -0.6z"/>
 </g>
 <g fill="#424242">
  <path d="M169.4 223.7 c-0.1 -5.7 0.6 -7.6 2.8 -7.7 1.2 0 0.4 4.3 -0.9 5.8 -1.6 1.7 -1.7 3.6 -0.1 2.6 0.8 -0.5 0.9 -0.2 0.5 0.9 -0.3 1 -0.2 1.7 0.4 1.7 0.6 0 0.4 0.7 -0.5 1.5 -0.8 0.8 -1.6 1.5 -1.8 1.5 -0.2 0 -0.4 -2.8 -0.4 -6.3z"/>
  <path d="M175 226.5 c0 -1.8 1.9 -4 2.6 -3.2 0.4 0.4 0 1.5 -0.9 2.4 -0.9 1 -1.7 1.3 -1.7 0.8z"/>
  <path d="M170 208.4 c0 -2.1 1.7 -2.5 2.2 -0.6 0.3 1.1 0 1.9 -0.8 1.9 -0.8 0 -1.4 -0.6 -1.4 -1.3z"/>
  <path d="M176.3 208.3 c0.9 -0.2 2.5 -0.2 3.5 0 0.9 0.3 0.1 0.5 -1.8 0.5 -1.9 0 -2.7 -0.2 -1.7 -0.5z"/>
  <path d="M171 204 c0 -0.5 0.6 -0.7 1.3 -0.4 0.7 0.2 1.9 -0.7 2.7 -2 1.5 -2.8 2.5 -2.7 3.3 0.4 0.4 1.7 0.3 1.9 -0.9 0.9 -1.2 -1 -1.7 -0.6 -1.6 1.1 0 0.3 -1 0.7 -2.4 0.8 -1.3 0.1 -2.4 -0.3 -2.4 -0.8z"/>
  <path d="M185 202 c-0.8 -0.5 -1.1 -1.2 -0.8 -1.6 0.4 -0.3 1.4 0.1 2.3 1 1.8 1.7 0.9 2.1 -1.5 0.6z"/>
  <path d="M174.5 193 c0.3 -0.5 1.3 -1 2.1 -1 0.8 0 1.2 0.5 0.9 1 -0.3 0.6 -1.3 1 -2.1 1 -0.8 0 -1.2 -0.4 -0.9 -1z"/>
  <path d="M179.9 169.4 c-0.7 -0.8 -0.9 -1.7 -0.5 -2.1 0.3 -0.3 0.6 -0.1 0.6 0.5 0 0.7 1.2 1.2 2.7 1.2 1.4 0 2.3 0.3 1.9 0.7 -1.2 1.3 -3.5 1.1 -4.7 -0.3z"/>
  <path d="M186.6 166.4 c-1 -2.5 -0.7 -3 1.5 -3 1.9 0 2 0.1 0.2 1.4 -1.7 1.4 -1.7 1.4 0.4 0.9 1.5 -0.3 2 -0.1 1.6 0.9 -0.7 1.9 -2.9 1.8 -3.7 -0.2z"/>
  <path d="M180.9 166.8 c-1 -3.6 -0.7 -4.8 1.4 -4.7 1.7 0 1.8 0.2 0.6 0.7 -0.9 0.4 -1.5 1.5 -1.3 2.5 0.2 1.3 -0.3 2.6 -0.7 1.5z"/>
  <path d="M182.7 160.3 c-0.6 -1 -0.2 -3.1 1.2 -6.5 1.4 -3.7 2.1 -3.5 1.6 0.2 -0.4 3.6 -0.2 3.6 3.7 0.9 2.3 -1.7 2.7 -2.4 1.6 -3.1 -1 -0.8 -0.9 -0.9 0.3 -0.5 0.9 0.3 2.1 0.2 2.6 -0.1 0.5 -0.4 -1.1 1.2 -3.5 3.6 -2.4 2.3 -5.1 4.2 -5.9 4.2 -0.8 0 -1.1 0.5 -0.8 1 0.3 0.6 0.4 1 0.1 1 -0.3 0 -0.7 -0.3 -0.9 -0.7z"/>
  <path d="M188 148.4 c-1.6 -1 -1.8 -1.3 -0.5 -0.8 1.1 0.4 2.8 0.7 3.7 0.8 0.9 0 1.4 0.4 1.2 0.8 -0.7 1.1 -1.5 1 -4.4 -0.8z"/>
  <path d="M188.5 146 c-0.5 -0.9 -0.4 -1.1 0.3 -0.6 0.7 0.4 1.2 0.1 1.2 -0.9 0 -0.9 -0.5 -1.3 -1 -1 -0.6 0.4 -0.5 -0.4 0.1 -1.9 0.7 -1.4 1.7 -2.2 2.2 -1.9 0.8 0.5 0.7 0.8 -0.1 1.1 -0.7 0.2 -1.2 0.8 -1.2 1.3 0 0.5 2.6 0.7 5.8 0.5 3.1 -0.3 4.8 -0.2 3.7 0.1 -1.1 0.3 -2.6 1 -3.2 1.5 -0.7 0.6 -2 0.7 -2.9 0.4 -1 -0.4 -2.2 0 -2.9 1 -0.9 1.4 -1.4 1.4 -2 0.4z"/>
 </g>
 <g fill="#4a4a4a">
 </g>
 <g fill="#525252">
 </g>
 <g fill="#5a5a5a">
 </g>
 <g fill="#636363">
 </g>
 <g fill="#6b6b6b">
 </g>
 <g fill="#737373">
 </g>
 <g fill="#7b7b7b">
 </g>
 <g fill="#848484">
 </g>
 <g fill="#8c8c8c">
 </g>
 <g fill="#949494">
 </g>
 <g fill="#9c9c9c">
 </g>
 <g fill="#a5a5a5">
 </g>
 <g fill="#adadad">
 </g>
 <g fill="#b5b5b5">
 </g>
 <g fill="#bdbdbd">
 </g>
 <g fill="#c5c5c5">
 </g>
 <g fill="#cecece">
 </g>
 <g fill="#d6d6d6">
 </g>
 <g fill="#dedede">
 </g>
 <g fill="#e6e6e6">
 </g>
 <g fill="#efefef">
 </g>
 <g fill="#f7f7f7">
 </g>
 <g fill="#ffffff">
 </g>
</svg>