<?xml version="1.0" encoding="utf-8"?>
<!DOCTYPE svg PUBLIC "-//W3C//DTD SVG 1.0//EN" "http://www.w3.org/TR/2001/REC-SVG-20010904/DTD/svg10.dtd">
<svg version="1.0" xmlns="http://www.w3.org/2000/svg" width="500px" height="361px" viewBox="0 0 500 361" preserveAspectRatio="xMidYMid meet">
 <g fill="#000000">
  <path d="M277 218.5 c0 -3.3 0.2 -3.5 3.5 -3.5 3.3 0 3.5 0.2 3.5 3.5 0 3.3 -0.2 3.5 -3.5 3.5 -3.3 0 -3.5 -0.2 -3.5 -3.5z"/>
  <path d="M291 204.5 c0 -3.1 0.3 -3.5 2.5 -3.5 2.2 0 2.5 0.4 2.5 3.5 0 3.1 -0.3 3.5 -2.5 3.5 -2.2 0 -2.5 -0.4 -2.5 -3.5z"/>
  <path d="M303 203.4 c0 -3.4 0.1 -3.5 3.3 -3.2 2.8 0.3 3.2 0.7 3.5 3.6 0.3 3.1 0.2 3.2 -3.2 3.2 -3.5 0 -3.6 -0.1 -3.6 -3.6z"/>
  <path d="M293.6 164.4 c-0.3 -0.9 -0.6 -2.9 -0.6 -4.5 0 -2.6 0.3 -2.9 3 -2.9 2.4 0 3.3 0.6 4 2.6 1.9 4.9 1.3 6.4 -2.4 6.4 -2.2 0 -3.6 -0.6 -4 -1.6z"/>
  <path d="M256.7 157.3 c-0.4 -0.3 -0.7 -1.9 -0.7 -3.5 0 -2.7 0.3 -2.9 3.3 -2.6 2.8 0.3 3.2 0.7 3.5 3.6 0.3 2.9 0.1 3.2 -2.6 3.2 -1.6 0 -3.2 -0.3 -3.5 -0.7z"/>
  <path d="M289.5 148 c-0.3 -1.1 -1.5 -2 -2.6 -2 -1.5 0 -1.9 -0.7 -1.9 -3.5 0 -3.3 0.2 -3.5 3.4 -3.5 3 0 3.5 0.4 5.2 4.7 1.1 2.7 2.1 5.1 2.2 5.5 0.2 0.5 -1 0.8 -2.6 0.8 -2.2 0 -3.3 -0.6 -3.7 -2z"/>
  <path d="M285 135.5 c0 -1 -1.1 -1.5 -3.5 -1.5 -3.3 0 -3.5 -0.2 -3.5 -3.6 0 -3.5 0.1 -3.5 3.7 -3.2 3.2 0.3 4 0.9 6.5 5.1 l2.7 4.7 -2.9 0 c-2 0 -3 -0.5 -3 -1.5z"/>
  <path d="M261 104 c0 -3.6 0.3 -3.6 4.1 -0.9 3.8 2.7 3.7 3.9 -0.6 3.9 -3.2 0 -3.5 -0.2 -3.5 -3z"/>
  <path d="M248 98.4 c0 -2 0.4 -2.5 1.6 -2 0.9 0.3 2.4 0.6 3.5 0.6 1.2 0 1.9 0.7 1.9 2 0 1.6 -0.7 2 -3.5 2 -3.1 0 -3.5 -0.3 -3.5 -2.6z"/>
 </g>
 <g fill="#080808">
  <path d="M268 335.9 c0 -1.4 0.7 -1.9 3 -1.9 2.5 0 3 -0.4 3 -2.5 0 -1.4 0.5 -2.5 1 -2.5 0.6 0 1 -1.1 1 -2.5 0 -2.7 1.7 -3.1 7.9 -1.9 2.9 0.6 3.1 0.9 3.1 5 0 3.7 -0.3 4.4 -2 4.4 -1.3 0 -2 0.7 -2 1.9 0 1.8 -0.7 2 -7.5 1.9 -6.6 -0.1 -7.5 -0.3 -7.5 -1.9z"/>
  <path d="M300.6 329.9 c-0.4 -4.4 -0.4 -8.4 -0.1 -9 0.4 -0.5 0 -0.9 -0.8 -0.9 -1 0 -1.7 -1.6 -2.1 -5 -0.6 -4.5 -0.9 -5 -3.1 -5 -1.4 0 -2.5 -0.4 -2.5 -1 0 -0.5 -1.1 -1 -2.5 -1 -2.2 0 -2.5 -0.4 -2.5 -3.5 0 -3.5 0 -3.5 4.5 -3.5 2.5 0 4.5 0.5 4.5 1 0 0.6 2 1 4.5 1 2.5 0 4.5 0.5 4.5 1 0 0.6 1.3 1 2.9 1 3.5 0 4.1 1.3 4.1 9.1 0 5.4 -0.2 5.9 -2.2 6 -1.3 0 -1.7 0.3 -1 0.6 0.6 0.2 1.2 1.3 1.2 2.4 0 1 0.5 1.9 1 1.9 1.6 0 1.2 6 -0.5 7.6 -0.8 0.9 -1.5 2.4 -1.5 3.5 0 1.5 -0.7 1.9 -3.9 1.9 l-3.8 0 -0.7 -8.1z"/>
  <path d="M265 324.8 c0 -3.3 1.4 -5.8 3.1 -5.8 1.5 0 1.9 0.7 1.9 3.5 0 3.1 -0.3 3.5 -2.5 3.5 -1.4 0 -2.5 -0.6 -2.5 -1.2z"/>
  <path d="M280 317 c0 -0.5 -1.8 -1 -4 -1 -3.9 0 -4 -0.1 -4 -3.5 l0 -3.5 6 0 c3.3 0 6 0.4 6 1 0 0.6 1.6 1 3.5 1 3.3 0 3.5 0.2 3.5 3.5 l0 3.5 -5.5 0 c-3 0 -5.5 -0.4 -5.5 -1z"/>
  <path d="M269.5 306.3 c0.9 -2.3 2.6 -7.6 6.1 -19 2.2 -7.1 3.3 -9.3 4.6 -9.3 1.3 0 1.8 -0.8 1.8 -3 0 -1.6 0.5 -3 1 -3 1.4 0 1.3 -4.7 -0.1 -5.2 -0.7 -0.2 -0.4 -3 0.9 -8.3 5.4 -21.5 7.6 -40.3 6.9 -60.7 -0.5 -15.8 -1.2 -21.2 -2.6 -20.3 -0.4 0.2 -0.3 4.1 0.2 8.7 1.6 14.1 -1.5 39.5 -7.9 64.5 -1.3 5 -2.4 9.4 -2.4 9.7 0 0.3 -1.8 0.6 -4 0.6 -3.7 0 -4 -0.2 -4 -2.7 0 -4.5 1.1 -7.3 2.9 -7.3 1 0 1.2 -0.3 0.5 -0.8 -1.6 -1 -1.6 -16.4 0 -17.4 0.6 -0.5 0.2 -0.8 -1.1 -0.8 -1.6 0 -2.3 -0.6 -2.3 -2 0 -1.1 -0.4 -2 -1 -2 -0.5 0 -1 -1.2 -1 -2.7 0 -2.1 -0.3 -2.4 -1.2 -1.5 -0.7 0.7 -2.7 1.2 -4.6 1.2 l-3.4 0 2 -3.2 c1.7 -2.9 3.3 -7.2 7.3 -19.5 1.3 -4 2.4 -26.1 1.5 -29.7 -0.6 -2.5 -0.8 -2.6 -2.4 -1 -1.2 1.3 -1.3 1.9 -0.4 2.2 0.8 0.2 1.2 2.5 1.2 6.5 0 9.1 -0.7 10.7 -4.4 10.8 -1.7 0.1 -2.4 0.3 -1.5 0.6 2.3 0.6 3.2 9.2 1.4 14.2 -2.2 6.3 -4.5 10.1 -6 10.1 -0.8 0 -1.5 -0.9 -1.5 -2 0 -1.1 -0.7 -2 -1.5 -2 -0.8 0 -1.5 -0.7 -1.5 -1.5 0 -0.8 -0.4 -1.5 -1 -1.5 -0.5 0 -1 -1.1 -1 -2.5 0 -2.2 -0.4 -2.5 -3.5 -2.5 -2.4 0 -3.5 -0.5 -3.5 -1.5 0 -0.8 -0.8 -1.5 -1.7 -1.5 -1.3 0 -0.9 -0.8 1.6 -3.3 2.2 -2.1 3.5 -2.8 3.8 -1.9 0.3 0.6 1.1 1.2 1.9 1.2 0.8 0 1.4 1 1.4 2.5 0 2.1 0.5 2.5 3 2.5 1.7 0 3 -0.4 3 -0.9 0 -0.5 1 -1.2 2.3 -1.4 1.9 -0.4 1.8 -0.4 -0.5 -0.6 -2.1 -0.1 -2.8 -0.6 -2.8 -2.1 0 -1.3 -0.7 -2 -2 -2 -3.1 0 -2.5 -3.4 1.6 -8.7 4.8 -6.2 6.4 -10.2 6.4 -15.6 0 -5.2 -2.4 -11.6 -5.1 -13.5 -1.1 -0.8 -1.9 -2.5 -1.9 -4.3 0 -2.7 -0.3 -2.9 -3.9 -2.9 -4.1 0 -5.1 -1.1 -5.1 -5.6 0 -2.1 -0.5 -2.4 -3.4 -2.4 -3 0 -3.5 -0.3 -3.8 -2.7 -0.2 -2.3 -0.8 -2.9 -3.6 -3.1 -1.7 -0.2 -3.2 -0.7 -3.2 -1.3 0 -0.5 -1.3 -0.9 -3 -0.9 -2.7 0 -3 -0.3 -3 -3.1 l0 -3.1 5.2 0.7 c7.5 1 15.3 5.2 21.7 11.5 5.9 5.9 12.3 15.2 14.3 20.6 0.8 2.3 1.8 3.4 3.1 3.4 5 0 -2.1 -13.7 -12.6 -24.1 -6.5 -6.6 -6.7 -6.9 -4.2 -7.5 1.4 -0.3 2.5 -1.1 2.5 -1.6 0 -0.5 0.7 -1.6 1.5 -2.4 2.6 -2.6 1.9 -4.5 -1.2 -3.8 -3.2 0.8 -6.3 3.9 -6.3 6.4 0 1.4 -0.8 1.3 -5.7 -1.1 -3.2 -1.6 -7.9 -3.1 -10.5 -3.5 -3.8 -0.5 -4.8 -1.1 -4.8 -2.5 0 -1.1 0.7 -1.9 1.5 -1.9 1 0 1.5 -1.1 1.5 -3.5 0 -3.3 0.2 -3.5 3.5 -3.5 1.9 0 3.5 -0.4 3.5 -1 0 -0.5 -0.4 -1 -0.9 -1 -0.5 0 -1.3 -0.9 -1.6 -2 -0.5 -1.5 -1.5 -2 -4.5 -2 -3.3 0 -3.8 0.3 -4.3 2.7 -0.3 1.6 -0.3 5 0 7.6 l0.6 4.8 -3.9 -0.3 c-3.2 -0.2 -4 -0.7 -4.2 -2.6 -0.3 -1.6 -1 -2.2 -2.8 -2.2 -1.3 0 -2.4 -0.3 -2.4 -0.7 0 -2.1 6.4 -11.6 8.1 -12 1 -0.3 1.9 -1 1.9 -1.7 0 -1.1 1.4 -2.2 7.7 -5.7 3.9 -2.2 16.7 -3.7 17.7 -2.1 0.4 0.6 1.3 0.9 2 0.6 1.7 -0.7 10.6 3.5 11.3 5.2 0.3 0.8 0.8 1.2 1.2 1 1 -0.6 7.8 5.8 12.2 11.4 4.4 5.6 10.1 15 9.1 15 -0.4 0 -0.2 0.4 0.3 0.8 2.5 1.8 6.8 11 6 12.9 -0.3 0.9 0 1.1 0.7 0.7 0.8 -0.5 0.9 -0.2 0.5 1 -0.4 0.9 -0.3 1.5 0.2 1.2 1.1 -0.7 6.3 12.3 5.5 13.5 -0.3 0.5 -0.1 0.9 0.4 0.9 1.2 0 6.6 20.6 8.7 33.2 2 12.2 3.4 31.8 3.5 47.6 0 11.8 -0.1 12.3 -2.2 13.2 l-2.3 0.9 2.3 0 c2.1 0.1 2.2 0.5 2.2 7.5 0 5.3 -0.4 7.9 -1.5 9 -0.8 0.8 -1.5 1.9 -1.5 2.5 0 0.6 0.7 1.1 1.5 1.1 1.1 0 1.5 1.1 1.5 4 0 3.3 -0.3 4 -2 4 -1.1 0 -2 0.5 -2 1 0 0.6 0.5 1 1 1 0.6 0 1 1.6 1 3.5 0 2.4 -0.5 3.5 -1.5 3.5 -0.8 0 -1.5 0.7 -1.5 1.5 0 0.8 -0.9 1.5 -2 1.5 -1.1 0 -2 0.7 -2 1.5 0 1 -1.1 1.5 -3.5 1.5 -2.4 0 -3.5 -0.5 -3.5 -1.5 0 -1.1 -1.1 -1.5 -3.9 -1.5 -4.1 0 -5.1 -1.3 -5.1 -6.7 0 -1.3 -0.4 -2.3 -1 -2.3 -1.5 0 -1.2 -6.7 0.3 -7.3 0.6 -0.3 -0.1 -0.6 -1.6 -0.6 -2.8 -0.1 -2.9 0 -2.2 3.8 0.8 5.1 -0.3 11.1 -2.2 11.1 -2.6 0 -4 2.5 -4.7 8.3 -0.7 5.5 -0.8 5.7 -3.8 5.7 -2.5 0 -2.9 -0.3 -2.3 -1.7z m23.5 -51.8 c0 -0.8 -0.4 -1.5 -1 -1.5 -0.5 0 -1 0.7 -1 1.5 0 0.8 0.5 1.5 1 1.5 0.6 0 1 -0.7 1 -1.5z m-17.1 -40.2 c0.1 -1.3 -0.3 -2.3 -0.9 -2.3 -0.5 0 -1 1.9 -0.9 4.3 0 3.2 0.2 3.7 0.9 2.2 0.5 -1.1 0.9 -3 0.9 -4.2z m-6.9 -78.3 c0 -1.1 -0.4 -2 -1 -2 -0.5 0 -1 0.9 -1 2 0 1.1 0.5 2 1 2 0.6 0 1 -0.9 1 -2z m-20 -16.4 c0.8 -0.2 -1.1 -0.4 -4.2 -0.5 -3.2 0 -5.8 0.2 -5.8 0.7 0 0.7 6.4 0.6 10 -0.2z m-0.6 -15.2 c2.7 -1 1.8 -2.1 -1.4 -1.6 -1.6 0.2 -3 0.8 -3 1.3 0 1 2.1 1.2 4.4 0.3z"/>
  <path d="M257 302.6 c0 -3.5 1.3 -4.6 5.1 -4.6 2.2 0 2.3 0.6 0.8 4.9 -0.8 2.3 -1.7 3.1 -3.5 3.1 -2.1 0 -2.4 -0.5 -2.4 -3.4z"/>
  <path d="M262.3 293.3 c-0.7 -0.2 -1.3 -2 -1.3 -3.9 0 -3.2 0.2 -3.4 3.5 -3.4 3.8 0 4.3 1.1 2.3 5.5 -1.1 2.5 -2.1 2.8 -4.5 1.8z"/>
  <path d="M260 277.5 c0 -3.3 0.2 -3.5 3.5 -3.5 3.3 0 3.5 0.2 3.5 3.5 0 3.3 -0.2 3.5 -3.5 3.5 -3.3 0 -3.5 -0.2 -3.5 -3.5z"/>
  <path d="M269 271.5 c0 -3.3 0.2 -3.5 3.5 -3.5 3 0 3.4 0.2 2.6 1.8 -0.5 0.9 -1.2 2.5 -1.5 3.5 -0.3 0.9 -1.5 1.7 -2.6 1.7 -1.6 0 -2 -0.6 -2 -3.5z"/>
  <path d="M253 247.5 c0 -3.3 0.2 -3.5 3.5 -3.5 3.3 0 3.5 0.2 3.5 3.5 0 3.3 -0.2 3.5 -3.5 3.5 -3.3 0 -3.5 -0.2 -3.5 -3.5z"/>
  <path d="M260 230.5 c0 -3.3 0.2 -3.5 3.5 -3.5 3.3 0 3.5 0.2 3.5 3.5 0 3.3 -0.2 3.5 -3.5 3.5 -3.3 0 -3.5 -0.2 -3.5 -3.5z"/>
  <path d="M247.3 228.5 c-0.7 -0.8 -1.3 -2.8 -1.3 -4.5 0 -2.7 0.3 -3 3.4 -3 4.3 0 5.3 2.2 2.5 6.1 -2.3 3.3 -2.9 3.4 -4.6 1.4z"/>
  <path d="M238.7 161.9 c-3.3 -3.8 -3.3 -3.9 -0.2 -3.9 2 0 2.5 -0.5 2.5 -2.5 0 -2.2 0.4 -2.5 3.3 -2.5 4.5 0 5.9 1.2 5.5 4.6 -0.2 2.5 -0.8 2.9 -3.5 3.2 -2.5 0.2 -3.3 0.8 -3.3 2.3 0 2.7 -1.1 2.4 -4.3 -1.2z"/>
  <path d="M226 144.3 c0 -0.9 -1 -2.7 -2.2 -4 -2.1 -2.3 -2.1 -2.3 -0.1 -2.3 1.1 0 4.1 0.3 6.7 0.6 4.4 0.6 4.6 0.8 4.6 4 0 3.4 -0.1 3.4 -4.5 3.4 -3.6 0 -4.5 -0.4 -4.5 -1.7z"/>
 </g>
 <g fill="#101010">
  <path d="M236.8 337.2 c-1 -0.2 -1.8 -0.5 -1.8 -0.6 0 -0.2 0.5 -2.8 1.1 -5.7 0.7 -3 1.1 -9.1 1 -13.6 -0.2 -5.3 0.1 -8.3 0.8 -8.3 0.6 0 1.3 -2.2 1.7 -5 0.4 -2.7 1 -5 1.5 -5 0.5 0 0.9 -1.6 0.9 -3.5 0 -1.9 0.5 -3.5 1 -3.5 0.6 0 1 -1.1 1 -2.5 0 -1.7 0.7 -2.9 2.3 -3.5 2 -0.8 1.9 -0.9 -1 -0.9 -2.9 -0.1 -3.3 0.2 -3.3 2.4 0 2.2 -0.4 2.5 -3.3 2.5 -3.2 0 -3.2 0.1 -2.9 4 0.4 4 0.4 4 -3.2 4 -3.4 0 -3.6 -0.1 -3.6 -3.5 0 -1.9 -0.4 -3.5 -1 -3.5 -0.5 0 -1 -1.5 -1 -3.4 l0 -3.3 7 -0.7 c6.6 -0.7 7 -0.9 7 -3.2 0 -2.1 0.5 -2.4 4.3 -2.6 l4.2 -0.1 -3.7 -0.4 c-3.6 -0.4 -3.8 -0.6 -3.8 -3.9 0 -3.2 0.2 -3.4 3.5 -3.4 2.8 0 3.5 0.4 3.5 2 0 1.3 0.7 2 2 2 1.8 0 2 -0.7 2 -5.5 0 -3 -0.4 -5.5 -1 -5.5 -0.5 0 -1 -1.1 -1 -2.5 0 -2.1 -0.5 -2.5 -3 -2.5 -2.7 0 -3 -0.3 -3 -3 0 -1.9 -0.5 -3 -1.4 -3 -2.6 0 -2.5 -4.7 0.3 -7.8 7.8 -8.7 13.4 -15.9 15.5 -20 0.9 -1.8 2.1 -3 2.6 -2.7 0.5 0.3 1.2 0 1.6 -0.6 0.5 -0.8 0.3 -0.9 -0.6 -0.4 -0.9 0.6 -1 0.2 -0.5 -1.6 0.4 -1.3 1.3 -3 1.9 -3.8 0.6 -0.8 1 -2.2 0.8 -3.3 -0.2 -1 0.2 -1.8 0.8 -1.8 0.6 0 0.8 -0.5 0.5 -1 -0.3 -0.5 -0.2 -1 0.4 -1 0.6 0 0.8 -0.6 0.6 -1.3 -0.3 -0.7 0.7 -2 2.2 -2.9 1.6 -1 2.2 -1.8 1.5 -1.8 -0.7 0 -1 -0.5 -0.6 -1.2 0.4 -0.7 0.3 -0.8 -0.5 -0.4 -0.6 0.4 -0.9 1.1 -0.6 1.6 0.3 0.4 -0.2 1.1 -1 1.4 -1.3 0.4 -1.3 0.2 -0.5 -1.4 0.5 -1 1 -2.8 1 -4 0 -1.4 0.4 -1.9 1.3 -1.4 0.8 0.6 0.8 0.3 -0.1 -0.9 -1.4 -1.6 -0.8 -6.2 0.7 -5.3 0.4 0.3 1.3 0 2.1 -0.5 1.2 -0.8 1.1 -0.9 -0.5 -0.7 -1.2 0.2 -2.1 -0.4 -2.3 -1.6 -0.2 -1.1 0 -1.6 0.6 -1.2 0.6 0.3 1.3 0.2 1.7 -0.4 0.3 -0.5 -0.1 -1 -0.9 -1 -1.2 0 -1.6 -1.2 -1.7 -4.7 -0.1 -2.7 -0.5 -6.1 -0.9 -7.8 -0.7 -2.7 -0.8 -2.5 -1 2 -0.2 2.8 -0.2 6.2 -0.1 7.7 0.3 3.5 -2.7 18.8 -3.9 20.3 -0.5 0.7 -0.7 1.4 -0.4 1.7 0.8 0.9 -2.7 8.8 -3.7 8.2 -0.5 -0.3 -0.7 0.1 -0.4 0.8 0.6 1.5 -6.2 12.8 -7.6 12.8 -0.6 0 -0.8 0.4 -0.5 0.8 0.2 0.4 -2.2 3.7 -5.5 7.2 l-5.9 6.5 0 -4 c0 -2.2 -1 -6.9 -2.1 -10.5 -2.4 -7.4 -2.8 -16.4 -0.9 -20 0.7 -1.4 5.6 -6.8 11 -12 10.9 -10.6 14.3 -16.1 14.2 -23 -0.1 -5.8 -2.8 -12.4 -5.8 -14 -2.2 -1.2 -2.8 -0.9 -7.3 3.3 -2.8 2.6 -5.7 4.7 -6.4 4.7 -1.6 0 -4 -2.4 -3.2 -3.2 0.3 -0.2 -1.3 -1.2 -3.4 -2.1 -2.1 -1 -4.1 -2.6 -4.4 -3.7 -0.3 -1.2 -1.4 -2 -2.5 -2 -2.5 0 -3.2 -1.8 -3.2 -7.8 0 -3.7 -0.5 -5 -2 -6 -2.2 -1.3 -3.3 -3.6 -4.5 -9.1 l-0.7 -3.4 8.7 0.7 c4.8 0.3 9.7 1.2 10.8 1.8 1.2 0.7 2.4 1.3 2.7 1.4 2.2 0.5 3.9 1.8 3.4 2.5 -0.3 0.5 0.1 0.7 0.8 0.4 1.9 -0.6 5.2 2.1 4.2 3.6 -0.5 0.8 -0.3 1 0.5 0.4 1.3 -0.7 4.8 3.2 4.3 4.8 -0.1 0.5 0.2 0.6 0.7 0.2 1 -0.6 10.1 10.8 10.1 12.6 0 1.6 0.3 2.4 1.7 3.7 0.7 0.7 1.3 2 1.3 2.8 0 1.5 2.4 1.7 5.5 0.4 1.7 -0.7 1.7 -0.9 0.2 -0.9 -0.9 -0.1 -1.6 -0.4 -1.5 -0.8 0.1 -0.5 -0.6 -2.3 -1.5 -4.1 -1 -1.8 -1.5 -3.7 -1.2 -4.3 0.4 -0.5 0.1 -0.8 -0.7 -0.7 -0.7 0.2 -1.3 -0.5 -1.3 -1.4 0 -0.9 -0.4 -2 -0.9 -2.5 -0.5 -0.4 -0.6 -0.3 -0.2 0.5 1.3 2.3 0 1.2 -2.3 -1.9 -1.9 -2.5 -2 -3.3 -0.9 -4.6 1.2 -1.4 1.1 -1.5 -0.8 -0.5 -1.8 0.9 -2.3 0.8 -3.3 -1.1 -1.2 -2.2 -10.9 -9.5 -14.4 -10.9 -1.1 -0.5 -1.5 -1.3 -1.1 -2 0.5 -1 0.4 -1 -0.5 -0.2 -1 0.9 -2.1 0.9 -4.4 0 -1.8 -0.6 -3.4 -1.3 -3.7 -1.6 -0.3 -0.3 -4.5 -0.6 -9.5 -0.7 -4.9 -0.1 -9.3 -0.2 -9.7 -0.2 -0.9 -0.1 -1.1 -6.3 -0.2 -8.5 0.3 -0.9 1.1 -1.3 1.7 -0.9 0.6 0.3 0.7 0.1 0.3 -0.5 -1.4 -2.3 8.6 -14.4 10.9 -13.1 0.3 0.2 1.1 -0.4 1.6 -1.4 0.6 -0.9 1.9 -1.7 2.9 -1.7 1.1 0 2 -0.5 2 -1.1 0 -0.6 1.4 -0.9 3.5 -0.6 1.9 0.3 3.3 0.1 3 -0.3 -0.3 -0.4 1.5 -0.7 4 -0.7 2.6 0 4.2 0.4 3.8 1 -0.4 0.6 0.3 0.8 1.6 0.4 2.6 -0.6 8.3 1.1 7.6 2.3 -0.3 0.5 0 1.2 0.6 1.6 0.8 0.4 0.9 0.3 0.5 -0.4 -1 -1.6 0.5 -1.5 2.7 0.2 1.8 1.4 1.8 1.4 0 1.9 -1.2 0.4 -0.9 0.5 0.7 0.4 2.7 -0.2 7.4 2.5 6.3 3.6 -0.3 0.4 0.2 0.7 1.1 0.7 1.2 0 1.6 0.5 1.3 1.4 -0.4 0.9 0.6 2.3 2.6 3.6 1.8 1.2 2.5 2 1.6 1.7 -0.8 -0.3 -2.1 0.3 -2.7 1.4 -0.7 1 -2 1.9 -3 2 -0.9 0 -0.4 0.5 1.2 1 1.7 0.4 3.2 0.6 3.5 0.4 0.2 -0.3 -0.1 -0.5 -0.7 -0.5 -0.7 0 -1.2 -0.5 -1.2 -1.1 0 -0.6 0.6 -0.9 1.4 -0.6 0.8 0.3 1.6 0.1 1.8 -0.5 0.2 -0.6 0.9 -0.3 1.7 0.6 1.1 1.4 1.1 1.6 -0.3 1.6 -0.9 0 -1.6 0.4 -1.6 0.9 0 0.6 -1.7 1.1 -3.7 1.3 -3.8 0.3 -3.8 0.3 0.8 0.8 3.2 0.3 4.5 0.1 4.2 -0.6 -0.5 -1.3 2.6 -2.8 3.6 -1.8 0.3 0.4 0 0.9 -0.6 1.1 -1.6 0.6 -1.7 3.3 -0.2 3.3 0.5 0 0.7 -0.5 0.4 -1.1 -0.4 -0.6 0.2 -0.5 1.4 0.2 1.4 1 1.7 1.5 0.8 2.1 -0.8 0.5 -0.6 0.8 0.6 0.8 1 0 1.6 0.4 1.2 0.9 -0.3 0.6 0.3 1.4 1.2 2 1 0.6 1.4 1.1 0.8 1.1 -0.5 0 -0.3 0.5 0.5 1 1.3 0.9 1.3 1.1 0 2 -1.3 0.8 -1.3 1 0.2 1 2.2 0 3.9 3.2 2.8 5 -1 1.6 -0.4 3 1.3 3 0.8 0 0.8 -0.3 -0.2 -0.9 -0.9 -0.6 -1 -1.1 -0.2 -1.5 0.6 -0.4 1.2 -0.2 1.2 0.3 0.3 2 0.5 2.6 2.1 5.6 0.9 1.7 1.8 3.9 2 5 0.1 1.1 0.7 2.3 1.2 2.7 0.6 0.4 0.4 1.4 -0.5 2.4 -0.8 1 -0.9 1.5 -0.2 1.1 0.6 -0.4 1.4 -0.3 1.7 0.2 0.3 0.5 -0.4 1.2 -1.7 1.5 -2.2 0.6 -2.2 0.7 -0.2 2.1 1.1 0.9 2.5 1.3 3.3 1 0.7 -0.2 1 -0.1 0.7 0.4 -0.3 0.5 0 1.3 0.6 1.7 0.9 0.5 0.7 1.1 -0.5 1.9 -1.5 1.2 -1.5 1.3 0.2 1.7 1.1 0.3 2.1 1.4 2.4 2.6 0.6 2 -0.6 2.4 -3 0.8 -0.8 -0.5 -1.8 -0.3 -2.5 0.4 -0.9 1 -0.8 1.2 0.6 0.7 0.9 -0.4 1.7 -0.2 1.7 0.3 0 0.6 0.9 1 2 1 1.1 0 2.1 0.6 2.2 1.3 0 0.6 0.2 1.7 0.2 2.2 0.1 0.6 0.5 1.6 1 2.4 0.7 1.1 0.6 1.2 -0.5 0.6 -1.1 -0.7 -1.2 -0.6 -0.2 0.6 1 1.2 1 1.8 0 2.9 -0.9 1 -0.9 1.1 0.1 0.6 0.8 -0.5 1.2 0.1 1.2 1.7 0 1.3 0.3 2.7 0.7 3.1 0.4 0.3 0.8 1.6 1 2.8 0.3 1.7 0.1 1.8 -1 0.9 -1.2 -0.9 -1.4 -0.6 -1.1 1.6 0.2 1.6 0.1 2.2 -0.2 1.6 -0.9 -2.1 -2.6 -1.5 -1.9 0.6 0.4 1.5 0 2.1 -1.7 2.4 -1.6 0.3 -1.4 0.4 0.5 0.2 1.7 -0.1 2.6 0.3 2.4 1 -0.3 0.6 0.4 1.2 1.4 1.2 1.8 0.2 1.8 0.1 0.3 -1.5 -1.1 -1 -1.3 -1.7 -0.5 -2 0.6 -0.2 1.1 -1 1.1 -1.8 0 -0.8 0.5 -1.4 1 -1.4 0.6 0 1 1.2 1.1 2.7 0 5.8 0.6 11.4 1.3 12 1.1 1.2 0.6 2.2 -0.8 1.7 -0.8 -0.3 -1.7 -0.1 -2 0.4 -0.3 0.5 0.2 0.9 1.2 0.8 2.2 -0.1 3 6.3 1 7.9 -1.6 1.3 -2.3 4.5 -0.8 4.5 0.5 0 1 -0.7 1 -1.7 0 -2.8 0.8 -1 1.5 3.4 0.5 3.8 0.4 4.2 -1.7 4.6 l-2.3 0.4 2.3 0.2 c2 0.1 2.2 0.6 2.2 5 0 3 -0.5 5.1 -1.2 5.4 -1 0.4 -1 0.6 0 0.6 0.6 0.1 1.2 1.4 1.2 3 0 2.3 -0.5 3.1 -2.2 3.4 -2.3 0.4 -2.3 0.4 -0.1 0.6 l2.2 0.1 0.1 44.5 0.1 44.4 -23.5 -0.2 c-12.9 -0.1 -23.7 -0.5 -24 -0.8 -0.8 -0.8 0.5 -15 1.3 -14.5 0.3 0.2 0.7 -1.4 0.8 -3.6 0 -2.1 0.6 -5.1 1.1 -6.6 0.6 -1.5 1.3 -4 1.6 -5.5 0.4 -1.5 1.1 -2.5 1.6 -2.2 0.5 0.3 0.7 -0.6 0.4 -2 -0.2 -1.4 -0.1 -2.5 0.4 -2.5 0.4 0 0.9 -1.4 1 -3.2 0.2 -1.8 0.6 -3.5 1 -3.8 0.4 -0.3 0.9 -1.6 1.1 -3 0.1 -1.4 1 -3.8 1.9 -5.5 0.9 -1.6 1.5 -3.4 1.4 -3.9 -0.3 -1 3.9 -15.9 4.7 -16.6 0.3 -0.3 0.6 -1.4 0.6 -2.5 0 -1.1 0.6 -2 1.3 -2 0.6 0 1.2 -0.4 1.1 -1 -0.1 -0.5 -0.6 -0.9 -1.1 -0.7 -0.6 0.2 -0.8 -0.4 -0.4 -1.3 0.3 -0.9 0.6 -2.3 0.6 -3.1 0 -0.8 0.5 -1.4 1.1 -1.4 0.5 0 0.7 0.5 0.3 1.2 -0.4 0.6 -0.3 0.8 0.4 0.5 1.1 -0.8 1.1 -2.5 -0.1 -4.4 -0.5 -0.7 -0.5 -1.8 -0.2 -2.3 0.4 -0.6 0.9 -2.5 1.1 -4.3 0.3 -1.8 0.7 -4.1 0.8 -5.2 0.2 -1.1 0.5 -2.2 0.6 -2.5 0.1 -0.3 0.3 -2.1 0.4 -4 0.1 -2.5 0.5 -3.4 1.5 -3.2 1.1 0.2 1.2 0 0.4 -1 -1.2 -1.5 -1.3 -4.8 -0.1 -4.8 0.4 0 0.8 -0.5 0.8 -1.1 0 -0.5 -0.5 -0.7 -1.2 -0.3 -0.7 0.5 -0.8 0.3 -0.2 -0.7 0.4 -0.8 0.7 -2.5 0.6 -3.9 -0.2 -2 -0.1 -2.2 0.7 -1 0.9 1.3 1.1 1.3 1.1 -0.2 0 -0.9 -0.4 -1.9 -0.9 -2.3 -0.6 -0.3 -0.9 -2.3 -0.9 -4.5 0 -2.7 0.4 -3.8 1.2 -3.3 0.8 0.5 0.8 0.3 0 -0.8 -0.7 -0.8 -1.2 -2.7 -1.2 -4.4 l0.1 -2.9 1.7 2.2 1.8 2.2 -0.2 -2.4 c0 -1.4 -0.3 -2.4 -0.6 -2.4 -2.8 0.2 -3.2 -0.2 -1.9 -1.9 0.8 -1 0.9 -1.4 0.2 -1 -0.8 0.5 -1.1 -0.1 -0.9 -2 0.1 -1.6 -0.2 -3.6 -0.7 -4.7 -0.6 -1.3 -0.5 -2.1 0.4 -2.7 1 -0.6 0.9 -1.2 -0.5 -2.8 -1.1 -1.2 -1.4 -2.1 -0.8 -2.1 0.7 0 1.2 -0.5 1.2 -1.1 0 -0.6 -0.8 -0.9 -1.7 -0.7 -1 0.2 -1.7 1.1 -1.5 2 0.1 0.9 -0.5 1.9 -1.5 2.1 -1.7 0.4 -1.7 0.5 0 0.6 2.2 0.1 2.2 3 0 4.7 -1.7 1.2 -1.6 1.3 0.7 1.4 2 0 2.2 0.2 1 1 -1.3 0.9 -1.3 1 0 1.1 0.8 0.1 -1 0.5 -4 0.9 l-5.5 0.7 5.4 0.1 5.4 0.2 -0.7 7.8 c-0.4 4.2 -1 10.4 -1.2 13.7 -0.5 6.3 -1.9 12.7 -3.6 15.9 -0.7 1.3 -0.6 1.6 0.2 1.1 1.1 -0.7 0.6 4.8 -0.7 6.8 -0.3 0.6 -0.7 2.3 -0.8 3.8 -0.2 1.5 -1 4.1 -1.8 5.8 -0.9 1.7 -1.1 2.8 -0.5 2.5 0.7 -0.5 0.9 -0.2 0.5 0.8 -0.3 0.9 -1.1 3.6 -1.7 5.9 -2.5 9.3 -3.4 12.4 -4 13.4 -0.3 0.6 -1.2 2.8 -1.9 5 -2.3 7.3 -5.5 15 -6.4 15.6 -0.5 0.3 -0.7 0.8 -0.6 1 0.5 0.7 -2.3 9.9 -3 9.9 -0.4 0 -0.7 0.8 -0.8 1.8 -0.1 0.9 -1.3 5.5 -2.7 10.2 -1.5 4.7 -3.2 12.1 -3.9 16.4 l-1.2 8 -8 0.1 c-4.4 0 -8.8 -0.1 -9.7 -0.3z m10.5 -25.4 c0.2 -0.7 0.1 -2.2 -0.4 -3.3 -0.7 -1.8 -0.8 -1.7 -0.8 0.7 -0.1 1.4 -0.7 2.9 -1.3 3.1 -0.8 0.4 -0.7 0.6 0.3 0.6 0.9 0.1 1.9 -0.5 2.2 -1.1z m61.3 -65.5 c-3.1 -0.5 -5.9 -2.6 -4.9 -3.7 0.4 -0.3 -0.3 -0.6 -1.5 -0.6 -1.2 0 -2.2 0.4 -2.2 0.9 0 1.6 5.2 3.9 8.5 3.8 l3 0 -2.9 -0.4z m-1.6 -9.3 c3.4 -0.8 3.4 -0.8 0.5 -0.8 -1.6 -0.1 -4.1 0.6 -5.5 1.4 -1.6 1 -1.8 1.3 -0.5 0.8 1.1 -0.4 3.6 -1 5.5 -1.4z m-12.1 -2.2 c-0.1 -1.8 -0.2 -1.9 -0.6 -0.5 -0.2 0.9 -0.8 1.5 -1.2 1.3 -0.4 -0.3 -1.3 -0.1 -2.1 0.5 -1.1 0.6 -0.8 0.9 1.3 0.9 2.2 0 2.7 -0.4 2.6 -2.2z m11.1 -0.8 c0 -1.2 -2.4 -1.2 -6 0 -2.1 0.7 -1.9 0.8 1.8 0.9 2.3 0.1 4.2 -0.3 4.2 -0.9z m-61.8 -11.5 c-0.2 -1.4 -0.8 -2.5 -1.3 -2.5 -0.5 0 -0.9 1.1 -0.9 2.5 0 1.4 0.6 2.5 1.4 2.5 0.9 0 1.2 -0.8 0.8 -2.5z m61.8 0.6 c0 -0.4 -1.1 -0.6 -2.5 -0.3 -1.4 0.2 -2.5 0.6 -2.5 0.8 0 0.2 1.1 0.4 2.5 0.4 1.4 0 2.5 -0.4 2.5 -0.9z m0 -9.8 c0 -1.7 -1.6 -1.7 -2.3 0 -0.3 0.8 0.1 1.4 0.9 1.4 0.8 0 1.4 -0.6 1.4 -1.4z m-10.7 -2.8 c-0.3 -0.8 -1.3 -1.5 -2.2 -1.4 -1 0 -1.1 0.2 -0.3 0.6 0.6 0.2 1.2 1.1 1.2 1.9 0 0.9 0.4 1.3 1 0.9 0.5 -0.3 0.7 -1.2 0.3 -2z m-24.4 -3.2 c-0.6 -0.7 -1.7 -1.3 -2.3 -1.3 -0.6 0 -0.4 0.5 0.4 1 1.2 0.8 1.2 1 0.1 1 -1 0 -1.1 0.3 -0.2 1.3 0.6 0.8 1 1.6 0.8 1.8 -0.1 0.2 0.4 -0.2 1 -1 0.9 -1.1 1 -1.8 0.2 -2.8z m11.1 1.1 c0 -0.2 -1.5 -0.4 -3.2 -0.3 -2.7 0 -2.9 0.2 -1.3 0.8 1.8 0.8 4.5 0.4 4.5 -0.5z m22 0.6 c0 -0.5 -1.1 -1 -2.5 -1 -1.4 0 -2.5 0.5 -2.5 1 0 0.6 1.1 1 2.5 1 1.4 0 2.5 -0.4 2.5 -1z m4.3 -3 c0.4 -1.7 0.2 -1.8 -1.5 -0.9 -1.7 0.9 -1.8 1.3 -0.7 2 0.8 0.5 1.5 0.9 1.5 0.9 0.1 0 0.4 -0.9 0.7 -2z m-11.9 -12.6 c2 -0.8 2 -2 0 -2.8 -2.1 -0.8 -3.4 0.1 -2.7 1.9 0.6 1.7 0.6 1.7 2.7 0.9z m5.6 -1.9 c-1.5 -1.8 -0.6 -4.5 1.5 -4.5 0.8 0 1.5 -0.4 1.5 -0.9 0 -0.6 -1.2 -0.6 -3.2 0 -1.8 0.5 -4.1 0.9 -5.1 0.9 -2.6 0 -1.1 -2 1.6 -2.1 2 -0.1 2.1 -0.2 0.2 -0.6 -1.1 -0.3 -2.3 -1 -2.7 -1.7 -0.6 -0.8 -0.8 -0.7 -0.8 0.2 0 0.8 -0.5 1 -1.2 0.6 -0.8 -0.5 -0.7 0 0.2 1.1 1.4 1.7 1.3 1.7 -1 1.2 -1.4 -0.4 -1.9 -0.4 -1.2 -0.1 0.6 0.3 1 1 0.7 1.4 -0.3 0.5 0 1.2 0.6 1.6 0.8 0.5 0.9 0.3 0.4 -0.6 -0.6 -1 -0.4 -1.2 0.9 -0.7 1 0.4 2.3 0.7 3 0.7 0.7 0 1.9 1.1 2.6 2.5 0.7 1.4 1.8 2.5 2.3 2.5 0.5 0 0.4 -0.7 -0.3 -1.5z m-6.5 -11.5 c0.3 -0.6 -0.1 -0.7 -0.9 -0.4 -1.1 0.4 -1.6 0 -1.6 -1.4 0 -1.2 0.4 -2.3 0.9 -2.6 1.6 -1 2 -4.6 0.5 -4.6 -0.8 0 -1.3 0.6 -1.1 1.3 0.1 0.7 -0.6 1.1 -1.8 0.9 -1.6 -0.3 -1.8 -0.1 -0.7 0.9 0.6 0.7 1.2 2.3 1.2 3.4 0 3.2 2.1 4.7 3.5 2.5z m-2.4 -11.4 c-1.7 -2 -7.9 -3 -9.7 -1.5 -2 1.7 -1 2.3 1.3 0.8 1.6 -0.9 2.5 -0.9 4.9 0.4 3.8 1.9 4.9 2.1 3.5 0.3z m3.9 -3.5 c0.7 1 0.9 0.8 0.7 -0.9 0 -1.2 -0.4 -2.2 -0.7 -2.2 -0.9 0.1 -4 2.7 -4 3.5 0 0.4 0.7 0.2 1.6 -0.6 1.3 -1 1.7 -1 2.4 0.2z m-13.7 -3 c-0.3 -1.3 -1.1 -1.8 -2.1 -1.4 -1.4 0.4 -1.5 0.3 -0.2 -0.6 0.8 -0.5 1.1 -1.3 0.8 -1.7 -0.4 -0.3 -1.4 0.1 -2.3 0.9 -1.4 1.4 -1.3 1.6 0.5 2.2 1.1 0.3 2 1.1 2 1.6 0 0.5 0.4 0.9 0.9 0.9 0.5 0 0.7 -0.9 0.4 -1.9z m-5.5 -4.4 c0.7 -0.8 0.7 -1.8 0.2 -2.7 -0.8 -1.2 -1 -1.1 -1 0.7 0 1.2 -0.6 2.4 -1.2 2.6 -0.8 0.4 -0.9 0.6 -0.2 0.6 0.6 0.1 1.6 -0.5 2.2 -1.2z m14 -2.6 c0.3 -0.8 -0.1 -1.2 -0.9 -0.9 -0.7 0.2 -1.5 1 -1.7 1.7 -0.3 0.8 0.1 1.2 0.9 0.9 0.7 -0.2 1.5 -1 1.7 -1.7z m-7.8 -1.1 c-1 -0.6 0 -1 3.5 -1.3 l5 -0.3 -5.7 -0.2 c-4.7 -0.2 -5.6 0.1 -5.2 1.3 0.4 0.8 1.4 1.5 2.3 1.5 1.3 0 1.4 -0.2 0.1 -1z m-8.7 -7 c-0.3 -1.1 -0.9 -2 -1.4 -2 -1 0 -1.2 2.4 -0.2 3.3 1.3 1.3 2.1 0.7 1.6 -1.3z m18.9 1.3 c-0.6 -0.2 -0.9 -1 -0.6 -1.6 0.5 -0.8 0.2 -0.8 -0.7 0.1 -2.1 2 -3.4 1.4 -1.4 -0.8 1.7 -1.9 1.7 -2 -1 -3 -1.5 -0.6 -3.2 -1.3 -3.6 -1.6 -0.5 -0.3 -0.9 -0.1 -0.9 0.4 0 0.5 0.9 1.2 2 1.5 1.4 0.4 1.8 1.1 1.4 3.1 -0.4 2.4 -0.2 2.6 2.8 2.5 1.8 0 2.7 -0.3 2 -0.6z m-9.2 -2.3 c0 -0.4 -0.9 -1 -2.1 -1.3 -2.4 -0.7 -5.6 0.3 -4.1 1.2 1.5 0.9 6.2 1 6.2 0.1z m-2.7 -7.1 c-2.5 -0.9 -3.6 0 -2.2 1.7 0.9 1.1 1.5 1.2 2.6 0.2 1.3 -1 1.2 -1.3 -0.4 -1.9z m7.1 -0.8 c0.3 -0.5 -0.1 -1.4 -0.9 -2.1 -1 -0.9 -1.5 -0.9 -1.5 -0.1 0 0.6 0.6 1.1 1.3 1.1 0.8 0 0.7 0.4 -0.3 1 -0.9 0.6 -1 1 -0.3 1 0.6 0 1.4 -0.4 1.7 -0.9z m-8.4 -2.1 c0 -0.5 -1.5 -0.9 -3.2 -0.9 l-3.3 0.1 3 0.8 c1.7 0.4 3.1 0.8 3.3 0.9 0.1 0 0.2 -0.3 0.2 -0.9z m1 -6.9 c0 -1.3 0.2 -1.4 0.9 -0.1 0.6 0.8 0.7 1.9 0.4 2.5 -0.3 0.5 0 0.5 0.7 -0.2 1.1 -1 1.1 -1.5 0 -2.8 -0.7 -0.8 -1.9 -1.5 -2.7 -1.5 -0.8 0 -1.1 -0.5 -0.7 -1.2 0.4 -0.7 0.3 -0.8 -0.4 -0.4 -1.5 0.9 -1.6 4.6 -0.1 4.6 0.8 0 0.7 0.6 -0.2 1.8 -1.3 1.5 -1.2 1.6 0.4 0.3 0.9 -0.7 1.7 -2.1 1.7 -3z m-23.3 -25.7 c-0.7 -0.7 -3.7 0.7 -3.7 1.7 0 0.6 0.9 0.5 2.1 -0.1 1.1 -0.7 1.9 -1.4 1.6 -1.6z"/>
  <path d="M231 304.5 c0 -3.3 0.2 -3.5 3.5 -3.5 3.3 0 3.5 0.2 3.5 3.5 0 3.3 -0.2 3.5 -3.5 3.5 -3.3 0 -3.5 -0.2 -3.5 -3.5z"/>
  <path d="M219.6 273.8 c1.2 -2.2 4.7 -5.8 5.6 -5.8 0.4 0 0.8 1.6 0.8 3.5 0 3.3 -0.2 3.5 -3.6 3.5 -2.5 0 -3.3 -0.4 -2.8 -1.2z"/>
  <path d="M227 264.2 c0 -1.4 4.5 -6.2 5.8 -6.2 0.7 0 1.2 1.4 1.2 3.5 0 3.3 -0.2 3.5 -3.5 3.5 -1.9 0 -3.5 -0.4 -3.5 -0.8z"/>
  <path d="M224 253.7 c0 -3.4 0.2 -3.7 3 -3.7 2.6 0 2.9 0.3 2.1 1.8 -0.5 0.9 -1.9 2.6 -3 3.6 -2.1 1.9 -2.1 1.9 -2.1 -1.7z"/>
  <path d="M230 234.5 c0 -3.9 2.2 -4.8 4 -1.6 1.7 3.3 1.2 5.1 -1.5 5.1 -2.2 0 -2.5 -0.4 -2.5 -3.5z"/>
  <path d="M222 217.5 c0 -3 0.3 -3.5 2.4 -3.5 2 0 2.5 0.6 2.8 3.5 0.4 3.3 0.2 3.5 -2.4 3.5 -2.5 0 -2.8 -0.3 -2.8 -3.5z"/>
  <path d="M220 208.5 c0 -1.9 0.4 -3.5 0.9 -3.5 0.5 0 1.1 -1.3 1.3 -3 0.4 -2.4 0.1 -3 -1.4 -3 -1.2 0 -1.8 -0.7 -1.8 -2.4 0 -2.3 0.2 -2.4 3.3 -1.4 1.7 0.5 4 1.2 5 1.5 1.6 0.5 1.8 1.2 1.3 4.2 -0.4 2 -0.9 5.3 -1.2 7.4 -0.6 3.4 -0.8 3.7 -4 3.7 -3.2 0 -3.4 -0.2 -3.4 -3.5z"/>
  <path d="M225 187.5 c0 -1.9 0.5 -3.5 1 -3.5 0.6 0 1 -0.9 1 -2 0 -1.1 0.7 -2 1.5 -2 0.8 0 1.5 -0.7 1.5 -1.5 0 -0.8 -0.4 -1.5 -1 -1.5 -0.5 0 -1 -1.6 -1 -3.5 0 -3 0.3 -3.5 2.4 -3.5 3.5 0 6.6 4.4 6.6 9.2 0 6.6 -4 11.8 -9.2 11.8 -2.5 0 -2.8 -0.3 -2.8 -3.5z"/>
  <path d="M216 176.1 c0 -1.6 4.1 -6.1 5.6 -6.1 0.9 0 1.4 1.1 1.4 3.5 0 3.3 -0.2 3.5 -3.5 3.5 -1.9 0 -3.5 -0.4 -3.5 -0.9z"/>
 </g>
 <g fill="#191919">
  <path d="M212.3 336.5 c-0.7 -0.8 -1.3 -1.9 -1.3 -2.5 0 -0.5 -0.7 -1 -1.5 -1 -1 0 -1.5 -1.1 -1.5 -3.5 0 -2.8 0.4 -3.5 2 -3.5 1.6 0 2 -0.7 2 -3 0 -2.3 -0.4 -3 -2 -3 -1.6 0 -2 -0.7 -2 -3.5 0 -3.4 0.1 -3.5 4 -3.5 3.8 0 4 -0.2 4 -3 0 -2.3 0.4 -3 2 -3 1.3 0 2 -0.7 2 -2 0 -1.5 -0.7 -2 -2.5 -2 -2.2 0 -2.5 -0.4 -2.5 -3.5 0 -3.2 0.3 -3.5 2.9 -3.5 2.3 0 2.8 -0.4 2.5 -1.7 -0.4 -1.5 -1.4 -1.7 -6.4 -1.5 -5.3 0.3 -5.8 0.2 -5.4 -1.5 0.8 -2.8 2.8 -5 4.9 -5.4 1.4 -0.3 2 -1.3 2.1 -3.5 0.1 -3.3 5.1 -11.7 6.5 -10.8 0.5 0.3 0.8 0.2 0.7 -0.3 -0.6 -1.6 5.7 -10.3 7 -9.8 0.7 0.3 1 0 0.7 -0.6 -0.6 -0.9 3.5 -5.9 17.4 -20.9 2.8 -3 5.1 -5.9 5.1 -6.3 0 -0.5 0.5 -0.5 1.2 -0.1 0.7 0.4 0.8 0.3 0.4 -0.5 -0.4 -0.6 -0.3 -1.8 0.4 -2.6 1 -1.2 1.8 -1.2 5.8 0.1 2.6 0.7 6.2 1.4 8 1.4 1.7 0 3.2 0.3 3.2 0.8 0 0.4 -1.8 0.6 -4 0.4 -2.2 -0.2 -4 0 -4 0.6 0 0.5 -1.2 0.8 -2.7 0.5 -2.7 -0.3 -2.7 -0.3 -0.5 0.7 1.8 0.8 2.2 1.5 1.7 3.1 -0.6 1.8 -0.4 2.1 1 1.5 0.9 -0.3 2.1 -0.3 2.7 0 1.2 0.8 -5.1 6.4 -7.2 6.4 -1.3 0 -1.3 0.1 0 1.1 1.2 0.9 1.1 1 -0.7 0.6 -1.3 -0.3 -2.3 -0.1 -2.3 0.4 0 0.5 0.8 0.9 1.8 0.9 2.2 -0.1 7.2 -2.9 5.2 -3 -1.3 -0.1 -1.3 -0.2 0 -0.9 0.8 -0.5 2.6 -1.2 4 -1.6 2.1 -0.5 1.9 -0.2 -1.4 2.8 -2.4 2 -3.5 3.6 -2.9 4 0.6 0.4 1.8 0 2.6 -0.8 1.8 -1.7 3.1 -2 2.2 -0.5 -0.4 0.7 0.7 1 3.2 0.8 3.2 -0.3 3.8 0 3.5 1.6 -0.2 1.1 0.1 1.5 0.7 1.1 0.6 -0.3 1.1 -0.2 1.1 0.3 0 0.5 -0.8 1.2 -1.9 1.5 -1.4 0.3 -1.7 0 -1.4 -1.4 0.4 -1.3 0 -1.9 -1.2 -1.9 -1.4 0 -1.5 0.3 -0.5 1.5 1 1.2 1 1.5 -0.1 1.5 -1.1 0 -1.1 0.2 0.1 1 2.3 1.5 7.3 1.3 6.4 -0.2 -0.5 -0.9 -0.4 -1 0.4 -0.3 1.7 1.6 0.3 6.5 -1.8 6.5 -1 0 -2.5 0.7 -3.3 1.5 -0.8 0.8 -1.7 1.2 -2 0.9 -0.3 -0.3 0.7 -1.7 2 -3.1 2 -1.9 2.8 -2.2 3.4 -1.1 0.7 1 0.9 0.9 0.9 -0.4 0 -1.5 -0.8 -1.8 -4.7 -1.7 -3.9 0.1 -4.3 0.2 -2.3 0.9 2.3 0.7 2.3 0.8 -1 1 -3 0.2 -3.2 0.3 -1.1 0.9 2.1 0.6 2.2 0.8 0.7 2 -0.8 0.7 -2.3 1.1 -3.1 0.7 -0.8 -0.3 -1.5 -0.1 -1.5 0.4 0 0.6 0.9 1 1.9 1 2.2 0 3.6 2.6 1.8 3.4 -0.7 0.2 0.4 0.5 2.3 0.5 2.6 0.1 3.1 0.4 2 1.1 -1.2 0.8 -1.2 1 0.5 1 1.7 0 1.7 0.2 0.5 1 -1.2 0.8 -1.2 1 -0.1 1 1 0 1.1 0.3 0.2 1.3 -0.6 0.8 -0.8 1.6 -0.6 1.9 0.5 0.5 -4.7 1.7 -9.7 2.3 -1 0.1 -2.1 0.5 -2.5 1 -0.5 0.4 0.3 0.4 1.6 0 1.6 -0.5 2.1 -0.4 1.7 0.4 -0.4 0.6 0 1.1 0.8 1.1 0.9 0 1.6 -0.5 1.6 -1.1 0 -0.5 0.5 -0.7 1.1 -0.3 0.6 0.3 1.5 0.1 1.9 -0.6 0.4 -0.7 1.3 -0.9 1.9 -0.6 2 1.3 1.1 2.6 -1.8 2.6 -2.4 0 -2.9 0.4 -2.7 2.5 0.1 2 0.5 2.4 2.1 1.9 1.8 -0.4 1.8 -0.4 0.2 0.6 -0.9 0.6 -1.5 1.6 -1.1 2.1 0.3 0.5 0 1.6 -0.6 2.4 -0.7 0.8 -1 1.5 -0.7 1.5 0.2 0 -0.1 1.7 -0.9 3.8 -0.7 2 -1.8 3.6 -2.5 3.4 -0.9 -0.2 -0.8 0.2 0.2 1.4 1.3 1.6 1.2 1.7 -0.5 1.1 -1.6 -0.6 -1.7 -0.5 -0.7 0.7 1 1.2 0.8 1.4 -1.1 0.9 -2.1 -0.5 -2.2 -0.5 -0.5 0.9 1.6 1.2 1.7 1.8 0.6 4.3 -0.6 1.7 -1.3 3.9 -1.4 4.9 -0.1 1.1 -0.7 2.2 -1.2 2.3 -0.6 0.2 -0.9 1.2 -0.6 2.2 0.2 1 -0.2 3.4 -1 5.4 -0.9 2 -1.3 4.5 -1 5.6 0.3 1.2 0.1 2.1 -0.4 2.1 -0.6 0 -0.9 1.2 -0.7 2.6 0.4 4.1 -0.4 5.1 -3.7 4.6 -2.2 -0.3 -2.7 -0.7 -1.8 -1.3 1.1 -0.7 1.1 -0.9 0.1 -0.9 -0.7 0 -1.5 0.6 -1.7 1.3 -0.6 1.4 -22.6 1.9 -23.6 0.5 -0.3 -0.5 -1.8 -0.4 -3.3 0.2 -3.7 1.4 -6.9 1.2 -8.3 -0.5z m40.7 -3.4 c0 -0.5 -1.3 -0.9 -3 -0.9 -1.6 0.1 -3 0.5 -3 1 0 0.4 1.4 0.8 3 0.8 1.7 0 3 -0.4 3 -0.9z m11.2 -40.8 c-0.1 -0.4 0.7 -1.6 1.5 -2.6 1.9 -2 0.4 -4.5 -1.8 -3.1 -0.9 0.5 -0.8 0.9 0.7 1.5 1.7 0.7 1.7 0.8 0.2 0.8 -1.3 0.1 -1.8 0.9 -1.8 2.8 0 1.4 0.3 2.4 0.6 2.1 0.3 -0.4 0.6 -1 0.6 -1.5z m-3.2 -9.9 l2.5 -1.5 -2.5 0.7 c-1.4 0.3 -3.2 1 -4 1.5 -1.3 0.7 -1.3 0.8 0 0.8 0.8 0 2.6 -0.6 4 -1.5z m1.5 -24.3 c-0.3 -0.6 0.3 -1.4 1.2 -2 1.7 -1 1.7 -1 0.1 -1.1 -1 0 -1.8 0.5 -1.8 1 0 0.6 -1 1 -2.2 1.1 -2.2 0.1 -2.2 0.1 0.2 0.9 1.4 0.4 2.6 0.8 2.8 0.9 0.2 0.1 0.1 -0.3 -0.3 -0.8z m-4.3 -22.2 c-1.4 -0.5 -3 -0.5 -4 0 -1.2 0.7 -0.5 0.9 2.4 0.9 3.3 0 3.6 -0.2 1.6 -0.9z"/>
  <path d="M274.4 337.1 c0.3 -0.4 -1.7 -0.7 -4.5 -0.7 -2.8 0.1 -5.2 -0.2 -5.5 -0.6 -0.3 -0.4 0.1 -0.8 0.8 -0.8 0.9 0 0.9 -0.3 -0.2 -1 -0.9 -0.6 -1.1 -1 -0.3 -1 0.7 0 1 -0.7 0.6 -1.6 -0.3 -0.9 0 -2 0.8 -2.5 1 -0.6 1.1 -0.9 0.1 -0.9 -1.7 0 -1.2 -6.1 0.6 -6.8 1.1 -0.4 1.1 -0.6 0 -1.3 -0.9 -0.6 -1 -0.9 -0.1 -0.9 0.7 0 1 -0.7 0.6 -1.7 -0.5 -1.3 -0.2 -1.5 1.2 -1 1.4 0.6 1.6 0.5 0.7 -0.6 -0.9 -1.1 -0.7 -1.3 0.8 -1.2 1.1 0.1 2.3 0.5 2.7 1 0.5 0.4 0.2 0.5 -0.4 0.1 -0.8 -0.4 -1.3 -0.2 -1.3 0.7 0 0.9 1 1.3 3.3 1.1 2.9 -0.3 3 -0.3 0.7 0.5 -1.4 0.5 -1.8 1 -1 1.1 2.1 0.2 -3.9 2.6 -7.4 2.9 -0.5 0.1 -0.3 0.8 0.4 1.6 1.4 1.7 5 2 5 0.5 0 -0.5 -0.8 -0.7 -1.7 -0.3 -1 0.3 -1.5 0.2 -1 -0.2 0.4 -0.5 2.6 -0.8 4.8 -0.6 2.8 0.1 3.9 -0.2 3.4 -0.9 -0.5 -0.8 0.3 -0.9 2.7 -0.5 2.2 0.4 3.9 0.1 5.3 -0.9 2 -1.5 1.9 -1.5 -0.6 -1.6 -1.5 0 -3.8 -0.9 -5.2 -2 -1.6 -1.3 -3.2 -1.8 -4.4 -1.3 -1.7 0.6 -1.7 0.5 0.1 -1.5 1.1 -1.2 1.5 -2.3 1 -2.3 -0.5 -0.1 0.5 -0.5 2.1 -0.9 2.7 -0.7 2.4 -0.8 -2 -1 -3.2 -0.1 -4.3 -0.4 -3.2 -0.9 1 -0.4 1.8 -1 1.8 -1.4 -0.1 -0.4 -0.1 -1.1 -0.1 -1.6 0 -1.2 6.9 -3.5 7.7 -2.7 0.4 0.3 -0.1 0.6 -1 0.6 -0.9 0 -1.7 0.4 -1.7 1 0 0.5 -0.7 0.7 -1.5 0.4 -0.8 -0.4 -1.5 -0.1 -1.5 0.6 0 0.8 0.9 1 2.5 0.6 1.4 -0.4 2.5 -0.2 2.5 0.3 0 0.5 -1.2 1.2 -2.7 1.4 -1.8 0.2 -1 0.5 2.2 0.6 4 0.3 4.5 0.4 2.5 1.1 l-2.5 0.7 2.5 1.1 c1.4 0.6 2.3 1.1 2 1.2 -0.3 0.1 -1.6 0.3 -3 0.6 -1.9 0.3 -2.1 0.2 -1 -0.6 1.2 -0.8 0.9 -1 -1.2 -1 -2.1 0 -2.5 0.4 -2.1 1.9 0.3 1.3 1.1 1.8 2.1 1.4 1.4 -0.4 1.4 -0.3 0.3 0.5 -1 0.7 -0.3 1.2 2.8 1.7 2.5 0.4 4.1 1.2 4.1 2.1 0 0.8 0.9 1.4 1.9 1.4 1.1 0 2.2 0.4 2.5 0.9 0.8 1.2 -3.1 2.3 -7.9 2.2 -8.6 -0.2 -11 0 -12 1 -0.7 0.7 -0.5 1.3 0.5 1.9 1.4 0.9 0.7 1.4 -1.3 1.1 -0.5 -0.1 -1.1 0.8 -1.4 1.9 -0.3 1.1 -1.3 2 -2.2 1.9 -1 0 -1.1 -0.2 -0.3 -0.6 0.6 -0.2 1.2 -1.1 1.2 -2 0 -1.2 -0.3 -1.2 -1.6 0.2 -2.1 2 -0.4 4.2 2.3 3 1 -0.5 2.6 -0.7 3.6 -0.6 0.9 0.1 1.7 -0.1 1.6 -0.6 -0.5 -3.4 3.6 -7.7 5.1 -5.3 0.4 0.7 2.2 0.9 4.6 0.5 3.2 -0.5 3.6 -0.4 2 0.6 -1 0.6 -3.4 0.9 -5.2 0.6 -1.9 -0.3 -3.2 -0.2 -2.9 0.3 0.3 0.5 -0.3 1.3 -1.2 1.9 -1.7 1 -1.7 1 0.2 1.1 1.7 0.1 1.7 0.2 -0.4 1.1 -1.4 0.5 -4.1 1.2 -6 1.5 -5.6 0.9 -5 1.5 1.2 1.2 3.1 -0.1 5.7 -0.6 5.7 -1.1 0 -0.4 0.4 -0.6 1 -0.2 1.4 0.9 0 3.4 -1.6 2.8 -0.8 -0.3 -1.4 0 -1.4 0.6 0 0.6 -0.5 1.1 -1.1 1.1 -0.5 0 -0.8 -0.4 -0.5 -0.9z"/>
  <path d="M290.7 336.5 c-1.1 -0.7 -2.6 -1.1 -3.4 -0.8 -0.8 0.3 -1.9 0 -2.4 -0.8 -0.7 -1.2 -0.9 -1.2 -0.9 0.1 0 1.3 -0.1 1.3 -1 0 -0.6 -1 -1 -1.1 -1 -0.2 0 2 -1.6 1.4 -1.7 -0.8 -0.2 -1.7 0.2 -1.9 2.5 -1.3 1.5 0.3 3 1.1 3.4 1.7 0.4 0.6 1 0.7 1.5 0.3 0.9 -1 -1.5 -2.6 -4.2 -2.8 -1.2 0 -0.7 -0.4 1.4 -1 4.4 -1.3 3.6 -2 -1.2 -1 -2.1 0.5 -3.7 0.5 -3.7 0 0 -0.9 3.6 -1.3 10.5 -1 2.2 0.1 5.6 0.2 7.5 0.2 2.4 0.1 2.9 0.3 1.7 0.8 -2.8 1 -2.4 2.5 0.9 3.2 2.8 0.6 2.7 0.7 -0.8 0.8 -2.4 0.1 -3.8 -0.4 -3.8 -1.1 0 -0.9 -0.3 -0.9 -0.9 0.1 -0.8 1.2 -1.2 1.2 -2.5 0.2 -0.9 -0.7 -1.3 -1.7 -1 -2.2 0.6 -1.1 -0.4 -1 -3.1 0.1 -1.9 0.9 -1.9 0.9 0.3 1.6 1.2 0.3 2.2 1 2.2 1.5 0 0.5 2.9 0.9 6.5 0.9 3.7 0 6.5 -0.4 6.5 -1 0 -0.5 0.5 -1 1.2 -1 0.6 0 0.8 0.3 0.5 0.7 -0.4 0.3 -0.2 1.2 0.4 2 0.9 1.1 0.3 1.2 -3.6 0.6 -3.5 -0.4 -4.9 -0.2 -5.6 0.8 -0.6 1 -0.9 1 -0.9 0.2 0 -0.7 -0.5 -1.3 -1.1 -1.3 -0.5 0 -0.7 0.5 -0.4 1 0.9 1.5 -1.7 1.2 -3.8 -0.5z"/>
  <path d="M310.5 329 c0.4 -0.6 -0.5 -1 -1.9 -1 -1.4 0 -2.6 -0.4 -2.6 -0.9 0 -1.7 5.5 -0.6 5.8 1.2 0.2 0.9 -0.2 1.7 -0.8 1.7 -0.6 0 -0.8 -0.4 -0.5 -1z"/>
  <path d="M295.2 326.8 c0.3 -0.7 1.2 -1.4 2.2 -1.4 1.4 -0.2 1.4 -0.1 -0.1 0.3 -1.6 0.5 -1.6 0.6 0.2 1.4 1.9 0.7 1.8 0.8 -0.3 0.8 -1.5 0.1 -2.2 -0.4 -2 -1.1z"/>
  <path d="M301 326.6 c0 -0.7 1 -1.6 2.3 -1.9 2 -0.6 2.1 -0.5 0.4 0.7 -1.4 1.1 -1.5 1.5 -0.5 1.9 0.8 0.4 0.7 0.6 -0.4 0.6 -1 0.1 -1.8 -0.5 -1.8 -1.3z"/>
  <path d="M294.3 321 c0.1 -1 0.3 -1.7 0.6 -1.5 0.2 0.3 1.2 -0.4 2.1 -1.5 1.4 -1.6 1.9 -1.8 2.3 -0.6 0.4 0.9 -0.3 1.6 -1.6 2 -2.2 0.6 -2.2 0.7 -0.3 2.1 1.9 1.4 1.9 1.5 -0.6 1.5 -2 0 -2.6 -0.5 -2.5 -2z"/>
  <path d="M285 316 c-1.1 -0.7 -0.7 -1 1.8 -1 1.7 0 3.2 0.5 3.2 1 0 1.3 -3 1.3 -5 0z"/>
  <path d="M269.2 313.3 c-2.1 -0.8 -0.2 -2.3 2.9 -2.3 1.9 0 2.9 0.5 2.9 1.5 0 1.8 -1.6 2 -2.6 0.4 -0.4 -0.7 -0.9 -0.7 -1.3 -0.2 -0.3 0.6 -1.2 0.8 -1.9 0.6z"/>
  <path d="M293 313.1 c0 -1.1 3.1 -2.4 3.9 -1.6 0.3 0.3 -0.1 1 -0.9 1.5 -1.9 1.2 -3 1.2 -3 0.1z"/>
  <path d="M287.5 309.1 c0.3 -0.5 -0.1 -1.2 -0.7 -1.4 -0.8 -0.4 -0.7 -0.6 0.4 -0.6 2.3 -0.1 3.2 1.5 1.2 2.3 -0.8 0.3 -1.3 0.2 -0.9 -0.3z"/>
  <path d="M309.3 309.3 c0.9 -0.2 1.5 -0.9 1.2 -1.4 -0.4 -0.5 -0.1 -0.9 0.4 -0.9 0.6 0 1.1 0.7 1.1 1.5 0 0.9 -0.9 1.5 -2.2 1.4 -1.8 -0.1 -1.9 -0.2 -0.5 -0.6z"/>
  <path d="M193 307.1 c0 -3 1.1 -5.1 2.6 -5.1 1.5 0 1.7 1.2 0.8 4.8 -0.8 2.7 -3.4 3 -3.4 0.3z"/>
  <path d="M295.6 308.2 c-0.3 -0.5 0.8 -0.9 2.5 -0.9 1.9 0 2.5 0.3 1.7 0.9 -1.7 1 -3.5 1 -4.2 0z"/>
  <path d="M269.6 306.6 c0.3 -0.8 1.2 -1.7 2 -2 1.1 -0.4 1.2 -0.2 0.1 1.4 -1.4 2.3 -2.9 2.7 -2.1 0.6z"/>
  <path d="M286 305 c-2.1 -0.7 -2.1 -0.8 -0.5 -0.9 1.1 0 2.7 0.4 3.5 0.9 1.8 1.1 0.5 1.1 -3 0z"/>
  <path d="M285.4 298.9 c-2.1 -0.5 -1.4 -0.7 2.9 -0.8 3.1 0 5.7 0.2 5.7 0.7 0 0.9 -4.6 0.9 -8.6 0.1z"/>
  <path d="M291 294 c2 -1.3 4.3 -1.3 3.5 0 -0.3 0.6 -1.6 1 -2.8 1 -1.8 0 -1.9 -0.2 -0.7 -1z"/>
  <path d="M276 292.1 c0 -0.6 0.5 -1.3 1.2 -1.7 0.7 -0.5 0.5 -1.1 -0.7 -2.1 -1.1 -0.7 -1.4 -1.3 -0.8 -1.3 0.7 0 1.5 0.5 1.8 1 0.3 0.6 2.4 1 4.6 1 2.6 0 3.8 0.4 3.3 1.1 -0.3 0.6 -1.6 0.8 -2.9 0.5 -1.4 -0.4 -2.8 0 -3.5 0.9 -1.4 1.7 -3 2 -3 0.6z"/>
  <path d="M303.3 292.2 c-0.7 -0.4 -0.9 -1.3 -0.4 -2.1 0.6 -1 1 -0.9 1.5 0.5 0.8 2 0.4 2.5 -1.1 1.6z"/>
  <path d="M277.9 284.6 c0.9 -1 0.9 -1.6 0.1 -2.1 -0.8 -0.5 -0.7 -1.1 0.2 -2.2 0.7 -0.9 1.2 -2.6 1.1 -3.7 -0.1 -1.5 0 -1.6 0.3 -0.3 0.3 0.9 1.3 1.7 2.1 1.7 0.9 0 1.4 0.3 1.1 0.6 -0.4 0.3 -0.8 0.4 -1.1 0.2 -0.7 -0.5 -3.7 2.4 -3.2 3.1 0.2 0.4 1.8 0.6 3.4 0.3 1.7 -0.2 2.8 -0.8 2.5 -1.3 -0.3 -0.5 1 -0.8 2.8 -0.8 2.1 0.1 2.6 0.3 1.3 0.6 -1.1 0.3 -2.7 1.4 -3.6 2.4 -1.1 1.3 -1.9 1.5 -2.6 0.8 -0.6 -0.6 -1.7 -0.8 -2.3 -0.4 -0.9 0.6 -0.9 1 0.1 1.6 1 0.6 0.7 0.9 -1 0.9 -1.9 0 -2.1 -0.3 -1.2 -1.4z"/>
  <path d="M296.3 285.3 c0.9 -0.2 2.5 -0.2 3.5 0 0.9 0.3 0.1 0.5 -1.8 0.5 -1.9 0 -2.7 -0.2 -1.7 -0.5z"/>
  <path d="M204 277.9 c0 -1.6 5.1 -9.9 6.1 -9.9 0.5 0 0.9 -1.1 0.9 -2.4 0 -1.4 0.5 -2.8 1 -3.1 1.3 -0.8 1.3 -5.2 -0.1 -6.1 -0.6 -0.3 -0.9 -1.5 -0.6 -2.5 0.4 -1.4 0 -1.9 -1.4 -1.9 -1.6 0 -4.9 -4.4 -4.9 -6.6 0 -0.4 2.3 -0.4 5 -0.1 4 0.5 5 0.3 5 -0.8 0 -1 1 -1.5 3 -1.5 2.3 0 3 -0.5 3 -1.9 0 -1.3 -0.9 -2.1 -3 -2.6 -2.7 -0.6 -3 -1 -3 -4.6 0 -3.4 0.3 -3.9 2.3 -3.9 2.2 0 2.2 -0.1 2.2 -15.5 l0 -15.5 -3.2 0 c-5.1 0 -6.3 -0.9 -6.3 -4.6 0 -4 2.2 -5.4 4.8 -3.1 2 1.7 8.2 5 8.2 4.3 0 -0.3 1.4 0 3 0.5 2.4 0.9 3 1.7 3 4 0 1.5 -0.6 3.3 -1.2 4 -0.9 0.8 -1.1 3.4 -0.8 8.8 0.4 6 1.2 8.9 3.9 13.8 1.8 3.4 2.9 6.8 2.5 7.4 -0.4 0.8 -0.3 0.9 0.4 0.5 0.9 -0.5 1.2 1 1.2 5.1 0 5.3 -0.3 6.1 -3.8 9.8 -4.9 5.3 -17.8 21.7 -20.4 26.1 -1.4 2.4 -2.7 3.4 -4.4 3.4 -1.3 0 -2.4 -0.5 -2.4 -1.1z"/>
  <path d="M284 277.3 c-1.3 -1.5 -1.2 -1.6 0.4 -1 1 0.4 3 0.7 4.4 0.8 2.4 0 2.5 0.1 0.7 0.9 -2.9 1.2 -3.8 1.1 -5.5 -0.7z"/>
  <path d="M285 273.2 c0 -0.5 0.6 -1.5 1.4 -2.1 1.3 -1.1 1.2 -1.5 -0.2 -3.1 -1.9 -2.3 -2.4 -4.8 -1 -5.7 0.7 -0.4 0.8 -0.1 0.3 0.7 -0.6 1 -0.3 1.2 1.1 0.7 1.8 -0.7 1.8 -0.6 0.1 0.7 -1.7 1.3 -1.7 1.5 0.6 3.2 l2.3 1.9 -2.3 2.3 c-1.3 1.2 -2.3 1.9 -2.3 1.4z"/>
  <path d="M273.3 265.2 c0 -1.8 1.4 -3.2 3.2 -3.2 0.6 0.1 0.2 0.5 -0.8 1.1 -0.9 0.6 -1.5 1.4 -1.2 1.9 0.3 0.5 0.2 1.1 -0.3 1.4 -0.5 0.3 -0.9 -0.3 -0.9 -1.2z"/>
  <path d="M284.9 258.3 c-0.8 -0.9 -0.9 -1.4 -0.2 -1 0.6 0.4 1.3 0.2 1.5 -0.5 0.3 -0.9 0.6 -0.9 1.2 0 0.4 0.7 0.2 1.2 -0.4 1.2 -0.6 0 -0.8 0.5 -0.5 1 1 1.6 -0.1 1.1 -1.6 -0.7z"/>
  <path d="M278.2 252.8 c-1.7 -1.7 -1.5 -3.1 0.3 -2.4 0.8 0.3 1.5 0 1.5 -0.6 0 -0.6 0.3 -0.8 0.6 -0.5 0.4 0.4 0.2 1.3 -0.4 2 -0.7 0.8 -0.9 1.7 -0.5 2 0.3 0.4 0.4 0.7 0.2 0.7 -0.3 0 -1 -0.5 -1.7 -1.2z"/>
  <path d="M269.3 246.5 c0 -1.2 1.4 -1.5 6.1 -1.6 3.4 -0.1 5.3 -0.3 4.4 -0.6 -1 -0.2 -1.8 -0.9 -1.8 -1.4 0 -0.6 0.8 -0.5 2 0.1 3.1 1.7 1.4 3 -3.9 3 -2.6 0 -5.2 0.5 -5.7 1 -0.7 0.7 -1.1 0.6 -1.1 -0.5z"/>
  <path d="M305.3 247.3 c0.9 -0.2 2.5 -0.2 3.5 0 0.9 0.3 0.1 0.5 -1.8 0.5 -1.9 0 -2.7 -0.2 -1.7 -0.5z"/>
  <path d="M269 238.8 c0 -1.9 0.2 -2 1 -0.8 1.3 1.9 1.3 3 0 3 -0.5 0 -1 -1 -1 -2.2z"/>
  <path d="M239.9 235.6 c-0.3 -6.6 -0.3 -7 -1.1 -7.6 -1.4 -1 -3.5 -12.5 -3.1 -16.5 0.6 -6.3 6.1 -13.7 9.7 -13.1 1.2 0.2 1.5 0.1 0.9 -0.1 -0.7 -0.3 -1.3 -0.7 -1.3 -1 0 -0.9 5.4 -4.8 6.2 -4.5 0.5 0.1 0.8 -0.5 0.8 -1.3 0 -0.9 1.1 -2.1 2.5 -2.7 1.4 -0.6 2.4 -1.7 2.1 -2.4 -0.6 -1.6 1.4 -3.4 3.9 -3.4 1.6 0 1.7 -0.2 0.5 -1 -1.2 -0.8 -0.9 -1 1.3 -1 1.5 0 2.7 -0.6 2.8 -1.2 0 -0.7 0.5 -0.2 1.1 1.2 1.5 3.4 1.8 5.1 0.8 4.5 -0.5 -0.3 -1.1 -0.1 -1.5 0.4 -0.3 0.6 -1.2 0.8 -2 0.5 -2.1 -0.8 -0.8 -2.4 1.3 -1.8 1.3 0.5 1.4 0.4 0.3 -0.4 -1.1 -0.8 -1.1 -1 0 -1.5 1 -0.4 0.9 -0.6 -0.3 -0.6 -1 -0.1 -1.8 0.4 -1.8 0.9 0 0.6 -1.1 1 -2.4 1 -1.9 0 -2.4 0.4 -2.1 2 0.2 1.1 -0.3 2.4 -1.3 3 -1.5 0.8 -1.3 1 0.8 1.1 1.7 0.1 1.3 0.4 -1.5 0.9 l-4 0.7 3.5 0.2 c1.9 0.1 4.6 0.4 5.9 0.8 1.7 0.4 2.2 0.3 1.7 -0.5 -0.4 -0.7 -0.2 -1.2 0.4 -1.2 0.7 0 0.9 0.7 0.6 1.6 -0.3 0.9 -0.6 1.8 -0.6 2 0 0.2 -0.7 0.4 -1.5 0.4 -0.8 0 -1.5 -0.5 -1.5 -1 0 -1.4 -8.3 -1 -11.1 0.6 -2.6 1.5 -1.6 1.7 1.6 0.5 1.2 -0.5 2.6 -0.4 3.4 0.3 1.1 0.8 1.3 0.8 0.7 -0.1 -0.5 -0.9 0 -1.3 1.6 -1.3 2.2 0.1 2.2 0.1 0.5 1.5 -1.1 0.7 -2.5 1.1 -3.3 0.8 -0.8 -0.3 -1.4 0 -1.4 0.6 0 0.6 0.4 1.1 0.8 1.1 1.1 0 1.3 4 0.1 4.1 -0.5 0.1 -1.3 0.2 -1.8 0.3 -2.8 0.4 -1.4 1.1 2.2 1.2 2.2 0 4.2 0.5 4.5 1.2 0.2 0.7 1.1 1.2 2 1.2 1.5 0 1.5 -0.2 0.2 -1.1 -1.2 -0.9 -1.2 -1 -0.1 -0.7 2.1 0.6 2.6 2.8 0.6 2.8 -0.9 0 -1.4 0.4 -1.1 0.9 0.4 0.5 0 1.2 -0.6 1.4 -0.8 0.3 -0.6 0.6 0.4 0.6 1.6 0.1 1.7 0.3 0.2 3.4 -1.4 2.9 -2 3.3 -4.7 3 -2.3 -0.2 -2.6 0 -1.2 0.5 1.1 0.4 2 1.2 1.9 1.7 -0.2 1.9 -1.6 4.5 -2.5 4.5 -0.4 0 -0.6 -0.8 -0.2 -1.7 0.5 -1.5 0.3 -1.6 -0.7 -0.6 -1 0.9 -1 1.5 -0.2 2.6 1.4 1.6 0.6 2.7 -1.9 2.7 -1 0 -2 0.4 -2.3 0.9 -0.4 0.5 0.4 0.7 1.6 0.4 2.3 -0.6 2.3 -0.6 -0.2 2.3 -3.3 3.8 -5.3 5.3 -6.2 4.8 -0.4 -0.3 -0.5 0.3 -0.1 1.2 0.4 1.2 0.3 1.5 -0.5 1 -0.7 -0.4 -1.2 -0.1 -1.2 0.8 0 0.8 -0.4 1.8 -1 2.1 -0.6 0.4 -1.1 -1.2 -1.1 -3.9z m15.1 -24.1 c0.5 0.3 0.7 1.3 0.4 2.3 -0.5 1.6 -0.5 1.6 0.6 0 0.6 -0.9 1.7 -1.5 2.5 -1.2 1.6 0.6 2 -0.7 0.8 -2 -0.5 -0.4 -0.8 -1.8 -0.8 -2.9 0 -1.6 -0.7 -2.3 -2.5 -2.4 l-2.5 -0.2 2.5 0.8 c1.4 0.5 1.8 0.9 0.9 1 -1.7 0.1 -4 4.2 -3.8 6.9 0.1 1 0.3 0.8 0.6 -0.6 0.2 -1.2 0.8 -2 1.3 -1.7z m-5.3 0.3 c0.2 0.6 1 1.2 1.6 1.2 0.8 0 0.7 -0.4 -0.1 -1.2 -1.7 -1.7 -1.5 -2.8 0.5 -2.1 1.5 0.6 1.6 0.5 0.3 -0.9 -0.8 -0.9 -1.6 -1.2 -1.8 -0.7 -0.2 0.5 -0.9 0.9 -1.6 0.9 -0.6 0 -1.3 1 -1.3 2.2 -0.2 1.9 0 2 0.8 0.8 0.8 -1.1 1.2 -1.2 1.6 -0.2z"/>
  <path d="M279.3 236.6 c-0.5 -0.7 -1.3 -1.5 -2 -1.7 -0.7 -0.2 -0.2 -0.9 1.1 -1.5 2 -1 2.2 -0.8 1.8 1.3 -0.3 1.8 -0.1 2.2 1.2 1.7 0.9 -0.3 1.6 -0.4 1.6 -0.1 0 1.2 -3 1.5 -3.7 0.3z"/>
  <path d="M264 226 c-0.9 -0.6 -1 -1 -0.3 -1 0.6 0 1.4 -0.8 1.6 -1.7 0.3 -1.1 0.5 -0.7 0.6 1 0.1 3 0.1 3 -1.9 1.7z"/>
  <path d="M276.6 219.1 c0.5 -0.5 2.3 -1.2 3.9 -1.6 3 -0.6 3 -0.6 -0.4 1 -3.8 1.7 -4.9 1.9 -3.5 0.6z"/>
  <path d="M266 218.1 c0 -0.8 7 -0.4 7.9 0.4 0.2 0.3 -1.4 0.5 -3.7 0.5 -2.3 0 -4.2 -0.4 -4.2 -0.9z"/>
  <path d="M267 213.1 c1.5 -3 3 -3.5 1.7 -0.6 -0.7 1.4 -1.6 2.5 -2 2.5 -0.4 0 -0.3 -0.9 0.3 -1.9z"/>
  <path d="M207 204.5 c0 -3.3 0.2 -3.5 3.5 -3.5 3.3 0 3.5 0.2 3.5 3.5 0 3.3 -0.2 3.5 -3.5 3.5 -3.3 0 -3.5 -0.2 -3.5 -3.5z"/>
  <path d="M282.1 205.6 c1.2 -1 6 -1.6 5.4 -0.6 -0.3 0.5 -1.8 1 -3.2 1 -1.5 0 -2.4 -0.2 -2.2 -0.4z"/>
  <path d="M256 202 c0 -0.5 0.9 -1 2 -1 1.1 0 2 0.5 2 1 0 0.6 -0.9 1 -2 1 -1.1 0 -2 -0.4 -2 -1z"/>
  <path d="M258 199 l-2.5 -0.8 2.7 -0.1 c1.4 -0.1 2.8 -0.7 3.1 -1.3 0.2 -0.7 0.8 -1 1.3 -0.5 1.5 1.4 -2 3.5 -4.6 2.7z"/>
  <path d="M264.7 197 c-0.3 -1.1 -0.1 -2.3 0.4 -2.6 0.5 -0.3 0.9 0.6 0.9 2 0 3.1 -0.6 3.4 -1.3 0.6z"/>
  <path d="M200 195.8 c0 -0.7 0.9 -2.8 2 -4.5 1.4 -2.3 2.7 -3.3 4.5 -3.3 2.1 0 2.5 0.5 2.5 3.1 0 1.7 -0.6 3.7 -1.4 4.5 -1.8 1.7 -7.6 1.9 -7.6 0.2z"/>
  <path d="M219.8 189.1 c-1.3 -1.1 -3 -3.8 -3.7 -6.1 -1 -3.6 -1 -4.6 0.6 -7.8 5.3 -10.9 19.6 -8 20.2 4.1 0.1 2.9 -0.2 4.7 -0.9 4.7 -0.6 0 -0.9 0.4 -0.6 0.9 0.7 1.1 -2.9 5.3 -3.8 4.4 -0.3 -0.3 -0.6 -0.1 -0.6 0.5 0 2 -8.4 1.4 -11.2 -0.7z"/>
  <path d="M207.4 184.3 c2.8 -2.4 3 -2.4 3.7 -0.7 1.3 3.2 1 3.4 -2.8 3.4 l-3.8 -0.1 2.9 -2.6z"/>
  <path d="M263.2 175.1 c-0.9 -0.5 -0.3 -0.8 1.7 -0.7 1.7 0.1 3.1 0.4 3.1 0.9 0 1 -3.2 0.9 -4.8 -0.2z"/>
  <path d="M266.9 170.1 c1.1 -0.7 1.1 -1.3 0 -3.7 -0.8 -1.5 -2.1 -3 -2.9 -3.2 -1.1 -0.4 -1 0 0.4 1.6 1 1.1 1.6 2.7 1.3 3.4 -0.4 0.8 -0.6 0.7 -0.6 -0.4 -0.1 -1 -0.8 -1.8 -1.7 -1.8 -0.8 0 -1.2 -0.4 -0.9 -1 0.3 -0.5 0 -1 -0.7 -1 -0.8 0 -0.6 -0.5 0.5 -1.1 0.9 -0.5 2.1 -0.8 2.6 -0.4 0.5 0.3 1.2 0.1 1.6 -0.5 0.3 -0.5 0.1 -1 -0.6 -1 -0.7 0 -1 -0.3 -0.6 -0.6 1.1 -1.1 2.9 0.7 1.8 1.9 -0.6 0.8 -0.3 1.7 0.7 2.7 0.9 0.8 1.8 1.4 2 1.2 0.2 -0.2 0.6 -0.1 1 0.2 0.3 0.3 0.1 0.6 -0.5 0.6 -0.6 0 -1.3 0.9 -1.6 2 -0.3 1.1 -1.1 2 -1.9 2 -1.1 0 -1.1 -0.2 0.1 -0.9z"/>
  <path d="M241.4 163.5 c-0.4 -0.8 -1.1 -1.2 -1.8 -0.9 -0.6 0.3 -0.3 -0.1 0.6 -0.9 1.6 -1.2 1.4 -1.4 -1.4 -1.4 -1.7 0 -3.6 -0.7 -4.3 -1.6 -0.7 -0.9 -1.5 -1.4 -1.8 -1 -0.4 0.3 -0.7 -0.3 -0.7 -1.5 0 -1.8 -0.6 -2.2 -3 -2.2 -2.9 0 -2.9 0 -2.8 -5.4 l0.2 -5.5 3.9 0.2 c2.1 0.2 4.1 -0.1 4.3 -0.5 0.3 -0.4 -1.3 -0.8 -3.6 -0.8 -6.8 0 -9.8 -2.9 -11.3 -10.7 -0.6 -3.3 -0.6 -3.3 3.3 -3.3 2.1 0 4.2 0.5 4.6 1.2 0.5 0.7 0.2 0.9 -0.8 0.6 -0.8 -0.4 -1.5 -0.1 -1.5 0.5 0 0.7 1.6 1.3 3.6 1.3 3.2 0.1 3.3 0 1.6 -1.2 -2.3 -1.7 -1.8 -2.3 1.5 -1.5 l2.4 0.7 -2.1 2.1 c-1.9 1.9 -2 2.3 -0.7 3.4 0.8 0.7 1.4 0.8 1.2 0.3 -0.4 -1.1 0.5 -1.4 3.5 -1.3 1.2 0 1.7 0.3 1 0.5 -1.3 0.6 -0.6 3.4 0.9 3.4 0.5 0 0.6 -0.4 0.3 -1 -0.3 -0.5 -0.1 -1 0.5 -1 0.6 0 0.8 -0.5 0.4 -1.1 -0.4 -0.7 -0.1 -1 0.7 -0.7 0.8 0.3 1.3 1.1 1.2 1.7 -0.2 0.6 -0.4 1.7 -0.5 2.4 -0.2 0.6 0.5 1.1 1.6 1 1.3 -0.1 1.5 0.2 0.7 1 -0.9 0.9 -1.6 0.9 -3 0 -1.6 -1 -1.8 -0.9 -1.4 0.6 0.4 1.5 1.1 1.7 4.5 1.1 2.2 -0.4 4.8 -0.5 5.9 -0.3 1.5 0.4 1.8 0.2 1.3 -1.2 -0.6 -1.5 -0.4 -1.6 1.4 -0.6 1.2 0.7 2.2 1.4 2.2 1.7 0 0.3 -0.5 0.2 -1.2 -0.2 -0.7 -0.5 -0.9 -0.2 -0.6 0.8 0.6 1.5 -1.7 1.8 -3.9 0.5 -0.7 -0.5 -1.8 0.1 -2.5 1.3 -1.4 2.2 -4.8 2.6 -6.6 0.8 -0.9 -0.9 -1.5 -0.9 -2.3 -0.1 -0.6 0.6 -1.8 0.9 -2.5 0.6 -0.8 -0.3 -1.4 0.1 -1.4 1.1 0 1.6 2.4 1.8 4.6 0.3 0.7 -0.4 1.4 0 1.8 0.8 0.3 0.8 0.2 1.5 -0.2 1.5 -0.4 0 -1.3 0.9 -2 2 -1 1.7 -1 2 0.4 2 0.8 0 1.3 -0.4 1 -0.9 -0.9 -1.4 1.7 -2.8 5.4 -2.9 2.4 -0.1 3 0.2 2 0.8 -1.1 0.7 -0.8 1 1.3 1 1.6 0 2.6 -0.4 2.2 -1 -0.3 -0.6 0.4 -1 1.8 -1 1.3 0 3.2 -0.9 4.2 -2 1 -1.1 1.3 -2 0.7 -2 -0.6 0 -1.4 0.5 -1.7 1 -0.3 0.6 -1 1 -1.6 1 -0.5 0 -0.1 -0.8 0.9 -1.8 1.1 -1.3 2.1 -1.6 2.9 -0.9 0.7 0.5 1.1 1.3 0.8 1.7 -0.3 0.5 -0.1 1.1 0.5 1.5 1.2 0.7 1.4 2.6 0.3 2.4 -0.5 -0.1 -2.4 0 -4.3 0.1 l-3.5 0.2 3 0.8 c2.5 0.6 2 0.8 -2.8 0.9 -3.8 0.1 -5.6 0.5 -5.2 1.1 0.4 0.7 -0.3 0.9 -2.2 0.5 -2.1 -0.5 -2.4 -0.4 -1.3 0.4 0.8 0.6 2.3 1.1 3.3 1.1 0.9 0 1.7 0.5 1.7 1 0 0.6 -1.1 0.8 -2.5 0.6 -1.7 -0.3 -2.5 0 -2.5 1 0 0.8 0.5 1.4 1 1.4 0.6 0 1 -0.3 1 -0.7 0 -0.5 1.8 -0.9 3.9 -1 l3.9 -0.1 -4.1 3.9 c-4.6 4.3 -5.5 4.6 -6.3 2.4z m-4.9 -5.5 c-0.3 -0.5 -0.2 -1 0.4 -1 0.5 0 1.2 0.5 1.4 1 0.3 0.6 0.4 0.5 0.3 -0.2 -0.3 -1.7 -2.8 -1.7 -3.3 0 -0.3 0.6 0 1.2 0.7 1.2 0.6 0 0.8 -0.4 0.5 -1z m6.5 -14 c0 -0.5 -0.7 -1 -1.5 -1 -0.8 0 -1.5 0.5 -1.5 1 0 0.6 0.7 1 1.5 1 0.8 0 1.5 -0.4 1.5 -1z m-10 -5.2 c-1.2 -0.5 -2.5 -0.6 -2.8 -0.3 -0.3 0.3 0 0.5 0.7 0.5 0.7 0 1 0.4 0.7 0.9 -0.4 0.5 0.4 0.7 1.6 0.3 l2.2 -0.5 -2.4 -0.9z"/>
  <path d="M256.5 156 c-3 -0.5 -3.4 -0.8 -1.5 -1 2.4 -0.2 2.4 -0.3 -0.5 -1 -2.5 -0.7 -2.2 -0.8 2 -0.7 3.6 0.1 4.9 -0.2 4.7 -1.1 -0.1 -0.8 0.2 -1 0.8 -0.7 0.8 0.5 0.6 1.3 -0.4 2.4 -0.9 1 -1.3 2.1 -0.9 2.4 0.3 0.4 0.4 0.6 0.2 0.6 -0.2 -0.1 -2.2 -0.5 -4.4 -0.9z"/>
  <path d="M268 151.5 c0 -0.5 0.5 -1.7 1 -2.5 0.7 -1.1 1.2 -1.2 2 -0.4 0.9 0.9 0.9 1.4 0.1 1.8 -0.6 0.4 -1.1 0.4 -1.1 -0.1 0 -0.4 -0.5 -0.1 -1 0.7 -0.5 0.8 -1 1.1 -1 0.5z"/>
  <path d="M241.3 147.3 c0.9 -0.2 2.5 -0.2 3.5 0 0.9 0.3 0.1 0.5 -1.8 0.5 -1.9 0 -2.7 -0.2 -1.7 -0.5z"/>
  <path d="M258 138.9 c-0.7 -1.1 -0.9 -2.3 -0.7 -2.6 0.3 -0.2 0.8 0.5 1.2 1.6 0.3 1.2 1.1 1.8 1.7 1.5 0.7 -0.4 0.8 -0.2 0.4 0.4 -1 1.6 -1.4 1.5 -2.6 -0.9z"/>
  <path d="M242 137.5 c0 -0.4 0.8 -1.4 1.8 -2.2 1.5 -1.3 1.5 -1.4 0 -1 -1 0.4 -1.8 -0.1 -2.1 -1.4 -0.5 -1.8 -0.3 -1.8 2.6 0.3 4.1 2.8 4.5 3.2 2.7 2.6 -0.8 -0.3 -2.3 0.1 -3.2 1 -1 0.8 -1.8 1.2 -1.8 0.7z"/>
  <path d="M254.5 134.6 c1.8 -1.3 1.7 -1.4 -0.8 -1.1 -1.5 0.2 -2.7 -0.1 -2.7 -0.5 0 -0.5 1.6 -0.8 3.5 -0.7 1.9 0.1 3.5 0.3 3.5 0.4 0 0.7 -3.4 3.3 -4.3 3.3 -0.6 0 -0.2 -0.6 0.8 -1.4z"/>
  <path d="M236 131.9 c0 -0.5 -0.5 -0.7 -1.2 -0.3 -0.7 0.4 -0.8 0.3 -0.4 -0.4 0.4 -0.7 1.4 -1.2 2.2 -1.2 0.8 0 1.3 0.4 0.9 0.9 -0.3 0.5 0.3 1.2 1.2 1.4 1.4 0.4 1.3 0.5 -0.4 0.6 -1.3 0 -2.3 -0.4 -2.3 -1z"/>
  <path d="M239.8 127.6 c-1 -0.7 -1.5 -1.6 -1.1 -2 0.4 -0.4 -0.3 -0.9 -1.5 -1.3 -1.2 -0.3 -1.9 -1 -1.6 -1.5 0.4 -0.6 -0.2 -0.8 -1.5 -0.3 -1.9 0.6 -2.1 0.3 -1.7 -1.9 0.3 -1.7 -0.1 -2.9 -1.2 -3.7 -1.3 -0.8 -1.3 -0.9 -0.2 -0.6 1.3 0.4 1.6 -0.4 1.5 -4.2 0 -4.4 -0.1 -4.6 -3 -4.8 -1.6 -0.1 -2.3 0 -1.5 0.4 0.8 0.3 2.1 1.2 2.8 2 1.8 1.8 -0.4 1.7 -3.7 -0.1 -2.9 -1.6 -5.2 -1.1 -4.4 1.1 0.4 1.1 0.8 1.2 1.3 0.2 0.7 -1 1.5 -0.9 4.2 0.1 1.8 0.7 3.5 1.5 3.6 1.6 0.2 0.1 -0.7 1.3 -1.9 2.5 -1.5 1.5 -1.8 2.4 -1.1 2.7 2.8 0.9 0.8 1.7 -4.3 1.8 -5.4 0.1 -7.5 0.8 -6.3 2 0.4 0.3 1.5 0.1 2.5 -0.4 1 -0.5 3.8 -0.6 6.3 -0.2 2.5 0.4 3.9 0.8 3.2 0.9 -0.6 0 -1.1 0.7 -1 1.4 0.2 0.7 -0.8 1.2 -2.4 1.3 -1.6 0.1 -2.8 -0.4 -2.8 -1 0 -0.8 -0.3 -0.7 -0.8 0 -0.7 1.1 -3.2 1.8 -6 1.5 -0.7 0 -1 -0.5 -0.7 -1.1 0.3 -0.5 0.2 -1 -0.3 -1 -0.5 0 -0.9 -1.5 -0.8 -3.2 0.1 -2.9 0.6 -3.3 3.1 -3.7 2.6 -0.3 2.8 -0.4 1 -1.2 -1.7 -0.7 -1.6 -0.7 0.6 -0.6 2.9 0.1 2.9 2.3 0.1 3 -1 0.3 -0.1 0.5 1.8 0.4 1.9 -0.1 4.2 -0.8 5 -1.5 1.2 -1.3 1.1 -1.4 -0.8 -0.8 -2.9 1 -2.9 -0.2 0.1 -1.4 2.1 -0.8 2 -0.9 -0.7 -0.9 -1.6 -0.1 -3.5 -0.9 -4.2 -1.8 -1.3 -1.7 -1.4 -1.7 -0.8 0 0.3 0.9 0.1 1.7 -0.5 1.7 -1.6 0 -1.3 -1.9 0.7 -4.3 1.3 -1.7 3 -2.3 8 -2.6 5.7 -0.3 6.3 -0.1 6 1.5 -0.2 1.2 0.6 2.3 2 2.9 1.7 0.7 2.2 1.7 2 3.6 -0.1 1.5 0.4 3.4 1.2 4.4 1.1 1.4 1.1 1.8 0 2.5 -0.7 0.4 -2 0.6 -2.9 0.3 -1.1 -0.3 -1 0 0.4 1.1 1.1 0.9 2.5 1.4 3.2 1.2 0.7 -0.3 1.5 -0.1 1.8 0.4 0.3 0.5 1.2 0.7 1.9 0.4 0.7 -0.3 1.6 0.2 2 1.2 0.5 1.4 0.4 1.5 -0.9 0.4 -0.8 -0.7 -1.5 -0.9 -1.5 -0.5 0 0.4 -0.6 0.2 -1.3 -0.4 -1.8 -1.4 -3 -0.2 -1.5 1.6 1.5 1.9 0.7 2.4 -1.4 0.9z m-3.3 -9.7 c0 -1.3 0.4 -2.7 1 -3.1 1.4 -1 0 -1.9 -1.9 -1.2 -1.1 0.4 -1.5 1.3 -1 2.6 0.4 1.3 0.2 1.8 -0.4 1.4 -0.9 -0.5 -0.9 0.4 -0.3 3.2 0.1 0.2 0.7 0.2 1.4 0 0.6 -0.3 1.2 -1.6 1.2 -2.9z"/>
  <path d="M258.8 121.8 c0.9 -0.9 1.5 -0.9 2.4 0 0.9 0.9 0.7 1.2 -1.2 1.2 -1.9 0 -2.1 -0.3 -1.2 -1.2z"/>
  <path d="M256.5 112.3 c1.1 -0.3 2.3 -1 2.6 -1.5 0.3 -0.5 0.9 -0.3 1.2 0.6 0.5 1.3 0 1.6 -2.6 1.5 -2.1 -0.1 -2.5 -0.3 -1.2 -0.6z"/>
  <path d="M267.1 108.3 c-0.1 -1.6 0.5 -2.3 1.7 -2.3 1 0 1.3 0.3 0.6 0.8 -0.6 0.4 -1.4 1.4 -1.7 2.2 -0.4 1 -0.6 0.8 -0.6 -0.7z"/>
  <path d="M242.8 107.3 c1.2 -0.2 3 -0.2 4 0 0.9 0.3 -0.1 0.5 -2.3 0.4 -2.2 0 -3 -0.2 -1.7 -0.4z"/>
  <path d="M224 105.1 c0 -1 2.4 -2.1 6 -2.7 1.9 -0.3 2.2 -0.2 1 0.6 -1.2 0.8 -0.9 1 1.5 1.1 2.5 0.1 2.6 0.3 0.7 0.6 -1.3 0.3 -2.9 0 -3.6 -0.6 -1 -0.8 -1.7 -0.7 -2.6 0.4 -1.4 1.7 -3 2 -3 0.6z"/>
  <path d="M245.6 98.1 c-0.3 -0.4 -1.7 -0.7 -3.2 -0.5 -1.4 0.1 -2.3 0 -2 -0.3 1.1 -1.1 5.6 -1.2 5.6 -0.2 0 0.6 0.5 0.7 1.2 0.3 0.7 -0.4 0.8 -0.3 0.4 0.4 -0.9 1.4 -1.3 1.5 -2 0.3z"/>
 </g>
 <g fill="#212121">
  <path d="M201.8 337.2 c-1 -0.2 -1.8 -0.7 -1.8 -1.1 0 -0.5 -1.2 -0.6 -2.6 -0.3 -2.6 0.5 -2.6 0.4 -1.9 -3.9 1.2 -8.3 4.6 -20.4 8.2 -29.3 4.4 -11.2 13 -25.9 14.5 -25 0.7 0.4 0.8 0.2 0.4 -0.5 -1 -1.5 4.2 -8.4 5.6 -7.5 0.7 0.4 0.8 0.2 0.4 -0.4 -1.2 -2 0.4 -3.4 2.2 -2 1.5 1.2 1.6 1.1 0.3 -0.4 -1.2 -1.6 -0.8 -2.4 3.4 -7.3 4.8 -5.6 6.6 -6.8 5.9 -3.7 -0.3 1.1 0.4 2.1 2.1 2.9 1.4 0.6 2.3 0.7 1.9 0.2 -0.3 -0.5 0.2 -0.9 1.1 -0.9 2.2 0 3 -2.9 1.2 -4.3 -1.5 -1.1 -1.4 -1.4 0.4 -3.7 1.5 -1.8 1.9 -2 1.5 -0.6 -0.5 1.3 -0.2 1.7 0.9 1.3 0.8 -0.4 1.7 -0.1 2.1 0.5 0.4 0.6 0.9 0.7 1.3 0 0.3 -0.5 1.7 -1.2 3.1 -1.6 l2.5 -0.7 -2.4 1.4 c-2.3 1.4 -2.3 1.5 -0.5 1.9 1.3 0.3 1 0.6 -1.3 0.9 -1.8 0.3 -3 0.2 -2.7 -0.3 0.3 -0.4 0.1 -0.8 -0.4 -0.8 -1.5 0 -2.2 2.8 -0.9 3.4 0.9 0.3 0.8 0.7 -0.2 1.4 -1.1 0.8 -0.4 1.3 3 2.1 3.9 0.9 4 1 1 0.8 -2.2 -0.1 -3.6 0.3 -3.9 1.2 -0.3 1 0.1 1.2 1.4 0.8 1.8 -0.7 1.8 -0.6 0.2 0.7 -1.8 1.3 -2.5 3.2 -0.9 2.2 0.5 -0.3 1.1 0.1 1.5 0.9 0.4 1.1 -0.1 1.5 -1.7 1.5 -1.3 0 -2.8 0.5 -3.4 1.1 -0.6 0.6 -1.7 0.8 -2.4 0.3 -0.9 -0.5 -0.8 -0.9 0.7 -1.5 1.8 -0.7 1.8 -0.8 -0.1 -0.9 l-2 -0.1 2 -0.9 c1.8 -0.8 1.7 -0.9 -0.7 -0.9 -3 -0.1 -3.3 0.5 -1.8 2.9 0.5 0.9 0.5 1.7 0 2 -0.5 0.3 0.4 1.4 2.1 2.4 2.8 1.7 3 1.7 2.7 0.1 -0.5 -2.6 2.7 -4.3 5.2 -2.7 1.1 0.6 3.1 1.2 4.5 1.2 1.4 0 2.5 0.4 2.5 0.9 0 1.2 -4.1 1.1 -5.7 -0.2 -0.7 -0.5 -1.8 -0.5 -2.4 -0.1 -0.7 0.4 -0.9 0.3 -0.6 -0.4 0.5 -0.6 0 -0.8 -1.3 -0.5 -1.9 0.5 -1.9 0.6 0.5 2.5 1.4 1.1 2.5 2.5 2.5 3.1 0 0.7 -0.4 0.6 -1 -0.3 -0.6 -1 -2.7 -1.5 -6.2 -1.6 -2.9 0 -4.4 0.1 -3.4 0.4 1.8 0.4 1.8 0.5 -0.5 1.8 -2.4 1.4 -2.4 1.4 0.6 0.8 2.3 -0.4 3.5 0 5 1.7 l2 2.2 -2.2 -0.7 c-1.4 -0.5 -2.3 -0.3 -2.3 0.3 0 0.6 -1.2 1.1 -2.7 1.2 l-2.8 0.1 2.5 0.7 c1.4 0.4 2.8 0.3 3.2 -0.2 0.4 -0.6 1.3 -0.3 2.4 0.8 1.7 1.7 1.7 1.7 -0.6 1 -1.4 -0.4 -2.2 -0.5 -1.9 -0.1 1.1 1.2 6.9 2.5 7.4 1.6 0.3 -0.4 1.4 -0.6 2.5 -0.3 1.2 0.3 2.9 -0.2 4.2 -1.3 2.1 -1.9 2.1 -1.9 0.9 0.4 -0.6 1.2 -2.2 2.3 -3.4 2.3 -1.6 0.1 -1.7 0.3 -0.5 0.6 0.9 0.2 1.6 1.3 1.5 2.4 -0.1 1.4 -0.6 1.7 -1.9 1.3 -3.2 -1 -8.2 -1.4 -10.1 -0.8 -1.6 0.5 -1.5 0.7 0.5 2.4 1.3 1.1 1.7 1.9 1.1 2 -0.7 0 -1.3 -0.5 -1.3 -1.2 0 -0.9 -0.3 -0.9 -1.2 0 -0.7 0.7 -2 1.2 -3 1.2 -1 0 -2.1 0.7 -2.5 1.6 -0.3 0.8 -1.2 1.3 -1.9 1 -0.8 -0.3 -1.4 -0.1 -1.4 0.4 0 1.6 4.7 1.2 5.3 -0.4 0.6 -1.6 4.7 -1.8 4.7 -0.3 0 0.5 -0.7 0.7 -1.5 0.3 -1.7 -0.6 -2.1 0.9 -0.5 1.9 1.3 0.8 1.3 2.5 -0.1 2.5 -0.5 0 -0.8 -0.4 -0.5 -0.9 0.4 -0.5 -1.5 -0.9 -4.1 -0.9 -2.7 0 -4.1 0.3 -3.4 0.8 1.1 0.6 1.1 0.9 0 1.3 -0.9 0.4 -0.8 0.6 0.5 0.6 1.5 0.1 1.7 0.6 1.3 3.1 -0.4 1.7 -0.2 3.2 0.5 3.6 0.8 0.5 0.5 1 -0.8 1.5 -1.3 0.5 -0.6 0.8 2.6 0.9 3 0.1 3.9 0.4 2.7 0.9 -1 0.4 -1.8 1 -1.8 1.4 0.2 2.1 -0.1 2.6 -2.1 3 -1.6 0.3 -1.3 0.5 1 0.6 2 0 3.1 -0.3 2.7 -0.9 -0.3 -0.5 -0.1 -1 0.5 -1 0.7 0 1 0.7 0.6 1.5 -0.3 0.8 0.2 1.9 1.1 2.4 1.5 0.8 1.5 1 0 2.6 -1 0.9 -1.5 2 -1.2 2.5 0.9 1.4 -1.2 2.1 -6.6 2.2 -3.4 0 -4.7 0.3 -3.8 0.9 1 0.6 0.4 0.9 -1.8 0.9 -1.8 0 -3.3 -0.4 -3.3 -1 0 -0.5 -0.5 -1 -1.1 -1 -0.8 0 -0.8 0.5 0.1 1.5 1.3 1.5 6.1 2.1 7.3 0.8 1.3 -1.3 6.3 -1.2 10.2 0.2 2.2 0.8 3.2 1.4 2.3 1.5 -0.9 0 -2.8 -0.5 -4.2 -1.1 -1.9 -0.9 -3.2 -0.9 -5.6 0.1 -3 1.2 -3 1.3 -1 2.7 1.2 0.8 3 1.2 4.3 0.8 1.7 -0.5 1.9 -0.4 0.7 0.4 -0.9 0.6 -3.3 0.8 -5.7 0.5 -2.9 -0.4 -4.3 -0.3 -4.3 0.5 0 0.6 1.6 1.1 3.5 1.1 2.8 0 3.3 0.3 2.8 1.7 -0.4 1.1 -0.8 1.2 -1.1 0.5 -0.4 -1.3 -3.2 -1.7 -3.2 -0.4 0 0.7 -23.8 1.1 -27.2 0.4z m17.2 -4.2 c0 -0.5 -0.7 -1 -1.5 -1 -0.8 0 -1.5 0.5 -1.5 1 0 0.6 0.7 1 1.5 1 0.8 0 1.5 -0.4 1.5 -1z m18.5 -9 c-1.7 -0.7 -1.7 -0.9 -0.2 -0.9 1.4 -0.1 2.7 -3.1 1.3 -3.1 -0.2 0 -1.3 -0.3 -2.3 -0.6 -1.5 -0.5 -1.5 -0.4 -0.3 0.5 1.2 0.8 1.2 1.1 -0.3 1.7 -0.9 0.3 -1.4 1 -1.1 1.5 0.3 0.5 0.1 0.9 -0.5 0.9 -1.7 0 -2.4 -2.2 -1 -3.1 0.9 -0.6 0 -0.8 -2.6 -0.8 -3.4 0.1 -3.6 0.2 -1.5 0.9 2.2 0.6 2.3 0.8 0.7 1.5 -2.7 1.1 -0.4 2.2 5.1 2.3 3.5 0.1 4.2 -0.1 2.7 -0.8z m-4 -10 c-1.1 -0.5 -2.7 -0.9 -3.5 -0.9 -0.9 0 -0.8 0.4 0.5 0.9 1.1 0.5 2.7 0.9 3.5 0.9 0.9 0 0.8 -0.4 -0.5 -0.9z m0.5 -20 c0 -0.5 1.1 -1 2.5 -1 1.4 0 2.5 -0.4 2.5 -0.8 0 -1.8 -1.3 -1.9 -4.1 -0.4 -2.9 1.7 -3.8 3.2 -1.9 3.2 0.6 0 1 -0.4 1 -1z m2.2 -5.3 c-0.2 -1.1 0.2 -1.5 1.3 -1.1 0.8 0.3 1.2 1.1 0.8 1.7 -0.4 0.7 0 0.8 1.3 0.2 1 -0.5 4.6 -0.9 7.9 -0.8 3.3 0 5.2 -0.2 4.3 -0.4 -1 -0.2 -1.8 -0.8 -1.8 -1.1 0 -0.4 -2.4 -0.8 -5.3 -0.9 -5.8 -0.2 -7.6 -0.5 -9.5 -1.7 -0.7 -0.4 -1.6 -0.5 -1.9 -0.2 -0.4 0.3 -0.2 0.6 0.4 0.6 0.6 0 1 1 0.9 2.3 -0.1 1.8 -0.6 2.2 -3.3 2.1 -1.8 -0.1 -3 0.2 -2.8 0.6 0.3 0.5 2.2 0.7 4.3 0.6 2.8 -0.2 3.6 -0.6 3.4 -1.9z m4.8 -4.2 c-0.7 -0.8 -1.7 -1.2 -2.2 -0.9 -0.6 0.4 -0.5 1 0.3 1.5 2.2 1.4 3.3 1 1.9 -0.6z m-4.5 -20.4 c-0.5 -1.8 -0.2 -1.9 3.2 -1.5 2 0.3 4 1 4.4 1.5 0.3 0.6 0.8 -0.3 1.1 -2 0.3 -2.1 0 -3.1 -0.8 -3.1 -0.8 0 -1.1 0.6 -0.8 1.5 0.7 1.6 -0.6 1.9 -4.3 0.9 -1.3 -0.4 -2 -1.1 -1.6 -1.8 0.3 -0.6 0.2 -0.8 -0.2 -0.3 -0.5 0.4 -1.6 0 -2.5 -0.8 -1.4 -1.3 -1.7 -1.3 -1.7 -0.1 0 0.8 0.5 1.4 1.1 1.3 0.6 -0.1 1 0.4 0.8 1.2 -0.3 1.5 0.7 5.1 1.4 5.1 0.3 0 0.3 -0.9 -0.1 -1.9z"/>
  <path d="M238 336 c-1.8 -0.4 -2.1 -0.8 -1 -1.2 1.7 -0.6 5.8 0.6 4.4 1.4 -0.5 0.3 -2 0.2 -3.4 -0.2z"/>
  <path d="M248 317.2 c4.1 -0.3 5 -0.6 3.5 -1.2 -1.9 -0.8 -1.9 -0.9 0.3 -0.9 1.3 -0.1 2.2 0.5 2.2 1.4 0 1.2 -1.2 1.5 -5.7 1.3 l-5.8 -0.2 5.5 -0.4z"/>
  <path d="M245 313 c0 -0.5 -0.9 -1 -1.9 -1 -1 0 -2.1 -0.7 -2.5 -1.5 -0.3 -0.8 -0.1 -1.5 0.4 -1.5 0.6 0 1 0.5 1 1 0 0.6 1.1 1 2.4 1 1.3 0 2.7 0.6 2.9 1.3 0.4 1 0.6 1 0.6 0 0.1 -1.8 1.8 -1.6 1.8 0.2 0 0.9 -1 1.5 -2.4 1.5 -1.2 0 -2.3 -0.4 -2.3 -1z"/>
  <path d="M192.5 309.3 c1.3 -7.5 3.8 -14.3 5.3 -14.3 1.6 0 1.4 1.3 -1.4 11.8 -1 3.9 -2.2 6.2 -3.1 6.2 -1.1 0 -1.2 -0.9 -0.8 -3.7z"/>
  <path d="M234.5 306.5 c0.8 -4.4 1.7 -6.5 2.7 -6.5 0.6 0 0.8 0.3 0.4 0.8 -0.4 0.4 1.4 1.2 4.1 1.8 4.6 1 4.7 1.1 1.6 1.5 -1.8 0.3 -3 0.2 -2.8 -0.2 0.3 -0.3 -0.6 -0.6 -1.9 -0.6 -1.5 0 -2.7 0.8 -3.4 2.6 -0.7 1.5 -1 1.8 -0.7 0.6z"/>
  <path d="M250 305 c-2 -1.2 -1 -1.9 1.4 -1 1.1 0.3 1.5 0.9 1 1.3 -0.6 0.3 -1.6 0.2 -2.4 -0.3z"/>
  <path d="M242.2 298.8 c0.6 -1.6 4.6 -1.9 5.5 -0.4 0.3 0.6 0.3 0.8 -0.1 0.4 -0.5 -0.4 -1.9 -0.2 -3.3 0.3 -1.9 0.7 -2.4 0.6 -2.1 -0.3z"/>
  <path d="M250.6 293.2 c-0.3 -0.5 -1.7 -0.8 -3.1 -0.7 -1.4 0.2 -2.5 -0.1 -2.5 -0.6 0 -0.6 1.4 -0.8 3.1 -0.5 3.3 0.5 4.6 1.3 3.7 2.2 -0.3 0.3 -0.9 0.1 -1.2 -0.4z"/>
  <path d="M197.3 291.8 c3 -7.4 6.1 -13.8 6.8 -13.8 0.5 0 0.9 -0.7 0.9 -1.5 0 -0.8 1.3 -3.6 2.8 -6.2 1.6 -2.6 3.1 -5.6 3.5 -6.5 0.3 -1 1.1 -1.8 1.6 -1.8 1.5 0 0 -4.3 -2.8 -8 -3 -3.9 -10.1 -15.4 -10.1 -16.4 0 -0.3 1.6 -0.6 3.5 -0.6 3.1 0 3.5 -0.3 3.5 -2.5 0 -2.1 -0.5 -2.5 -3 -2.5 -1.6 0 -3 0.5 -3 1 0 0.6 -0.7 1 -1.6 1 -2.7 0 -4.7 -6.7 -3.9 -13.3 0.5 -5 0.3 -6.1 -1.2 -7.2 -1.6 -1.2 -1.6 -1.6 0 -6.6 2.3 -7.3 10 -20.3 13.5 -22.8 l2.9 -2 1.1 3.8 c1.4 4.4 6.5 9.4 10.2 9.7 5.6 0.6 6.6 1.2 6.4 4.1 -0.2 4.9 -0.3 5.2 -3.4 5.5 -3 0.3 -3 0.3 -0.9 1.6 1.1 0.8 1.8 0.9 1.4 0.3 -0.3 -0.6 -0.1 -1.1 0.4 -1.1 0.7 0 1.1 2.5 1.1 6.1 0 3.4 -0.4 5.8 -0.9 5.4 -0.5 -0.3 -1.3 0 -1.7 0.6 -0.4 0.7 -0.3 0.9 0.3 0.6 1.3 -0.8 3.7 1.8 2.9 3.2 -0.3 0.5 0.1 1.2 1 1.5 0.8 0.3 1.2 1 0.9 1.6 -0.3 0.5 -0.1 1 0.5 1 0.6 0 0.9 0.4 0.6 0.9 -0.3 0.5 0.1 1.1 0.9 1.5 2 0.7 1.9 2.2 -0.5 4.6 -1.3 1.3 -1.5 2 -0.7 2 0.7 0 1.8 -0.5 2.4 -1.1 0.8 -0.8 1.3 -0.8 1.8 0 0.3 0.6 -0.1 1.4 -1 1.7 -1.3 0.5 -1.4 0.9 -0.4 1.4 0.7 0.5 1.4 2.4 1.6 4.3 0.3 2.9 0 3.7 -1.8 4.2 -1.7 0.6 -1.9 0.9 -0.8 1.6 1.1 0.7 0.9 0.9 -0.6 0.9 -1.1 0 -2.7 0.5 -3.5 1.1 -1.1 0.8 -0.9 0.9 1 0.3 2.3 -0.6 2.4 -0.6 1 1.2 -3.8 4.7 -4.4 5.3 -5.3 4.7 -0.6 -0.3 -0.7 -0.2 -0.4 0.4 0.9 1.4 -2.2 5.5 -3.5 4.7 -0.6 -0.4 -0.8 -0.2 -0.5 0.3 0.4 0.6 -1.5 3.9 -4.1 7.4 -5.6 7.5 -10 14.7 -12.8 20.6 -1.4 3.2 -2.5 4.3 -4.3 4.3 -1.5 0 -2.1 -0.5 -1.8 -1.2z m36.7 -49.8 c0 -0.6 -0.5 -1 -1.2 -1 -0.6 0 -0.8 0.3 -0.5 0.7 0.4 0.3 -0.1 1.2 -1.1 2 -1.5 1.3 -1.5 1.3 0.6 0.3 1.2 -0.6 2.2 -1.5 2.2 -2z m-5.7 -13.6 c0.9 -1 -1.2 -4.4 -2.6 -4.3 -0.9 0 -0.9 0.2 0.1 0.6 0.6 0.2 1.2 0.9 1.2 1.4 0 0.6 -0.4 0.7 -1 0.4 -0.6 -0.3 -0.7 0.1 -0.4 0.9 0.6 1.7 1.6 2 2.7 1z m-23.2 -9.4 c0.5 0 0.9 -0.7 0.9 -1.5 0 -0.8 -0.7 -1.5 -1.5 -1.5 -1.1 0 -1.5 1.1 -1.3 4.8 0.1 3.6 0.2 3.9 0.5 1.5 0.2 -1.8 0.8 -3.3 1.4 -3.3z m20.6 -7.9 c0.2 -1.8 -2.4 -3.7 -3.5 -2.6 -0.3 0.2 0.2 0.7 1.1 1.1 0.9 0.3 1.3 1.2 1 2 -0.3 0.8 -0.1 1.4 0.4 1.4 0.5 0 0.9 -0.9 1 -1.9z"/>
  <path d="M255 289.4 c0 -0.1 1.4 -0.9 3 -1.8 2.4 -1.1 3 -1.2 3 -0.1 0 0.7 -1.3 1.5 -3 1.7 -1.6 0.3 -3 0.3 -3 0.2z"/>
  <path d="M256.2 285.8 c0.3 -0.7 1.5 -1.4 2.9 -1.5 1.4 -0.1 1.7 0 0.7 0.3 -1 0.3 -1.8 1 -1.8 1.5 0 0.5 -0.5 0.9 -1.1 0.9 -0.6 0 -0.9 -0.6 -0.7 -1.2z"/>
  <path d="M247 279 c-0.6 -1.1 -1.8 -2 -2.7 -2 -1.2 0 -1.3 -0.3 -0.3 -1.5 1 -1.3 1.5 -1.2 3.5 0.3 1.3 1 1.9 2 1.3 2.3 -0.6 0.4 -0.7 1.2 -0.4 1.8 0.4 0.6 0.5 1.1 0.2 1.1 -0.3 0 -1 -0.9 -1.6 -2z"/>
  <path d="M238.5 256 c2.7 -1.1 4.5 -1.2 4.5 -0.2 0 0.5 -1.5 0.9 -3.2 0.9 -2.7 0.1 -2.9 -0.1 -1.3 -0.7z"/>
  <path d="M237.5 254.1 c-0.7 -1.2 1.2 -5.1 2.5 -5.1 1.3 0 2.1 1.6 1.2 2.4 -0.4 0.4 -0.7 1.3 -0.7 1.9 0 1.4 -2.2 2 -3 0.8z"/>
  <path d="M256.8 251.3 c1.2 -0.2 3 -0.2 4 0 0.9 0.3 -0.1 0.5 -2.3 0.4 -2.2 0 -3 -0.2 -1.7 -0.4z"/>
  <path d="M241.7 248.3 c-0.4 -0.7 0.1 -1.8 1.1 -2.5 1 -0.7 2.3 -2.1 2.8 -3 0.8 -1.5 1.1 -1.5 2.9 -0.1 1.9 1.5 1.9 1.5 -0.5 0.8 -2.2 -0.7 -2.3 -0.6 -1.1 0.9 0.7 0.9 1 1.6 0.5 1.7 -0.5 0.1 0.2 0.5 1.6 1 2 0.7 1.7 0.8 -1.7 0.5 -2.5 -0.2 -4.4 0.1 -4.6 0.7 -0.2 0.8 -0.5 0.8 -1 0z"/>
  <path d="M240.4 237.5 c-0.4 -0.8 -0.1 -2.2 0.5 -2.9 0.7 -0.9 0.8 -1.5 0.2 -1.8 -0.5 -0.1 -0.3 -1.1 0.5 -2.2 1.3 -1.9 1.4 -1.9 1.4 0.6 0 1.5 0.2 3.2 0.3 4 0.2 0.7 0.2 1 0 0.6 -0.9 -1.6 -2.1 -0.7 -1.6 1.2 0.6 2.3 -0.5 2.7 -1.3 0.5z"/>
  <path d="M238.9 227.5 c-0.1 -0.3 -0.2 -0.8 -0.3 -1.2 -0.1 -0.5 -0.5 -1.4 -1 -2.2 -0.5 -0.8 -0.4 -1.6 0.5 -2.2 1.1 -0.7 1.1 -1.1 -0.3 -2.1 -2.3 -1.7 -3 -6.4 -1.3 -7.8 1.2 -1 1.3 -0.8 1 1 -0.9 4.9 3.6 7 7.3 3.3 1.9 -1.8 3.3 -1.6 2.5 0.4 -0.5 1.2 -0.3 1.4 0.8 0.8 1.2 -0.7 1.2 -0.6 -0.1 0.9 -1.3 1.7 -1.4 1.7 -2.1 -0.1 -0.6 -1.4 -0.8 -1.5 -0.8 -0.2 -0.1 1.2 -0.8 1.5 -2.8 1.1 -2.5 -0.5 -2.6 -0.3 -1.5 1.1 1.1 1.3 1 1.6 -0.9 2.2 -1.2 0.4 -1.7 1 -1.2 1.4 0.6 0.3 1 1.4 1 2.4 0 1.6 -0.5 2.4 -0.8 1.2z"/>
  <path d="M238.7 216.4 c-0.9 -1 0.4 -3.4 1.9 -3.4 0.8 0 1.4 0.8 1.4 1.8 0 1.4 -0.2 1.5 -1 0.2 -0.9 -1.3 -1.4 -0.7 -1.1 1.3 0.1 0.9 -0.4 0.9 -1.2 0.1z"/>
  <path d="M239.5 211 c-0.4 -0.6 0.6 -1 2.2 -1 2.2 0 2.5 0.2 1.3 1 -1.9 1.2 -2.7 1.2 -3.5 0z"/>
  <path d="M236.8 209.2 c0.7 -0.5 1 -1.6 0.7 -2.4 -0.8 -2 0.6 -3 2.5 -1.7 1.3 0.7 1.2 0.9 -0.1 0.9 -0.9 0 -1.6 0.7 -1.5 1.6 0 0.9 -0.6 1.9 -1.4 2.1 -1.1 0.3 -1.2 0.2 -0.2 -0.5z"/>
  <path d="M242.5 208.1 c-0.3 -0.5 -0.1 -1.2 0.5 -1.6 0.5 -0.3 1 -0.2 1 0.4 0 0.5 0.8 1.2 1.8 1.4 1.3 0.4 1.2 0.5 -0.5 0.6 -1.2 0 -2.4 -0.3 -2.8 -0.8z"/>
  <path d="M241 201 c0.6 -1.1 1.5 -1.8 2.1 -1.5 0.5 0.4 0.9 0.1 0.9 -0.5 0 -0.6 0.5 -0.8 1 -0.5 1.2 0.7 1.4 2.6 0.3 2.3 -0.5 -0.1 -1.8 0.4 -3.1 1.1 -2.2 1.2 -2.3 1.1 -1.2 -0.9z"/>
  <path d="M221 189.7 c-1.4 -0.7 -3.3 -3.2 -4.4 -5.9 -1.7 -4.1 -1.7 -4.9 -0.5 -6.4 0.7 -0.9 1.4 -2.4 1.4 -3.2 0 -1.9 6 -6.2 8.6 -6.2 1 0 2.1 0.5 2.5 1.2 0.4 0.6 0.3 0.8 -0.4 0.4 -0.6 -0.3 -1.3 -0.2 -1.7 0.4 -0.3 0.5 0 1 0.7 1 0.7 0.1 0.2 0.7 -1.2 1.5 -1.8 1 -2 1.4 -0.8 1.5 0.9 0 2.3 -0.6 3 -1.3 0.8 -0.9 2.1 -1.1 3.3 -0.6 1.7 0.6 1.7 0.8 0.3 0.8 -1 0.1 -1.8 0.6 -1.8 1.1 0 0.6 -1.1 1 -2.4 1 -1.4 0 -2.6 0.7 -2.8 1.8 -0.4 1.5 0.2 1.9 3.1 2.1 2 0.1 4 0.7 4.6 1.3 0.7 0.7 0.2 0.9 -1.7 0.4 -1.9 -0.4 -2.8 -0.2 -2.8 0.6 0 0.9 -0.3 0.8 -1 -0.2 -0.9 -1.3 -1.2 -1.2 -2.5 0.4 -1.4 1.9 -1.5 1.9 -1.5 0.1 0 -1.8 -0.1 -1.8 -1.5 0.1 -0.8 1 -1.4 2.4 -1.5 2.9 0 0.6 0.4 0.4 0.9 -0.4 0.8 -1.3 1.2 -1.3 2.7 0 1.1 0.9 1.5 0.9 1 0.2 -0.5 -0.9 0.1 -1.3 1.8 -1.3 1.4 0 2.6 -0.4 2.6 -0.9 0 -0.4 1.1 -0.6 2.5 -0.3 1.7 0.3 2.7 -0.1 3.1 -1.2 0.3 -0.9 1.1 -1.6 1.6 -1.6 0.7 0 0.6 0.5 -0.1 1.3 -0.6 0.8 -0.7 1.7 -0.3 2.1 0.4 0.4 0.3 0.7 -0.3 0.6 -0.5 -0.1 -2.1 -0.1 -3.5 0 l-2.5 0.2 2.4 0.7 c2.6 0.7 3.8 4.1 1.5 4.1 -0.9 0 -1.2 0.5 -0.8 1.2 0.5 0.7 0.3 0.8 -0.5 0.4 -0.9 -0.6 -0.8 -1.3 0.6 -2.8 1.8 -2 1.8 -2.1 -0.4 -0.7 -2 1.2 -2.4 1.1 -3.8 -0.6 -1.2 -1.4 -1.8 -1.6 -2.1 -0.7 -0.3 0.6 -1.4 1.2 -2.5 1.2 -1 0 -1.9 0.5 -1.9 1.1 0 0.6 0.9 0.8 2 0.4 1.1 -0.4 2 -0.2 2 0.4 0 0.6 -0.6 1 -1.2 0.9 -0.7 -0.2 -1.2 0.3 -1 1 0.3 1.5 0.3 1.5 -2.8 -0.1z"/>
  <path d="M228 190 c1 -0.6 1.1 -1 0.3 -1 -0.7 0 -1.3 -0.7 -1.3 -1.6 0 -1.4 0.1 -1.4 1.6 0 1.6 1.7 1.1 3.6 -0.9 3.6 -0.7 0 -0.6 -0.4 0.3 -1z"/>
  <path d="M232.4 177.8 c-0.3 -0.5 0.1 -1.7 1 -2.7 0.9 -1 1.3 -2.1 0.9 -2.6 -0.5 -0.4 -0.2 -0.5 0.5 -0.1 1.1 0.7 1 1.1 -0.2 2.5 -2.1 2.3 -2 3 0.4 2.4 1.1 -0.3 2 -0.3 2 0 0 1 -4 1.5 -4.6 0.5z"/>
  <path d="M236.5 158.1 c-0.3 -0.6 -1.5 -0.8 -2.7 -0.6 -1.1 0.3 -1.8 0.1 -1.4 -0.2 1.2 -1.3 3.5 -1.1 4.7 0.3 0.6 0.8 0.9 1.4 0.6 1.4 -0.3 0 -0.8 -0.4 -1.2 -0.9z"/>
  <path d="M230.5 153 c-0.3 -0.5 -0.1 -1 0.5 -1 0.6 0 0.9 -0.4 0.6 -0.9 -0.3 -0.4 0.7 -0.6 2.2 -0.2 2.7 0.5 2.7 0.5 0.3 0.9 -1.9 0.3 -2.1 0.6 -1 1.3 1.1 0.7 1.1 0.9 -0.3 0.9 -0.9 0 -2 -0.4 -2.3 -1z"/>
  <path d="M226.7 151.3 c-1.3 -1.2 -0.7 -2.2 1 -1.6 1 0.4 1.4 0.2 1 -0.4 -0.3 -0.5 0 -1 0.8 -1 1 0 1.1 0.5 0.4 1.9 -1 1.9 -2.1 2.3 -3.2 1.1z"/>
  <path d="M224.4 140.5 c-1 -0.8 -1.4 -1.4 -0.9 -1.4 0.6 0 1.9 0.6 2.9 1.4 1.1 0.8 1.5 1.5 1 1.5 -0.6 0 -1.9 -0.7 -3 -1.5z"/>
 </g>
 <g fill="#292929">
  <path d="M199.3 337.2 c-4.3 -0.3 -5 -1.2 -3.7 -4.6 0.3 -0.9 1.1 -1.3 1.8 -0.9 0.6 0.4 0.5 -0.1 -0.3 -1 -0.8 -1.1 -1.1 -2.7 -0.6 -4.4 0.4 -1.6 0.7 -3 0.7 -3.3 0 -0.3 0.5 -1.4 1.1 -2.5 0.6 -1.1 1 -2.4 0.9 -2.8 -0.1 -0.5 0.2 -2.6 0.8 -4.9 1 -3.6 1.4 -3.9 3.8 -3.4 2.4 0.6 2.5 0.5 0.7 -0.5 -1.1 -0.7 -2.2 -1.3 -2.3 -1.5 -0.9 -0.7 1.1 -4.3 2 -3.8 0.7 0.5 0.8 0.2 0.4 -0.5 -0.9 -1.5 1.3 -7.3 2.5 -6.6 0.4 0.3 0.6 -0.3 0.4 -1.3 -0.1 -0.9 0.4 -2.6 1.2 -3.7 1.6 -2 1.6 -2 0.9 0 -0.5 1.7 -0.4 1.8 0.6 0.5 0.7 -0.8 2.3 -1.4 3.6 -1.2 1.2 0.2 2.2 -0.1 2.2 -0.7 0 -0.6 1.2 -1.1 2.8 -1 2.9 0.1 9.6 -1.8 7.2 -2.1 -0.8 -0.1 -2.5 -0.3 -3.7 -0.4 -1.3 -0.2 -2.3 0.1 -2.3 0.6 0 0.4 -0.9 0.8 -2.1 0.8 -1.3 0 -1.8 -0.4 -1.3 -1.2 0.4 -0.7 0.3 -0.8 -0.5 -0.4 -0.6 0.4 -0.9 1.1 -0.6 1.6 0.3 0.4 -0.2 1 -1 1.3 -0.8 0.4 -1.3 0.1 -1.1 -0.6 0.1 -0.7 0.1 -0.9 -0.1 -0.4 -0.3 0.4 -1.1 0.7 -1.9 0.7 -1.2 0 -1.2 -0.4 -0.4 -2 0.6 -1.1 1.5 -1.8 2.1 -1.5 0.5 0.4 1.5 0.3 2.2 -0.2 0.6 -0.4 3.6 -0.8 6.6 -0.8 3 -0.1 4.6 0.2 3.6 0.5 -1.7 0.6 -1.7 0.7 0.3 1.2 1.4 0.4 2 1.1 1.6 2.1 -0.3 0.9 -1.3 1.3 -2.6 0.9 -1.3 -0.3 -1.9 -0.1 -1.5 0.5 0.4 0.6 -0.8 0.9 -3.1 0.7 -3.7 -0.3 -3.7 -0.3 -1.2 1.2 2.5 1.5 2.5 1.5 -1.2 1 -2.1 -0.3 -3.8 -0.1 -3.8 0.3 0 0.5 -0.9 1.1 -2 1.4 -1.1 0.3 -2 1.1 -1.9 1.9 0 1 0.2 1 0.6 0 0.4 -1 0.8 -1 2 -0.1 1.2 1 1.7 1 2.5 -0.2 0.8 -1.1 0.9 -1 0.4 0.4 -0.3 1 -0.6 2.1 -0.6 2.3 0 0.2 -0.6 0.4 -1.4 0.4 -1.7 0 -1 3.9 0.8 4.1 0.6 0.1 -0.7 0.5 -2.9 0.9 l-4 0.7 4.3 0.2 c3.7 0.1 4.2 -0.2 4.2 -2.1 0 -2.1 0.1 -2.1 1.3 -0.3 1.1 1.4 1.6 1.5 2.2 0.5 0.4 -0.7 0.2 -1.6 -0.6 -2.1 -1 -0.6 -0.8 -0.8 0.8 -0.6 1.7 0.1 2 0.5 1.2 1.8 -0.5 1 -0.6 2.4 -0.3 3.2 0.3 0.8 0.1 1.8 -0.5 2.2 -0.6 0.3 -0.9 0 -0.6 -0.7 0.4 -1.1 -1.2 -1.4 -7.9 -1.3 -6.7 0 -8.2 0.3 -7.4 1.3 0.6 0.7 1.3 1 1.6 0.7 0.3 -0.3 1.2 0.1 2 0.8 1.3 1 1.4 0.9 0.8 -0.1 -0.6 -1 0.3 -1.2 4.2 -1 2.8 0.2 4.8 0.6 4.6 1 -0.2 0.3 0.2 0.9 0.8 1.1 0.8 0.4 0.7 0.6 -0.4 0.6 -0.9 0.1 -2 -0.3 -2.3 -0.9 -0.3 -0.5 -1.1 -1 -1.6 -1 -0.6 0 -0.8 0.4 -0.5 0.9 0.4 0.5 0 1.2 -0.6 1.4 -0.7 0.3 0.3 0.6 2.2 0.6 2.4 0.1 3.1 0.4 2.1 1 -1.1 0.7 -1.1 0.9 0 1.4 1 0.4 0.9 0.6 -0.3 0.6 -0.9 0.1 -1.8 -0.4 -2 -1.1 -0.3 -0.7 -0.7 -0.6 -1.1 0.5 -0.5 1.4 0 1.7 3.1 1.8 3.3 0.1 3.4 0.2 1.2 0.9 l-2.5 0.7 3 0.5 c1.7 0.3 -0.3 0.5 -4.3 0.4 -3.9 0 -7.2 0.2 -7.2 0.7 0 0.6 6.7 1.2 9.9 0.8 1.1 -0.2 1.1 0 0 1.2 -1 1.1 -1.8 1.2 -2.7 0.4 -1 -0.8 -1.6 -0.7 -2.2 0.4 -0.7 1 -0.4 1.5 0.8 1.7 0.9 0.2 2.1 0.8 2.6 1.2 0.5 0.5 -0.2 0.7 -1.5 0.4 -1.9 -0.5 -2.1 -0.4 -0.9 0.5 1.3 0.9 1.3 1.1 -0.2 1.1 -1 0 -1.8 -0.5 -1.8 -1.1 0 -0.8 -0.4 -0.9 -1.3 0 -0.8 0.6 -1.6 0.9 -1.8 0.6 -0.3 -0.2 -0.6 0.5 -0.6 1.7 -0.2 1.6 0.1 1.8 1 0.9 1.5 -1.5 7.1 -1.5 6.1 0 -0.5 0.9 0.6 1 4 0.5 3 -0.5 4.6 -0.4 4.6 0.3 0 1.5 -7.6 1.4 -10.1 -0.1 -1.7 -1 -2.3 -1 -2.6 0 -0.3 0.6 -1.6 1.2 -2.9 1.2 -1.3 0 -2.4 0.4 -2.4 1 0 0.6 2.2 0.8 5.3 0.5 4.2 -0.3 4.6 -0.2 2.3 0.5 -1.6 0.5 -3.2 0.8 -3.5 0.6 -0.3 -0.2 -1.2 0.3 -2 1.1 -1.2 1.3 -1.1 1.4 0.7 0.9 1.1 -0.4 2.3 -0.3 2.6 0.2 0.8 1.3 -6 2.8 -11.1 2.4z m13.3 -20.9 c-2.2 -0.4 -2.6 -0.7 -1.5 -1.4 1.1 -0.7 0.8 -0.9 -1 -0.9 -2 0 -2.1 0.2 -1.1 1.5 0.7 0.8 2.4 1.4 3.9 1.4 2.5 -0.2 2.5 -0.2 -0.3 -0.6z"/>
  <path d="M190.7 326 c0.6 -9.7 3.3 -25.9 4.4 -26.6 0.5 -0.3 0.9 -1.5 0.9 -2.7 0.1 -1.2 0.9 -4 2 -6.2 1.1 -2.2 1.9 -4.6 2 -5.2 0 -0.7 0.5 -1.3 1.2 -1.3 0.6 0 0.8 -0.3 0.5 -0.6 -0.4 -0.4 0.8 -3.3 2.5 -6.6 2.1 -4 3.6 -5.7 4.5 -5.3 0.8 0.3 1.9 0.5 2.3 0.5 0.5 0 0.2 1.2 -0.6 2.8 -0.7 1.5 -1.4 3.2 -1.4 3.8 0 0.6 -1.1 2.3 -2.4 3.7 -1.3 1.4 -2.2 2.8 -2 3 0.2 0.2 -0.9 3 -2.4 6.3 -1.6 3.2 -3.7 8.2 -4.7 10.9 -1 2.8 -2.3 5.6 -2.9 6.4 -0.8 1.1 -0.8 1.3 0.1 0.8 1.1 -0.7 1.1 -0.7 -1.6 9.9 -0.6 2.3 -1.1 5.4 -1.2 7 0 1.6 -0.4 3.8 -0.9 4.9 -0.5 1.2 -0.6 -1 -0.3 -5.5z"/>
  <path d="M226.3 318.3 c0.9 -0.2 2.5 -0.2 3.5 0 0.9 0.3 0.1 0.5 -1.8 0.5 -1.9 0 -2.7 -0.2 -1.7 -0.5z"/>
  <path d="M216.5 281.9 c-0.4 -0.6 -0.5 -1.3 -0.2 -1.6 0.7 -0.7 2.7 0.6 2.7 1.8 0 1.2 -1.7 1.2 -2.5 -0.2z"/>
  <path d="M226 277 c0 -0.5 1 -1 2.3 -1 1.8 0 1.9 0.2 0.7 1 -1.9 1.3 -3 1.3 -3 0z"/>
  <path d="M219.9 273.8 c1 -1.8 2.1 -3.2 2.4 -3 1.2 0.4 0.6 1.7 -0.6 1.4 -0.8 -0.2 -0.9 0 -0.2 0.7 0.7 0.7 2.2 0.8 4.3 0.2 2 -0.6 3.2 -0.6 3.2 0 0 0.5 -1.2 1 -2.7 1.1 -5.3 0.2 -5.8 0.4 -5.5 1.6 0.1 0.7 -0.5 1.2 -1.3 1.2 -1.2 0 -1.2 -0.5 0.4 -3.2z"/>
  <path d="M212 271.3 c-4.1 -1.2 -4.1 -1.2 -2.1 -4.9 1.1 -2.1 2.5 -4 3 -4.3 0.5 -0.4 0.4 -2.1 -0.4 -4.3 -0.7 -2.3 -0.8 -3.5 -0.2 -3.1 0.6 0.3 0.7 0.1 0.3 -0.5 -0.4 -0.7 -0.3 -1.2 0.3 -1.2 0.5 0 1.3 0.5 1.6 1 0.4 0.6 1.1 0.8 1.6 0.4 1.9 -1.1 -0.2 -2.2 -3.5 -1.8 -2.8 0.3 -3.7 -0.1 -5 -2.1 -0.9 -1.4 -1.4 -3 -1.1 -3.6 0.4 -0.5 0.3 -0.8 -0.2 -0.7 -0.4 0.2 -0.9 -0.1 -1 -0.6 -0.1 -0.5 -0.6 -1.2 -1.1 -1.5 -1.9 -1.2 -7.3 -12.1 -6.6 -13.2 0.4 -0.7 0.3 -0.9 -0.3 -0.6 -1.7 1 -3.8 -8.1 -3.8 -16.2 0 -5.1 0.4 -7.6 1.3 -7.9 0.6 -0.2 1 -0.7 0.7 -1.1 -0.7 -1.2 4.1 -10.6 6.7 -13.2 1.3 -1.2 1.6 -1.8 0.9 -1.4 -2.5 1.4 2.6 -5.1 5.4 -6.9 2.2 -1.4 2.5 -1.5 2.6 -0.1 0.2 1.6 0.5 3.4 0.9 3.8 0.1 0.1 0.3 1.1 0.5 2.2 0.2 1.1 0.9 2.1 1.5 2.3 0.8 0.3 0.8 0.8 0 1.7 -0.8 0.9 -0.8 1.5 0 2 1.4 0.9 3.2 -0.4 2.4 -1.7 -0.5 -0.7 -0.2 -0.8 0.7 -0.2 0.8 0.4 2 0.9 2.7 1 0.8 0.2 1.7 0.5 2 0.9 0.4 0.3 -0.7 0.4 -2.3 0.1 -2.8 -0.5 -2.9 -0.4 -1.1 0.9 2.3 1.7 1.5 3.1 -1.1 2 -1 -0.4 -3.3 -0.9 -5.2 -1.1 -1.9 -0.2 -3.8 -0.9 -4.3 -1.6 -0.5 -0.9 -0.7 -0.5 -0.5 0.9 0.2 1.2 0.7 2.6 1.2 3 0.4 0.5 0.5 0.2 0 -0.6 -0.6 -1.1 0.1 -1.2 3.6 -0.6 2.4 0.4 4.7 1.2 5 1.7 0.3 0.5 1.3 0.6 2.2 0.2 1 -0.3 1.7 -0.1 1.7 0.5 0 0.6 -0.9 1.1 -2 1.1 -1.1 0 -2 0.4 -2 1 0 0.5 1.6 0.9 3.5 0.8 1.9 -0.1 3.8 0.2 4.2 0.5 0.3 0.4 -0.9 0.7 -2.8 0.7 -3.2 0.1 -3.3 0.1 -1.5 1.5 1.9 1.4 1.8 1.5 -1.3 1.5 -2.9 0 -3.2 -0.2 -2.1 -1.5 1.1 -1.3 0.8 -1.5 -1.6 -1.5 -1.6 0 -3.6 -0.4 -4.4 -0.9 -1 -0.7 -1.8 -0.4 -2.8 1 -1 1.4 -1.7 1.7 -2.6 1 -0.9 -0.8 -1.3 -0.7 -1.3 0.2 0 1.8 2.9 1.8 4.2 0 0.7 -0.9 2 -1.1 4.2 -0.7 2.5 0.5 3.1 1 2.7 2.8 -0.2 1.1 -1.1 2.7 -2.1 3.4 -1.6 1.1 -1.6 1.2 0.1 1.2 0.9 0 1.5 0.4 1.2 0.8 -0.3 0.5 1.6 1 4.1 1.1 5.5 0.2 7.2 1.1 2.2 1.1 -3.4 0 -3.5 0.1 -3.1 3.4 0.4 3.3 0.7 3.5 4.6 3.9 3.8 0.3 3.6 0.4 -1.4 0.6 -4.4 0.2 -5 0.5 -3 1.1 2.1 0.7 1.8 0.8 -1.8 0.9 -2.7 0.1 -4.1 0.5 -3.7 1.1 0.4 0.6 1.1 0.8 1.6 0.4 0.6 -0.3 2.7 -0.3 4.7 0.1 3.5 0.7 3.6 0.8 1.3 1.6 -1.6 0.6 -2.7 0.6 -3.1 -0.1 -0.4 -0.6 -1.3 -0.5 -2.6 0.5 -1.9 1.4 -1.9 1.4 0.1 1.6 2.6 0.2 2.5 0.2 5.9 -0.7 2.3 -0.5 2.7 -0.4 2.1 0.6 -0.6 1 -0.4 1.2 0.8 0.7 1 -0.3 1.7 -0.2 1.7 0.3 0 0.6 -1.7 1 -3.8 1 -2.1 0 -4.3 0.5 -5 1.2 -0.9 0.9 -1.2 0.9 -1.2 0 0 -0.7 -0.5 -1.2 -1.1 -1.2 -0.5 0 -0.8 0.4 -0.5 0.9 0.4 0.5 0 1.1 -0.6 1.4 -0.7 0.3 0.2 1.1 2 1.9 1.8 0.8 2.9 1.8 2.5 2.2 -0.4 0.4 0.4 0.6 1.9 0.4 1.5 -0.2 3 -0.7 3.4 -1.1 0.4 -0.3 -0.3 -0.4 -1.5 -0.2 -1.2 0.2 -1.9 0 -1.6 -0.6 0.4 -0.5 0.3 -0.9 -0.2 -0.8 -0.4 0.1 -1.7 0.1 -2.8 -0.1 l-2 -0.1 2 -0.9 c1.3 -0.5 2.5 -0.3 3.5 0.5 1.1 1 2 1.1 3.3 0.4 2.2 -1.3 1.9 0.6 -0.6 3.7 -1.3 1.4 -2.6 2 -3.9 1.6 -1.3 -0.3 -1.9 -0.1 -1.5 0.5 0.4 0.6 0 1.3 -0.8 1.7 -1.7 0.6 -2 2.6 -0.4 2.6 0.5 0 0.7 -0.4 0.4 -1 -0.3 -0.5 -0.3 -1 0.2 -1.1 5.2 -0.6 10.4 -0.6 10.8 0 0.2 0.5 -0.7 0.7 -2 0.5 -1.4 -0.1 -2.5 0.1 -2.5 0.5 0 0.5 -1.2 0.6 -2.6 0.3 -1.9 -0.3 -2.5 -0.1 -2 0.7 0.5 0.7 -0.5 1.1 -3.3 1.1 -2.2 0 -4.3 0.5 -4.6 1 -0.4 0.7 0.3 0.9 2.2 0.5 2.2 -0.5 2.5 -0.4 1.3 0.4 -1.1 0.8 -0.7 1 1.7 0.5 2.9 -0.6 3.2 -0.4 2.8 1.5 -0.3 1.6 0.1 2.1 1.6 2.1 1.1 0 1.7 0.5 1.4 1 -0.4 0.6 -1 0.8 -1.5 0.5 -0.4 -0.3 -1.3 0.2 -2 1 -0.9 1.1 -1.6 1.2 -2.5 0.5 -0.8 -0.7 -1.1 -0.4 -1 1 0.1 1.1 0.5 2.3 1 2.7 0.4 0.5 0.5 0.3 0.2 -0.3 -0.4 -0.7 0.2 -1.4 1.3 -1.7 1.4 -0.3 2.4 0.1 3.1 1.5 0.9 1.7 0.8 1.8 -0.8 1 -1.3 -0.7 -2.2 -0.6 -3.3 0.6 -1.3 1.4 -1.3 1.5 0.1 1 0.9 -0.3 2.2 -0.2 3 0.4 1.1 0.8 1 0.9 -0.3 0.4 -1.6 -0.5 -2.3 0.5 -1.9 2.7 0.3 1.6 -3.4 5.4 -4.9 5z m-1 -76.3 c-1.8 -1.1 -2 -3 -0.6 -5 0.9 -1.3 0.9 -1.3 -0.5 -0.2 -0.9 0.7 -2.4 1 -3.3 0.6 -0.9 -0.3 -1.6 -0.1 -1.6 0.5 0 0.6 0.3 1 0.8 1 1.8 -0.3 3.5 0.2 2.9 0.8 -0.9 0.8 1.2 3.3 2.7 3.3 0.6 0 0.4 -0.5 -0.4 -1z m-1.2 -7.7 c-1 -0.2 -1.8 -0.9 -1.8 -1.4 0 -0.6 -0.5 -0.7 -1.1 -0.3 -1.4 0.8 0.8 2.4 3.1 2.3 1.1 -0.1 1 -0.3 -0.2 -0.6z"/>
  <path d="M226.3 269.3 c-0.7 -0.2 -1.3 -1.1 -1.3 -1.8 0 -1.6 3.8 -4 4.8 -3.1 0.3 0.3 0 0.6 -0.7 0.6 -0.8 0 -1.1 0.6 -0.7 1.6 0.5 1.4 0.4 1.5 -0.9 0.4 -1.1 -0.9 -1.5 -0.9 -1.5 -0.1 0 0.6 1 1.6 2.3 2.1 1.2 0.5 1.5 0.9 0.7 0.9 -0.8 -0.1 -2.1 -0.3 -2.7 -0.6z"/>
  <path d="M224.8 253.9 c0.6 -0.9 0.8 -2 0.4 -2.4 -0.4 -0.5 -0.1 -0.5 0.6 -0.1 0.6 0.4 1.2 0.3 1.2 -0.2 0 -0.5 0.6 -0.9 1.4 -0.9 0.8 0 1.2 0.6 0.9 1.4 -0.3 0.8 -0.8 1.1 -1.1 0.8 -0.3 -0.3 -1.5 0.3 -2.6 1.2 -1.5 1.4 -1.8 1.4 -0.8 0.2z"/>
  <path d="M222.4 251.3 c0.4 -0.8 0.1 -1.3 -0.8 -1.3 -0.9 0 -1.6 -0.4 -1.6 -1 0 -1.1 0.7 -1.2 3.3 -0.1 1.8 0.7 1.8 0.8 0.1 2.1 -1.1 0.9 -1.5 1 -1 0.3z"/>
  <path d="M227.8 240.3 c1.2 -0.2 3.2 -0.2 4.5 0 1.2 0.2 0.2 0.4 -2.3 0.4 -2.5 0 -3.5 -0.2 -2.2 -0.4z"/>
  <path d="M219 221 c0 -0.5 1.6 -1 3.6 -1 2.4 0 3.3 -0.4 2.8 -1.2 -0.4 -0.7 -0.3 -0.8 0.5 -0.4 0.9 0.6 0.9 1.1 0 2.2 -1.3 1.6 -6.9 1.9 -6.9 0.4z"/>
  <path d="M218.3 212.3 c-1.3 -0.3 -2.3 -1.2 -2.3 -2.1 0 -1.1 0.3 -1.3 0.8 -0.5 0.4 0.6 2.3 1.6 4.2 2.1 3.5 1 1.6 1.3 -2.7 0.5z"/>
 </g>
 <g fill="#313131">
  <path d="M190.3 332.5 c0 -2.2 0.2 -3 0.4 -1.7 0.2 1.2 0.2 3 0 4 -0.3 0.9 -0.5 -0.1 -0.4 -2.3z"/>
  <path d="M198.9 319.3 c-1.2 -1.6 -1.2 -1.7 0.2 -0.5 0.9 0.7 2.5 1 3.5 0.6 1.6 -0.5 1.6 -0.4 0.4 0.5 -2 1.5 -2.5 1.4 -4.1 -0.6z"/>
  <path d="M203 315.9 c1.2 -0.9 1 -1 -0.9 -0.5 -1.7 0.3 -2.1 0.2 -1.3 -0.6 0.5 -0.5 2 -0.7 3.2 -0.3 1.8 0.6 2 0.9 0.9 1.6 -2 1.3 -3.7 1.1 -1.9 -0.2z"/>
  <path d="M192.6 312.3 c0.3 -1.6 0.5 -3.4 0.6 -4 0.1 -0.7 0.5 -1.3 0.9 -1.3 1.3 0 1.6 2.4 0.6 5.3 -0.5 1.5 -1.3 2.7 -1.7 2.7 -0.5 0 -0.6 -1.2 -0.4 -2.7z"/>
  <path d="M196.8 297.8 c0.9 -1.1 1 -1.8 0.2 -2.3 -0.8 -0.5 -0.8 -1.1 -0.1 -1.9 0.6 -0.7 0.8 -1.6 0.4 -1.9 -0.3 -0.4 0.3 -0.7 1.3 -0.7 1.1 0 2.6 -0.6 3.3 -1.2 1.1 -1.1 1.1 -0.9 0.2 1 -0.7 1.2 -1.6 2 -2 1.7 -0.5 -0.2 -1.5 0.3 -2.2 1.2 -1.2 1.5 -1.2 1.6 0.4 1 2.4 -0.9 2.1 0.6 -0.5 2.9 -1.6 1.3 -1.9 1.4 -1 0.2z"/>
  <path d="M200.3 285.8 c-0.2 -2 0.5 -2.2 2.7 -0.8 1.1 0.7 1.1 1 0.2 1 -0.7 0 -1.1 0.4 -0.8 0.8 0.3 0.5 -0.1 0.9 -0.7 0.9 -0.7 0 -1.4 -0.9 -1.4 -1.9z"/>
  <path d="M203.4 278.8 c-0.4 -0.7 -0.3 -1 0.1 -0.5 0.5 0.4 1.7 0 2.7 -1 2.1 -1.9 2.5 -0.8 0.4 1.3 -1.8 1.7 -2.3 1.8 -3.2 0.2z"/>
  <path d="M211.5 254 c0.4 -0.6 -0.3 -1.4 -1.5 -1.8 -2.1 -0.8 -2.1 -0.8 0.5 -2 1.5 -0.7 3 -1 3.3 -0.7 0.3 0.3 -0.1 0.5 -0.9 0.6 -0.8 0 -0.6 0.4 0.6 0.9 l2 0.9 -2 0 c-1.5 0.1 -1.7 0.3 -0.7 1 1.1 0.7 1 0.9 -0.3 1.4 -0.9 0.4 -1.4 0.3 -1 -0.3z"/>
  <path d="M205.3 246.6 c-1.1 -1.7 -1.2 -3.6 -0.2 -3.6 0.5 0 0.9 -0.4 0.9 -0.9 0 -0.5 -0.8 -0.7 -1.8 -0.4 -1.3 0.3 -2.4 -0.7 -4 -3.6 -1.4 -2.5 -1.9 -4.2 -1.2 -4.6 0.5 -0.3 1 0.2 1 1.1 0 1.4 0.3 1.5 1.2 0.6 0.7 -0.7 2.3 -1.2 3.7 -1.2 1.3 0 2.2 0.3 1.8 0.6 -0.3 0.3 0.6 1.6 1.9 2.8 l2.5 2.1 -4 0 c-3.9 0 -6 -1.4 -2.3 -1.6 1.3 0 1.4 -0.2 0.2 -0.6 -0.8 -0.3 -1.9 -1.1 -2.3 -1.7 -0.4 -0.6 -0.6 0.2 -0.5 1.9 0.2 2.2 0.8 3 2.3 3 1.1 0 2 0.7 2 1.5 0 2.6 1.7 3.6 5.4 3.3 2 -0.2 2.9 0 2.1 0.3 -0.8 0.3 -2.2 0.8 -3 1.2 -2.7 1 -5 1 -5.7 -0.2z"/>
  <path d="M196.1 229.7 c-0.6 -1.6 -0.8 -3.3 -0.5 -3.8 0.3 -0.5 -0.1 -1 -0.8 -1 -0.7 -0.1 0.1 -0.4 1.7 -0.8 4 -1 4.3 -0.6 1.4 2 -1.3 1.1 -1.8 1.8 -1.1 1.4 2.1 -1.1 3.7 0.7 1.8 2.1 -0.9 0.6 -1.3 1.5 -0.8 1.8 0.6 0.3 1.2 -0.1 1.6 -0.9 0.3 -0.8 1.6 -1.5 2.8 -1.5 1.7 0 1.9 0.3 0.9 0.9 -0.7 0.5 -1.1 1.3 -0.7 1.9 0.4 0.7 -0.5 1 -2.3 1 -2.4 -0.1 -3.2 -0.7 -4 -3.1z"/>
  <path d="M199.5 227 c-0.8 -1.3 2.5 -1.3 4.5 0 1.2 0.8 0.9 1 -1.2 1 -1.5 0 -3 -0.4 -3.3 -1z"/>
  <path d="M194.5 222.3 c1.6 -1.3 1.6 -3.3 0 -2.7 -0.9 0.4 -1.5 0 -1.5 -0.9 0 -1.2 0.9 -1.4 4.1 -1 3.8 0.6 4.1 0.4 3.5 -1.4 -0.8 -2.4 1.6 -5.3 4.4 -5.3 1 0 2.7 -0.3 3.7 -0.6 1.5 -0.5 1.5 -0.4 0.3 0.5 -0.8 0.6 -2.3 1.1 -3.3 1.1 -3 0 -4.7 2.3 -3.2 4.3 0.7 0.9 1.5 1.7 1.9 1.7 0.4 0 1.5 0.8 2.4 1.7 1.6 1.6 1.6 1.6 -0.3 0.8 -1.1 -0.4 -3.6 -0.9 -5.5 -1.1 l-3.5 -0.3 3.5 0.7 c1.9 0.4 3 1 2.4 1.4 -1.6 1.1 -10.1 2.1 -8.9 1.1z"/>
  <path d="M196.9 209.1 c0.9 -0.6 1 -1.1 0.2 -1.5 -0.6 -0.4 -1.5 -0.4 -2.1 -0.1 -0.5 0.3 -1 0.1 -1 -0.4 0 -0.6 0.7 -1.2 1.5 -1.2 2.9 -0.3 3.3 -0.4 4.2 -1.3 0.5 -0.5 0.2 -0.6 -0.6 -0.1 -0.9 0.5 -1.2 0.4 -0.8 -0.2 0.4 -0.7 2 -0.8 4.1 -0.3 1.9 0.4 3.7 0.6 3.9 0.4 0.2 -0.2 0.4 0.3 0.4 1 0 0.8 -0.5 1.4 -1.1 1.3 -0.6 -0.1 -1 0.3 -0.9 0.9 0.1 0.6 -0.4 1.1 -1.2 1.1 -0.7 0 -1.2 -0.8 -1 -1.9 0.3 -1.1 -0.2 -1.8 -1.2 -1.8 -0.9 0 -1.4 0.3 -1 0.6 0.7 0.7 -2.4 4.4 -3.8 4.4 -0.5 0 -0.4 -0.4 0.4 -0.9z"/>
  <path d="M195 204.1 c0 -0.6 0.4 -1.1 0.9 -1.1 0.5 0 1.2 -0.8 1.4 -1.7 0.4 -1.5 0.5 -1.5 0.6 -0.2 0 0.9 -0.6 2.2 -1.4 2.9 -1 0.9 -1.5 0.9 -1.5 0.1z"/>
  <path d="M198.7 197.8 c0.2 -0.5 1.8 -0.8 3.5 -0.8 1.7 0 2.8 0.3 2.5 0.7 -1 0.9 -6.6 1 -6 0.1z"/>
  <path d="M200 195.2 c0 -1.5 1.1 -2.1 2.7 -1.5 1.2 0.5 1.2 0.7 0.1 1.4 -1.7 1.1 -2.8 1.1 -2.8 0.1z"/>
 </g>
 <g fill="#3a3a3a">
 </g>
 <g fill="#424242">
 </g>
 <g fill="#4a4a4a">
 </g>
 <g fill="#525252">
 </g>
 <g fill="#5a5a5a">
 </g>
 <g fill="#636363">
 </g>
 <g fill="#6b6b6b">
 </g>
 <g fill="#737373">
 </g>
 <g fill="#7b7b7b">
 </g>
 <g fill="#848484">
 </g>
 <g fill="#8c8c8c">
 </g>
 <g fill="#949494">
 </g>
 <g fill="#9c9c9c">
 </g>
 <g fill="#a5a5a5">
 </g>
 <g fill="#adadad">
 </g>
 <g fill="#b5b5b5">
 </g>
 <g fill="#bdbdbd">
 </g>
 <g fill="#c5c5c5">
 </g>
 <g fill="#cecece">
 </g>
 <g fill="#d6d6d6">
 </g>
 <g fill="#dedede">
 </g>
 <g fill="#e6e6e6">
 </g>
 <g fill="#efefef">
 </g>
 <g fill="#f7f7f7">
 </g>
 <g fill="#ffffff">
 </g>
</svg>