<?xml version="1.0" encoding="utf-8"?>
<!DOCTYPE svg PUBLIC "-//W3C//DTD SVG 1.0//EN" "http://www.w3.org/TR/2001/REC-SVG-20010904/DTD/svg10.dtd">
<svg version="1.0" xmlns="http://www.w3.org/2000/svg" width="500px" height="500px" viewBox="0 0 500 500" preserveAspectRatio="xMidYMid meet">
 <g fill="#e1999e">
  <path d="M99 395.4 c0 -4.4 3.3 -33.9 5 -44.4 0.5 -3 1.4 -8.9 2 -13 1.5 -10.4 2.2 -14.3 10 -59 7.7 -43.8 8.4 -47.9 10.1 -59.7 l1.3 -8.3 3.2 11.4 c3.6 12.5 12.3 36.5 15.5 42.8 0.5 1 0.9 2.4 0.9 3.2 0 0.7 0.6 1.9 1.4 2.5 1.1 1 1.5 0.8 1.9 -0.6 0.5 -2.4 4.2 5.4 5.8 12.3 2.2 9.9 -1.9 14.5 -4.9 5.5 -1.2 -3.6 -1.6 -4.1 -2.4 -2.7 -0.5 1 -1.4 4.4 -1.9 7.7 -0.5 3.2 -1.3 8.5 -1.9 11.7 -5 30.3 -10 64.9 -11.2 79.1 l-1.2 14.1 -16.8 0 -16.8 0 0 -2.6z"/>
  <path d="M367 392.8 c0 -8.9 -5.2 -50.2 -9 -72 -0.5 -3.2 -1.4 -8.5 -2 -11.8 -0.5 -3.3 -1.4 -8.6 -2 -11.7 -0.5 -3.2 -1.2 -7.5 -1.5 -9.5 -0.3 -2.1 -0.9 -3.8 -1.4 -3.8 -0.4 0 -1.5 2.5 -2.5 5.5 -1.9 6.1 -2.4 6.6 -5.4 5.8 -1.9 -0.4 -2.2 -1.3 -2.2 -5.2 -0.1 -6.4 5.8 -21.1 8.4 -21.1 1.2 0 1.6 0.5 1.2 1.5 -1.1 3 1.3 1.4 2.8 -1.7 5.4 -12.2 16.6 -45.7 18.4 -55.3 0.8 -4.2 1 -4.4 1.1 -1.7 0 1.8 0.5 5.2 1 7.5 0.5 2.3 1.4 7.8 2.1 12.2 0.6 4.4 3.3 20.2 6 35 4.3 23.7 5.8 32.4 10 57.5 0.5 3 1.4 8.9 2 13 0.6 4.1 1.5 10 2 13 1.1 6.9 2.8 22.2 3.5 32 0.3 4.1 0.8 9.4 1.1 11.8 l0.6 4.2 -17.1 0 -17.1 0 0 -5.2z"/>
  <path d="M200 385.6 c-4.8 -10.5 -4.9 -12.4 -2 -37.1 1.1 -9.3 2 -17.1 2 -17.2 0 -0.2 0.6 -0.3 1.4 -0.3 0.8 0 1.6 0.8 1.8 1.8 0.3 1 3.5 -4.5 7.8 -13.3 4 -8.2 14.5 -29.6 23.3 -47.5 l16 -32.5 9.8 20 c5.4 11 12.9 26.5 16.8 34.5 19.1 39.9 19.2 40.1 20.6 39 1.1 -0.9 1.5 -0.5 1.9 2.2 0.9 5.9 2.7 23.1 3.5 33.3 0.7 10 0.7 10 -2.8 17.7 -2 4.3 -3.8 7.8 -4.1 7.8 -0.3 0 -10.6 -20.3 -22.9 -45 -12.3 -24.7 -22.7 -44.8 -23.1 -44.5 -0.4 0.2 -10.2 19.2 -21.8 42.2 -11.6 23 -21.7 43.1 -22.6 44.7 l-1.5 3 -4.1 -8.8z"/>
  <path d="M265.7 215.1 c-4 -6 -6.9 -15.7 -7.5 -24.6 -0.3 -6.4 0.1 -10 2.2 -18.3 4.5 -17.8 10 -27.1 29.5 -50.2 4.4 -5.2 9.7 -12.3 11.7 -15.8 2 -3.4 4 -6.2 4.3 -6.2 1 0 6.3 5.8 8.8 9.5 3.9 5.8 6.9 16.9 10.2 37.5 0.5 3.6 1.5 9.4 2 13 0.8 4.8 0.8 6.6 -0.1 6.9 -0.6 0.2 -3 2 -5.2 4 -2.3 2.1 -5.2 4.4 -6.6 5.3 -1.4 0.8 -6.6 5.3 -11.6 9.9 -9.4 8.7 -16.6 15 -27.1 23.8 -3.8 3.1 -6.3 5.9 -6.3 7.1 0 3.1 -1.5 2.4 -4.3 -1.9z"/>
  <path d="M328.5 212.3 c3.5 -8.4 5.5 -17.5 5.5 -25.4 l0 -8.6 9.1 -6.9 c12.5 -9.5 14 -10.4 17.3 -10.4 l2.9 0 -0.7 7.9 c-0.3 4.3 -1 9.2 -1.5 10.7 -0.5 1.6 -1.5 4.9 -2.2 7.4 -0.7 2.5 -2.4 6.3 -3.6 8.5 -1.3 2.2 -2.6 4.8 -3 5.8 -0.3 0.9 -1 1.7 -1.7 1.7 -0.6 0 -4.7 2.5 -9 5.5 -5.2 3.6 -9 5.5 -10.9 5.5 -2.4 0 -2.8 -0.3 -2.2 -1.7z"/>
  <path d="M234.6 191.3 c-1.2 -10.5 -4.3 -18.9 -10.7 -28.4 l-3.8 -5.6 2.2 -2 c6.4 -5.9 9.6 -5.7 12.5 1 6.8 15.3 9.3 33.6 5.3 38.5 -3.3 3.8 -4.8 2.8 -5.5 -3.5z"/>
  <path d="M141.5 188 c-0.3 -0.5 -1.2 -3.3 -2 -6.2 -2.2 -8.9 -2.8 -22.3 -1.4 -35.3 1.5 -14.1 1.7 -21.9 0.5 -25.8 -0.8 -2.7 -0.7 -2.8 2 -2.2 11.6 2.6 29.5 10.3 42 18.1 5.8 3.6 7.4 5.1 7.4 7 0 1.2 -0.6 2.7 -1.4 3.1 -0.8 0.4 -3 2.8 -5.1 5.3 -2 2.4 -5.6 5.8 -7.9 7.4 -2.2 1.7 -4.3 3.3 -4.6 3.6 -0.3 0.4 -3 2.6 -6.1 5.1 -14.3 11.4 -20 16.6 -20.6 18.6 -0.5 2.4 -1.8 3 -2.8 1.3z"/>
 </g>
 <g fill="#f4c5c2">
  <path d="M194.7 373.6 c-2 -4.3 -3.7 -8 -3.7 -8.1 0 -0.3 -4.5 -10.1 -12.5 -27 -2.3 -5 -5.7 -11.1 -7.6 -13.6 -9.1 -11.8 -16.6 -27.6 -17.5 -36.8 -0.3 -2.5 -1.5 -7.1 -2.8 -10.3 -1.3 -3.2 -2 -5.8 -1.5 -5.8 1.5 0 1.1 -1.8 -4.2 -15.8 -4.6 -12.5 -9.7 -27.1 -12 -34.6 -1 -3.5 -0.7 -3.1 5.3 5.4 2.6 3.6 7.5 9.3 11 12.5 5.7 5.4 9.2 8 21.8 16.2 6.7 4.3 14.7 12.2 19.4 19 11.6 17.1 14.8 40.2 10.6 77.2 -1.1 9.7 -2.1 20.3 -2.2 23.6 l-0.3 6 -3.8 -7.9z"/>
  <path d="M325.3 328.3 c-2.3 -0.9 -1.4 -7 2.1 -14.7 l3.5 -7.6 5 0 c2.8 0 5.1 0.2 5.1 0.4 0 1.5 -13.1 22.6 -14 22.5 -0.3 0 -1.1 -0.3 -1.7 -0.6z"/>
  <path d="M334 295.6 c0 -3.8 -0.7 -6.6 -2.5 -9.8 -2.6 -4.7 -6.4 -15.2 -6.5 -17.8 0 -0.8 -0.6 -2.7 -1.4 -4.2 -1.7 -3.2 -2.2 -2.7 12.7 -12.8 12.4 -8.3 22.1 -17.6 27.3 -26.1 2.1 -3.3 3.9 -5.8 4.1 -5.6 0.5 0.5 -5.1 18.3 -9.7 30.7 -2.1 5.8 -5.1 14.1 -6.5 18.5 -1.5 4.4 -3.8 10.6 -5.1 13.7 -1.3 3.2 -2.4 6.9 -2.4 8.2 0 1.4 -0.7 4.4 -1.6 6.6 -1.4 3.6 -2 4 -5 4 l-3.4 0 0 -5.4z"/>
  <path d="M330.7 143.8 c-0.3 -1.3 -0.8 -4.3 -1.2 -6.8 l-0.6 -4.5 7.2 -4.8 c7.6 -5 19.6 -11.1 24 -12.1 l2.6 -0.6 -0.9 4.8 c-0.5 2.6 -0.6 6.7 -0.3 9.1 l0.7 4.3 -3.8 -0.4 c-3.3 -0.4 -4.9 0.4 -13.7 6.4 -5.6 3.7 -10.9 6.8 -11.8 6.8 -0.9 0 -1.9 -1 -2.2 -2.2z"/>
  <path d="M183.3 128.4 l-4.1 -2.4 1.1 -4.2 c1.1 -4.5 6.1 -12.6 12 -19.2 3.4 -3.9 3.5 -3.9 4.2 -1.5 0.4 1.3 2.3 4.7 4.1 7.6 l3.3 5.2 -3.3 4.1 c-1.7 2.2 -5.5 6 -8.2 8.5 l-5.1 4.4 -4 -2.5z"/>
 </g>
 <g fill="#da8c92">
  <path d="M280.2 269.5 c-0.3 -8.3 2.6 -27.7 5.2 -34.5 0.4 -1 -1.3 -2.7 -5.4 -5.4 -7.6 -4.8 -13 -11 -13 -14.7 0 -2.2 1.3 -3.9 6.3 -8 10.6 -8.9 17.7 -15.1 27.1 -23.8 5 -4.6 10.7 -9.4 12.6 -10.6 1.9 -1.2 4.4 -3.2 5.5 -4.5 2.8 -3.1 7.5 -5.4 8.7 -4.2 0.5 0.5 1 7.8 1 16.3 0.1 14.1 -0.1 16 -2.4 22.5 -2.4 6.9 -7.6 14.7 -10.4 15.8 -0.8 0.3 -2.2 2.2 -3.2 4.3 -2.1 4.6 -2.9 5.3 -11 9.4 -7 3.6 -10.2 6.9 -13.7 14 -2.2 4.7 -6.1 18.4 -6.8 24.4 -0.3 2.4 -0.4 2.2 -0.5 -1z"/>
  <path d="M313.7 230.2 c5.8 -4.9 9 -8.5 12.8 -14.7 1.1 -1.9 5.9 -5.9 11.1 -9.3 14.8 -9.9 18.4 -9.3 9.9 1.8 -6.5 8.5 -17.8 18.4 -24.9 21.8 -14.1 6.8 -16.8 6.9 -8.9 0.4z"/>
  <path d="M232.4 217.4 c1.4 -3.6 2.6 -11.7 2.6 -17.4 0 -4.3 0.5 -6.4 2.1 -8.4 7.2 -9.2 6.4 7.9 -1.1 22.2 -2.3 4.4 -4.9 7.1 -3.6 3.6z"/>
  <path d="M157.4 213.2 c-9.1 -10.5 -15.1 -20.2 -16 -26.1 -0.5 -3.3 -0.3 -4.3 1.8 -6.3 3.3 -3.1 13 -11.3 19.2 -16.2 2.8 -2.2 5.3 -4.2 5.6 -4.6 0.3 -0.3 2.4 -1.9 4.6 -3.6 2.3 -1.6 5.9 -5 7.9 -7.4 2.1 -2.5 4.3 -4.9 5.1 -5.3 0.8 -0.4 1.4 -1.5 1.4 -2.2 0 -0.8 0.3 -1.5 0.7 -1.5 1.7 0 19.8 14.8 24.3 19.8 5 5.7 5 5.7 2.8 7.2 -1.2 0.8 -8.9 8.3 -17.2 16.5 -8.3 8.3 -17.8 17 -21.1 19.4 -7.3 5.4 -13.5 11.7 -13.5 13.6 0 2.4 -1.3 1.7 -5.6 -3.3z"/>
 </g>
 <g fill="#edb9b6">
  <path d="M197.7 380 c-0.5 -1.4 -0.3 -7.5 0.2 -13.5 2.2 -22.9 3.3 -33 3.7 -33.4 1.4 -1.4 1.3 2.5 -0.5 18.5 -1.2 9.9 -2.2 20.8 -2.3 24.4 -0.3 5 -0.5 5.9 -1.1 4z"/>
  <path d="M301.4 380.2 c-0.6 -0.4 -1.6 -7.2 -2.2 -15.2 -0.7 -8 -1.7 -18.1 -2.2 -22.5 -0.5 -4.4 -0.6 -8.3 -0.1 -8.8 0.5 -0.5 0.6 -3.8 0.3 -7.4 -0.9 -12.2 2.5 -32.3 7.6 -43.3 0.8 -1.9 2.9 -5.4 4.5 -7.8 3.6 -5.4 14.7 -16.4 16.1 -15.9 0.5 0.2 1.3 1.4 1.7 2.8 3.5 12.1 4.5 15 6.8 19.4 1.6 3.1 2.8 7.3 3.1 11 l0.5 6 4.9 -12 c4.5 -11 7.6 -16.6 7.6 -13.8 0 0.6 -1.3 4.3 -3 8.1 -3.3 7.9 -3.8 11.2 -1.5 11.2 2.2 0 1.9 1.3 -1.9 9.6 -3.2 6.9 -3.7 7.4 -6.6 7.4 -2.9 0 -3.3 0.5 -6.6 7.7 -2.6 5.6 -3.2 7.8 -2.3 8.4 0.9 0.5 0.4 2.1 -1.9 5.6 -1.7 2.6 -3.9 6.8 -5 9.3 -1.1 2.5 -4 8.8 -6.5 14 -4.6 9.7 -9 19.3 -11 24.2 -0.7 1.6 -1.6 2.5 -2.3 2z"/>
  <path d="M155.6 299.2 c-2.8 -6.1 -3.5 -8.5 -2.8 -9.8 1 -1.9 -0.7 -9.4 -3.4 -14.6 -0.8 -1.6 -1.2 -2.8 -0.9 -2.8 1.1 0 8.3 16.3 10.5 23.8 1.6 5.1 2 8 1.3 9.4 -0.8 1.7 -1.4 0.9 -4.7 -6z"/>
  <path d="M334 175.2 c0 -4.3 -0.4 -10.3 -0.9 -13.3 -0.5 -3 -1.2 -8.4 -1.6 -12 l-0.6 -6.6 9.5 -6.2 c5.2 -3.4 10.2 -7.1 11.2 -8.2 1.2 -1.3 3 -1.9 5.8 -1.8 3.2 0 3.7 0.2 2.1 0.9 -2 0.9 -2 0.9 0.1 1.5 1.9 0.6 2.2 1.6 2.8 11.2 0.3 5.9 0.6 13.4 0.6 16.7 0 6.1 0 6.1 -3.8 7.8 -2 1 -7.7 4.9 -12.7 8.8 -13.4 10.6 -12.5 10.5 -12.5 1.2z"/>
  <path d="M222 160 c0 -2.4 -16.1 -16.7 -26.3 -23.5 -5.9 -3.8 -10.7 -7.4 -10.7 -8 0 -0.5 2.6 -3.5 5.8 -6.5 3.2 -3 6.9 -6.8 8.1 -8.5 l2.3 -3 2.7 3.4 c1.4 1.8 6.1 7.5 10.4 12.5 7.6 8.9 18.7 24.7 18.7 26.5 0 0.5 -0.9 1.3 -2.1 1.6 -1.1 0.4 -3.6 2 -5.5 3.7 -1.9 1.7 -3.4 2.5 -3.4 1.8z"/>
 </g>
 <g fill="#d27f85">
  <path d="M219.2 269.7 c-0.3 -5.7 -3.9 -18.2 -7.6 -26.2 l-3.3 -7.2 -10 -0.5 c-8.6 -0.5 -11 -1.1 -16.8 -3.9 -9.8 -4.7 -21.5 -14.2 -21.5 -17.5 0 -2.9 4.8 -7.9 16.6 -17.2 4.4 -3.4 13 -11.4 19 -17.8 6 -6.4 12.7 -12.8 14.9 -14.1 l3.9 -2.6 2.8 3.4 c2.8 3.3 8.3 13.8 10.9 20.9 1.8 4.7 1.8 22.4 0 27 -2.9 7.6 -5.5 12 -9.3 15.9 l-4.1 4 1.6 6.4 c2.1 8.3 4 24.1 3.4 29.2 l-0.4 4 -0.1 -3.8z"/>
  <path d="M301.1 230.1 c-1.2 -0.8 -1.2 -1.2 0.2 -2.5 2 -2 3.3 -2 4.1 0 1.1 3 -1.3 4.4 -4.3 2.5z"/>
  <path d="M307.1 227.1 c-1.4 -0.9 -0.8 -4.4 1.3 -6.8 5 -6.2 12.5 -13.3 13.9 -13.3 0.9 0 1.7 0.2 1.7 0.5 0 1.8 -5.8 11.4 -8.8 14.7 -4.4 4.8 -6.4 5.9 -8.1 4.9z"/>
  <path d="M321.5 205 c0.3 -0.5 1.3 -1 2.1 -1 0.8 0 1.4 0.5 1.4 1 0 0.6 -0.9 1 -2.1 1 -1.1 0 -1.7 -0.4 -1.4 -1z"/>
 </g>
</svg>